SplineFontDB: 3.2
FontName: D-DIN-PRO-Exp-Regular
FullName: D-DIN-PRO-Exp-Regular
FamilyName: D-DIN-PRO-Exp
Weight: Regular
Copyright: Copyright (c) CyberFei. All rights reserved
Version: 1.1.0
ItalicAngle: 0
UnderlinePosition: -150
UnderlineWidth: 50
Ascent: 831
Descent: 169
InvalidEm: 0
sfntRevision: 0x00010000
LayerCount: 2
Layer: 0 0 "Back" 1
Layer: 1 0 "Fore" 0
XUID: [1021 868 -1451673819 23356]
StyleMap: 0x0040
FSType: 4
OS2Version: 4
OS2_WeightWidthSlopeOnly: 1
OS2_UseTypoMetrics: 0
CreationTime: 1462909513
ModificationTime: 1509658625
PfmFamily: 17
TTFWeight: 400
TTFWidth: 7
LineGap: 0
VLineGap: 0
Panose: 2 11 5 4 2 2 2 3 2 4
OS2TypoAscent: 831
OS2TypoAOffset: 0
OS2TypoDescent: -169
OS2TypoDOffset: 0
OS2TypoLinegap: 86
OS2WinAscent: 902
OS2WinAOffset: 0
OS2WinDescent: 184
OS2WinDOffset: 0
HheadAscent: 902
HheadAOffset: 0
HheadDescent: -184
HheadDOffset: 0
OS2SubXSize: 650
OS2SubYSize: 600
OS2SubXOff: 0
OS2SubYOff: 75
OS2SupXSize: 650
OS2SupYSize: 600
OS2SupXOff: 0
OS2SupYOff: 350
OS2StrikeYSize: 50
OS2StrikeYPos: 307
OS2CapHeight: 690
OS2XHeight: 512
OS2Vendor: 'MONO'
OS2CodePages: 00000001.00000000
OS2UnicodeRanges: 8000006f.4000000a.00000000.00000000
Lookup: 1 0 0 "'rtla' Right to Left Alternates lookup 0" { "'rtla' Right to Left Alternates lookup 0 subtable"  } ['rtla' ('DFLT' <'dflt' > ) ]
Lookup: 1 0 0 "'sups' Superscript lookup 1" { "'sups' Superscript lookup 1 subtable" ("superior") } ['sups' ('DFLT' <'dflt' > ) ]
Lookup: 4 0 0 "'frac' Diagonal Fractions lookup 2" { "'frac' Diagonal Fractions lookup 2 subtable"  } ['frac' ('DFLT' <'dflt' > ) ]
Lookup: 258 0 0 "'kern' Horizontal Kerning in Latin lookup 0" { "'kern' Horizontal Kerning in Latin lookup 0 subtable"  } ['kern' ('DFLT' <'dflt' > 'latn' <'dflt' > ) ]
Lookup: 258 0 0 "Pairwise Positioning (kerning) lookup 1" { "Pairwise Positioning (kerning) lookup 1 subtable"  } []
Lookup: 258 0 0 "Pairwise Positioning (kerning) lookup 2" { "Pairwise Positioning (kerning) lookup 2 subtable"  } []

StartChar: .notdef
Encoding: 65536 -1 0
Width: 600
GlyphClass: 1
Flags: W
LayerCount: 2
Fore
SplineSet
101 690 m 1
 498 690 l 1
 498 0 l 1
 101 0 l 1
 101 690 l 1
464 34 m 1
 464 656 l 1
 135 656 l 1
 135 34 l 1
 464 34 l 1
EndSplineSet
EndChar

StartChar: exclam
Encoding: 33 33 4
Width: 239
GlyphClass: 2
Flags: W
LayerCount: 2
Fore
SplineSet
69 690 m 1
 170 690 l 1
 153 206 l 1
 87 206 l 1
 69 690 l 1
69 104 m 1
 170 104 l 1
 170 0 l 1
 69 0 l 1
 69 104 l 1
EndSplineSet
EndChar

StartChar: quotedbl
Encoding: 34 34 5
Width: 337
GlyphClass: 2
Flags: W
LayerCount: 2
Fore
SplineSet
48 690 m 1
 129 690 l 1
 129 439 l 1
 48 439 l 1
 48 690 l 1
208 690 m 1
 290 690 l 1
 290 439 l 1
 208 439 l 1
 208 690 l 1
EndSplineSet
EndChar

StartChar: numbersign
Encoding: 35 35 6
Width: 584
GlyphClass: 2
Flags: W
LayerCount: 2
Fore
SplineSet
436 423 m 1
 418 283 l 1
 537 283 l 1
 537 216 l 1
 410 216 l 1
 382 0 l 1
 309 0 l 1
 337 216 l 1
 209 216 l 1
 181 0 l 1
 108 0 l 1
 136 216 l 1
 23 216 l 1
 23 283 l 1
 145 283 l 1
 163 423 l 1
 47 423 l 1
 47 489 l 1
 172 489 l 1
 198 690 l 1
 270 690 l 1
 244 489 l 1
 372 489 l 1
 398 690 l 1
 470 690 l 1
 444 489 l 1
 562 489 l 1
 562 423 l 1
 436 423 l 1
364 423 m 1
 236 423 l 1
 218 283 l 1
 346 283 l 1
 364 423 l 1
EndSplineSet
EndChar

StartChar: dollar
Encoding: 36 36 7
Width: 519
GlyphClass: 2
Flags: W
LayerCount: 2
Fore
SplineSet
428 84 m 0
 394.666992188 52.6669921875 348 34.3330078125 288 29 c 1
 288 -59 l 1
 221 -59 l 1
 221 28 l 1
 161.666992188 32.6669921875 116 50.6669921875 84 82 c 0
 52 113.333007812 34.3330078125 157.333007812 31 214 c 1
 114 214 l 1
 117.333007812 180.666015625 127.5 155.333007812 144.5 138 c 0
 161.5 120.666992188 187 109.666992188 221 105 c 1
 221 316 l 1
 211 318 l 2
 155.666992188 328 114 346.166992188 86 372.5 c 0
 58 398.833007812 44 436 44 484 c 0
 44 534 59.5 574.5 90.5 605.5 c 0
 121.5 636.5 165 654.666992188 221 660 c 1
 221 741 l 1
 288 741 l 1
 288 661 l 1
 342 656.333007812 384.5 639.166015625 415.5 609.499023438 c 0
 446.5 579.83203125 463.666992188 538.33203125 467 484.999023438 c 1
 384 484.999023438 l 1
 381.33203125 514.999023438 372.165039062 538.166015625 356.5 554.499023438 c 0
 340.833007812 570.83203125 318 580.999023438 288 584.999023438 c 1
 288 386.999023438 l 1
 312 382.999023438 l 2
 366.666992188 372.999023438 408 354.166015625 436 326.499023438 c 0
 464 298.83203125 478 260.33203125 478 210.999023438 c 0
 478 157.666015625 461.333007812 115.333007812 428 84 c 0
152 430.499023438 m 0
 166.666992188 416.166015625 189.666992188 405.666015625 221 398.999023438 c 1
 221 584.999023438 l 1
 160.333007812 576.999023438 130 545.666015625 130 490.999023438 c 0
 130 464.999023438 137.333007812 444.83203125 152 430.499023438 c 0
392 204.999023438 m 0
 392 234.33203125 384 256.331054688 368 270.998046875 c 0
 352 285.665039062 325.333007812 296.665039062 288 303.998046875 c 1
 288 103.998046875 l 1
 357.333007812 110.665039062 392 144.33203125 392 204.999023438 c 0
EndSplineSet
EndChar

StartChar: percent
Encoding: 37 37 8
Width: 917
GlyphClass: 2
Flags: W
LayerCount: 2
Fore
SplineSet
77.5 307.5 m 0
 53.8330078125 335.166992188 42 376 42 430 c 2
 42 538 l 2
 42 590 54.1669921875 629.5 78.5 656.5 c 0
 102.833007812 683.5 138.333007812 697 185 697 c 0
 280.333007812 697 328 644 328 538 c 2
 328 430 l 2
 328 376 316 335.166992188 292 307.5 c 0
 268 279.833007812 232 266 184 266 c 0
 136.666992188 266 101.166992188 279.833007812 77.5 307.5 c 0
609 692 m 1
 683 692 l 1
 302 0 l 1
 229 0 l 1
 609 692 l 1
235 357 m 0
 245 373 250 399 250 435 c 2
 250 530 l 2
 250 564.666992188 245 590 235 606 c 0
 225 622 208.333007812 630 185 630 c 0
 161.666992188 630 144.833984375 622 134.500976562 606 c 0
 124.16796875 590 119.000976562 564.666992188 119.000976562 530 c 2
 119.000976562 435 l 2
 119.000976562 399 124.16796875 373 134.500976562 357 c 0
 144.833984375 341 161.666992188 333 185 333 c 0
 208.333007812 333 225 341 235 357 c 0
589 158 m 2
 589 264.999023438 l 2
 589 317.666015625 601 357.333007812 625 384 c 0
 649 410.666992188 684.666992188 424 732 424 c 0
 827.333007812 424 875 371 875 265 c 2
 875 158 l 2
 875 48.6669921875 827 -6 731 -6 c 0
 636.333007812 -6 589 48.6669921875 589 158 c 2
782 84.9990234375 m 0
 792 100.999023438 797.000976562 126.666015625 797.000976562 161.999023438 c 2
 797.000976562 256.999023438 l 2
 797.000976562 292.33203125 792.000976562 317.83203125 782.000976562 333.499023438 c 0
 772.000976562 349.166015625 755.333984375 356.999023438 732.000976562 356.999023438 c 0
 708.665039062 356.999023438 691.83203125 349.166015625 681.500976562 333.499023438 c 0
 671.16796875 317.83203125 666.000976562 292.33203125 666.000976562 256.999023438 c 2
 666.000976562 161.999023438 l 2
 666.000976562 126.666015625 671.16796875 100.999023438 681.500976562 84.9990234375 c 0
 691.833984375 68.9990234375 708.666992188 60.9990234375 732 60.9990234375 c 0
 755.333007812 60.9990234375 772 68.9990234375 782 84.9990234375 c 0
EndSplineSet
EndChar

StartChar: ampersand
Encoding: 38 38 9
Width: 663
GlyphClass: 2
Flags: W
LayerCount: 2
Fore
SplineSet
611 78 m 1
 610.999023438 0.0009765625 l 1
 576.999023438 0.0009765625 l 2
 552.33203125 0.0009765625 531.999023438 4.0009765625 515.999023438 12.0009765625 c 0
 499.999023438 20.0009765625 482.666015625 34.66796875 463.999023438 56.0009765625 c 2
 444.999023438 79.0009765625 l 1
 414.999023438 47.0009765625 384.499023438 24.0009765625 353.499023438 10.0009765625 c 0
 322.499023438 -3.9990234375 288.666015625 -10.9990234375 251.999023438 -10.9990234375 c 0
 209.999023438 -10.9990234375 173.999023438 -2.83203125 143.999023438 13.5009765625 c 0
 113.999023438 29.833984375 91.166015625 52.0009765625 75.4990234375 80.0009765625 c 0
 59.83203125 108.000976562 51.9990234375 139.66796875 51.9990234375 175.000976562 c 0
 51.9990234375 215.000976562 63.4990234375 251.833984375 86.4990234375 285.500976562 c 0
 109.499023438 319.16796875 145.33203125 351.66796875 193.999023438 383.000976562 c 1
 165.33203125 418.333984375 144.83203125 448.500976562 132.499023438 473.500976562 c 0
 120.166015625 498.501953125 113.999023438 523.334960938 113.999023438 548.000976562 c 0
 113.999023438 577.333984375 120.999023438 603.500976562 134.999023438 626.500976562 c 0
 148.999023438 649.500976562 168.666015625 667.66796875 193.999023438 681.000976562 c 0
 219.33203125 694.333984375 247.999023438 701.000976562 279.999023438 701.000976562 c 0
 328.666015625 701.000976562 368.333007812 686.66796875 399 658.000976562 c 0
 429.666992188 629.333984375 445 592.333984375 445 547.000976562 c 0
 445 512.333984375 435 481.666992188 415 455 c 0
 395 428.333007812 362.333007812 400 317 370 c 2
 312 367 l 1
 451 200 l 1
 541 305 l 1
 598 255 l 1
 500 141 l 1
 524 112 l 2
 535.333007812 99.3330078125 545.833007812 90.5 555.5 85.5 c 0
 565.166992188 80.5 577 78 591 78 c 2
 611 78 l 1
220.499023438 607.500976562 m 0
 205.499023438 592.500976562 197.999023438 573.000976562 197.999023438 549.000976562 c 0
 197.999023438 532.333984375 202.33203125 515.666992188 210.999023438 499 c 0
 219.666015625 482.333007812 235.666015625 459.333007812 258.999023438 430 c 2
 263.999023438 424 l 1
 269.999023438 428 l 2
 303.999023438 450 327.83203125 469.833007812 341.499023438 487.5 c 0
 355.166015625 505.166992188 361.999023438 525.333984375 361.999023438 548.000976562 c 0
 361.999023438 572.66796875 354.499023438 592.500976562 339.499023438 607.500976562 c 0
 324.499023438 622.500976562 304.666015625 630.000976562 279.999023438 630.000976562 c 0
 255.33203125 630.000976562 235.499023438 622.500976562 220.499023438 607.500976562 c 0
328.499023438 82.5009765625 m 0
 350.166015625 93.5009765625 372.998046875 111.66796875 396.998046875 137.000976562 c 1
 240.998046875 325.000976562 l 1
 205.665039062 301.66796875 179.33203125 278.16796875 161.999023438 254.500976562 c 0
 144.666015625 230.833984375 135.999023438 205.333984375 135.999023438 178.000976562 c 0
 135.999023438 145.333984375 146.666015625 118.500976562 167.999023438 97.5009765625 c 0
 189.33203125 76.5009765625 219.33203125 66.0009765625 257.999023438 66.0009765625 c 0
 283.33203125 66.0009765625 306.83203125 71.5009765625 328.499023438 82.5009765625 c 0
EndSplineSet
EndChar

StartChar: quotesingle
Encoding: 39 39 10
Width: 177
GlyphClass: 2
Flags: W
LayerCount: 2
Fore
SplineSet
48 690 m 1
 129 690 l 1
 129 439 l 1
 48 439 l 1
 48 690 l 1
EndSplineSet
EndChar

StartChar: parenleft
Encoding: 40 40 11
Width: 313
GlyphClass: 2
Flags: W
LayerCount: 2
Fore
SplineSet
86.5 112 m 0
 63.5 181.333007812 52.0009765625 253.334960938 52.0009765625 328.001953125 c 0
 52.0009765625 403.334960938 63.66796875 475.834960938 87.0009765625 545.501953125 c 0
 110.333984375 615.168945312 144.666992188 680.001953125 190 740.001953125 c 1
 261 740.001953125 l 1
 221.666992188 681.334960938 191.166992188 616.16796875 169.5 544.500976562 c 0
 147.833007812 472.833984375 137 400.666992188 137 328.000976562 c 0
 137 254.66796875 147.833007812 182.16796875 169.5 110.500976562 c 0
 191.166992188 38.833984375 221.666992188 -25.9990234375 261 -83.9990234375 c 1
 189 -83.9990234375 l 1
 143.666992188 -22.666015625 109.5 42.6669921875 86.5 112 c 0
EndSplineSet
Substitution2: "'rtla' Right to Left Alternates lookup 0 subtable" parenright
EndChar

StartChar: parenright
Encoding: 41 41 12
Width: 313
GlyphClass: 2
Flags: W
LayerCount: 2
Fore
SplineSet
143.5 110.5 m 0
 165.166992188 182.166992188 176.000976562 254.665039062 176.000976562 327.998046875 c 0
 176.000976562 400.665039062 165.16796875 472.83203125 143.500976562 544.499023438 c 0
 121.833984375 616.166015625 91.333984375 681.333007812 52.0009765625 739.999023438 c 1
 123.000976562 739.999023438 l 1
 168.333984375 679.999023438 202.666992188 615.166015625 226 545.499023438 c 0
 249.333007812 475.83203125 261 403.33203125 261 327.999023438 c 0
 261 253.33203125 249.5 181.33203125 226.5 111.999023438 c 0
 203.5 42.666015625 169.333007812 -22.6669921875 124 -84 c 1
 52 -84 l 1
 91.3330078125 -26 121.833007812 38.8330078125 143.5 110.5 c 0
EndSplineSet
Substitution2: "'rtla' Right to Left Alternates lookup 0 subtable" parenleft
EndChar

StartChar: asterisk
Encoding: 42 42 13
Width: 411
GlyphClass: 2
Flags: W
LayerCount: 2
Fore
SplineSet
179 510 m 1
 75 457 l 1
 52 502 l 1
 154 551 l 1
 52 600 l 1
 75 645 l 1
 179 593 l 1
 179 690 l 1
 232 690 l 1
 232 592 l 1
 336 645 l 1
 358 600 l 1
 257 552 l 1
 359 502 l 1
 336 457 l 1
 232 510 l 1
 232 407 l 1
 179 407 l 1
 179 510 l 1
EndSplineSet
EndChar

StartChar: plus
Encoding: 43 43 14
Width: 509
GlyphClass: 2
Flags: W
LayerCount: 2
Fore
SplineSet
214 236 m 1
 53 236 l 1
 53 316 l 1
 214 316 l 1
 214 478 l 1
 295 478 l 1
 295 316 l 1
 456 316 l 1
 456 236 l 1
 295 236 l 1
 295 74 l 1
 214 74 l 1
 214 236 l 1
EndSplineSet
EndChar

StartChar: comma
Encoding: 44 44 15
Width: 177
GlyphClass: 2
Flags: W
LayerCount: 2
Fore
SplineSet
48 107 m 1
 129 107 l 1
 129 -72 l 1
 48 -145 l 1
 48 107 l 1
EndSplineSet
EndChar

StartChar: hyphen
Encoding: 45 45 16
Width: 422
GlyphClass: 2
Flags: W
LayerCount: 2
Fore
SplineSet
52 387 m 1
 370 387 l 1
 370 306 l 1
 52 306 l 1
 52 387 l 1
EndSplineSet
EndChar

StartChar: period
Encoding: 46 46 17
Width: 198
GlyphClass: 2
Flags: W
LayerCount: 2
Fore
SplineSet
48 107 m 1
 150 107 l 1
 150 0 l 1
 48 0 l 1
 48 107 l 1
EndSplineSet
EndChar

StartChar: slash
Encoding: 47 47 18
Width: 428
GlyphClass: 2
Flags: W
LayerCount: 2
Fore
SplineSet
303 692 m 1
 376 692 l 1
 125 -10 l 1
 52 -10 l 1
 303 692 l 1
EndSplineSet
EndChar

StartChar: zero
Encoding: 48 48 19
Width: 549
GlyphClass: 2
Flags: W
LayerCount: 2
Fore
SplineSet
115 53.5 m 0
 79 95.8330078125 61 158.666015625 61 241.999023438 c 2
 61 452.999023438 l 2
 61 534.33203125 79 595.83203125 115 637.499023438 c 0
 151 679.166015625 204.333007812 699.999023438 275 699.999023438 c 0
 345.666992188 699.999023438 399.166992188 679.166015625 435.5 637.499023438 c 0
 471.833007812 595.83203125 490 534.33203125 490 452.999023438 c 2
 490 241.999023438 l 2
 490 158.666015625 471.833007812 95.8330078125 435.5 53.5 c 0
 399.166992188 11.1669921875 345.666992188 -10 275 -10 c 0
 204.333007812 -10 151 11.1669921875 115 53.5 c 0
370 113.5 m 0
 389.333007812 141.833007812 399 187 399 249 c 2
 399 441 l 2
 399 503 389.166992188 548.166992188 369.5 576.5 c 0
 349.833007812 604.833007812 318.333007812 619 275 619 c 0
 232.333007812 619 201.166015625 604.833007812 181.499023438 576.5 c 0
 161.83203125 548.166992188 151.999023438 503 151.999023438 441 c 2
 151.999023438 249 l 2
 151.999023438 187 161.83203125 141.833007812 181.499023438 113.5 c 0
 201.166015625 85.1669921875 232.333007812 71 275 71 c 0
 319 71 350.666992188 85.1669921875 370 113.5 c 0
EndSplineSet
EndChar

StartChar: one
Encoding: 49 49 20
Width: 362
GlyphClass: 2
Flags: W
LayerCount: 2
Fore
SplineSet
192 591 m 1
 45 499 l 1
 45 596 l 1
 192 690 l 1
 283 690 l 1
 283 0 l 1
 192 0 l 1
 192 591 l 1
EndSplineSet
Substitution2: "'sups' Superscript lookup 1 subtable" uni00B9
EndChar

StartChar: two
Encoding: 50 50 21
Width: 530
GlyphClass: 2
Flags: W
LayerCount: 2
Fore
SplineSet
56 73 m 1
 310.999023438 362 l 2
 336.999023438 390 355.166015625 414.5 365.499023438 435.5 c 0
 375.83203125 456.5 380.999023438 479 380.999023438 503 c 2
 380.999023438 515 l 2
 380.999023438 548.333007812 370.33203125 574.333007812 348.999023438 593 c 0
 327.666015625 611.666992188 297.999023438 621 259.999023438 621 c 0
 222.666015625 621 193.833007812 611.666992188 173.5 593 c 0
 153.166992188 574.333007812 143 547 143 511 c 2
 143 500 l 1
 55 500 l 1
 55 518 l 2
 55 574 73.6669921875 618.333007812 111 651 c 0
 148.333007812 683.666992188 198.666015625 700 261.999023438 700 c 0
 304.666015625 700 341.833007812 692.333007812 373.5 677 c 0
 405.166992188 661.666992188 429.5 640.166992188 446.5 612.5 c 0
 463.5 584.833007812 472 553 472 517 c 2
 472 502 l 2
 472 468 465 436.666992188 451 408 c 0
 437 379.333007812 413.666992188 347.666015625 381 313 c 2
 176 80 l 1
 478 80 l 1
 478 0 l 1
 56 0 l 1
 56 73 l 1
EndSplineSet
Substitution2: "'sups' Superscript lookup 1 subtable" uni00B2
EndChar

StartChar: three
Encoding: 51 51 22
Width: 549
GlyphClass: 2
Flags: W
LayerCount: 2
Fore
SplineSet
112.5 36.5 m 0
 74.8330078125 67.5 56.0009765625 111.000976562 56.0009765625 167.000976562 c 2
 56.0009765625 177.000976562 l 1
 144.000976562 177.000976562 l 1
 144.000976562 168.000976562 l 2
 144.000976562 136.000976562 154.833984375 111.500976562 176.500976562 94.5009765625 c 0
 198.16796875 77.5009765625 229.66796875 69.0009765625 271.000976562 69.0009765625 c 0
 312.333984375 69.0009765625 344.000976562 79.0009765625 366.000976562 99.0009765625 c 0
 388.000976562 119.000976562 399.000976562 147.333984375 399.000976562 184.000976562 c 2
 399.000976562 203.000976562 l 2
 399.000976562 240.333984375 387.500976562 268.666992188 364.500976562 288 c 0
 341.500976562 307.333007812 307.66796875 317 263.000976562 317 c 2
 222.000976562 317 l 1
 222.000976562 397 l 1
 262.000976562 397 l 2
 302.66796875 397 333.66796875 406.333007812 355.000976562 425 c 0
 376.333984375 443.666992188 387.000976562 470 387.000976562 504 c 2
 387.000976562 518 l 2
 387.000976562 551.333007812 376.833984375 576.833007812 356.500976562 594.5 c 0
 336.16796875 612.166992188 306.66796875 621 268.000976562 621 c 0
 229.333984375 621 200.000976562 612.333007812 180.000976562 595 c 0
 160.000976562 577.666992188 150.000976562 552.666992188 150.000976562 520 c 2
 150.000976562 510 l 1
 64.0009765625 510 l 1
 64.0009765625 521 l 2
 64.0009765625 577 82.16796875 620.833007812 118.500976562 652.5 c 0
 154.833984375 684.166992188 205.666992188 700 271 700 c 0
 335.666992188 700 386.166992188 684.5 422.5 653.5 c 0
 458.833007812 622.5 477 579.333007812 477 524 c 2
 477 509 l 2
 477 474.333007812 468.166992188 444.833007812 450.5 420.5 c 0
 432.833007812 396.166992188 408.666015625 377.666992188 378 365 c 1
 414.666992188 353 442.5 333 461.5 305 c 0
 480.5 277 490 242.666992188 490 202 c 2
 490 184 l 2
 490 124 470.333007812 76.6669921875 431 42 c 0
 391.666992188 7.3330078125 338 -10 270 -10 c 0
 202.666992188 -10 150.166992188 5.5 112.5 36.5 c 0
EndSplineSet
Substitution2: "'sups' Superscript lookup 1 subtable" uni00B3
EndChar

StartChar: four
Encoding: 52 52 23
Width: 564
GlyphClass: 2
Flags: W
LayerCount: 2
Fore
SplineSet
522 128 m 1
 439 128 l 1
 439 0 l 1
 348 0 l 1
 348 128 l 1
 43 128 l 1
 43 209 l 1
 278 690 l 1
 371 690 l 1
 136 209 l 1
 348 209 l 1
 348 388 l 1
 439 388 l 1
 439 209 l 1
 522 209 l 1
 522 128 l 1
EndSplineSet
EndChar

StartChar: five
Encoding: 53 53 24
Width: 536
GlyphClass: 2
Flags: W
LayerCount: 2
Fore
SplineSet
114 39 m 0
 78.6669921875 71.6669921875 60.9990234375 113.666992188 60.9990234375 165 c 2
 60.9990234375 173 l 1
 147.999023438 173 l 1
 147.999023438 168 l 2
 147.999023438 140 157.999023438 116.666992188 177.999023438 98 c 0
 197.999023438 79.3330078125 227.33203125 70 265.999023438 70 c 0
 346.666015625 70 386.999023438 115 386.999023438 205 c 2
 386.999023438 240 l 2
 386.999023438 284.666992188 376.999023438 318.5 356.999023438 341.5 c 0
 336.999023438 364.5 307.666015625 376 268.999023438 376 c 0
 242.999023438 376 220.666015625 370.166992188 201.999023438 358.5 c 0
 183.33203125 346.833007812 169.33203125 330 159.999023438 308 c 1
 71.9990234375 308 l 1
 71.9990234375 690 l 1
 457.999023438 690 l 1
 457.999023438 609 l 1
 152.999023438 609 l 1
 152.999023438 405 l 1
 168.33203125 420.333007812 187.665039062 432.5 210.998046875 441.5 c 0
 234.331054688 450.5 258.998046875 455 284.998046875 455 c 0
 345.665039062 455 392.83203125 436.666992188 426.499023438 400 c 0
 460.166015625 363.333007812 476.999023438 311.333007812 476.999023438 244 c 2
 476.999023438 201 l 2
 476.999023438 134.333007812 458.33203125 82.5 420.999023438 45.5 c 0
 383.666015625 8.5 331.333007812 -10 264 -10 c 0
 199.333007812 -10 149.333007812 6.3330078125 114 39 c 0
EndSplineSet
EndChar

StartChar: six
Encoding: 54 54 25
Width: 552
GlyphClass: 2
Flags: W
LayerCount: 2
Fore
SplineSet
115 45 m 0
 75 81.6669921875 54.9990234375 130.666992188 54.9990234375 192 c 2
 54.9990234375 214 l 2
 54.9990234375 246.666992188 60.166015625 277.666992188 70.4990234375 307 c 0
 80.83203125 336.333007812 98.33203125 370 122.999023438 408 c 2
 291.999023438 690 l 1
 390.999023438 690 l 1
 214.999023438 400 l 1
 224.33203125 405.336914062 236.499023438 409.669921875 251.499023438 413 c 0
 266.499023438 416.333007812 282.999023438 418 300.999023438 418 c 0
 338.999023438 418 372.999023438 409.5 402.999023438 392.5 c 0
 432.999023438 375.5 456.499023438 352 473.499023438 322 c 0
 490.499023438 292 498.999023438 258 498.999023438 220 c 2
 498.999023438 196 l 2
 498.999023438 132.666992188 478.83203125 82.5 438.499023438 45.5 c 0
 398.166015625 8.5 344.333007812 -10 277 -10 c 0
 209 -10 155 8.3330078125 115 45 c 0
373.499023438 102.5 m 0
 397.166015625 124.833007812 408.998046875 155.000976562 408.998046875 193.000976562 c 2
 408.998046875 216.000976562 l 2
 408.998046875 253.333984375 397.165039062 283.000976562 373.498046875 305.000976562 c 0
 349.831054688 327.000976562 317.331054688 338.000976562 275.998046875 338.000976562 c 0
 235.331054688 338.000976562 203.498046875 327.16796875 180.498046875 305.500976562 c 0
 157.498046875 283.833984375 145.998046875 253.666992188 145.998046875 215 c 2
 145.998046875 192 l 2
 145.998046875 154 157.831054688 124 181.498046875 102 c 0
 205.165039062 80 236.998046875 69 276.998046875 69 c 0
 317.665039062 69 349.83203125 80.1669921875 373.499023438 102.5 c 0
EndSplineSet
EndChar

StartChar: seven
Encoding: 55 55 26
Width: 489
GlyphClass: 2
Flags: W
LayerCount: 2
Fore
SplineSet
454 690 m 1
 454 609 l 1
 192 0 l 1
 100 0 l 1
 363 609 l 1
 37 609 l 1
 37 690 l 1
 454 690 l 1
EndSplineSet
EndChar

StartChar: eight
Encoding: 56 56 27
Width: 568
GlyphClass: 2
Flags: W
LayerCount: 2
Fore
SplineSet
122 43 m 0
 81.3330078125 78.3330078125 61.0009765625 125.999023438 61.0009765625 185.999023438 c 2
 61.0009765625 200.999023438 l 2
 61.0009765625 238.999023438 70.0009765625 271.83203125 88.0009765625 299.499023438 c 0
 106.000976562 327.166015625 132.333984375 348.333007812 167.000976562 363 c 1
 138.333984375 375.666992188 116.000976562 394.666992188 100.000976562 420 c 0
 84.0009765625 445.333007812 76.0009765625 474.333007812 76.0009765625 507 c 2
 76.0009765625 520 l 2
 76.0009765625 555.333007812 84.66796875 586.666015625 102.000976562 613.999023438 c 0
 119.333984375 641.33203125 143.666992188 662.499023438 175 677.499023438 c 0
 206.333007812 692.499023438 243 699.999023438 285 699.999023438 c 0
 327 699.999023438 363.833007812 692.499023438 395.5 677.499023438 c 0
 427.166992188 662.499023438 451.666992188 641.33203125 469 613.999023438 c 0
 486.333007812 586.665039062 495 555.33203125 495 520 c 2
 495 507 l 2
 495 474.333007812 486.833007812 445.333007812 470.5 420 c 0
 454.166992188 394.666992188 432 375.666992188 404 363 c 1
 438 348.333007812 464 327 482 299 c 0
 500 271 509 238.666992188 509 202 c 2
 509 187 l 2
 509 127 488.5 79.1669921875 447.5 43.5 c 0
 406.5 7.8330078125 352.333007812 -10 285 -10 c 0
 217 -10 162.666992188 7.6669921875 122 43 c 0
373.500976562 428.999023438 m 0
 394.500976562 447.666015625 405 472.999023438 405 504.999023438 c 2
 405 519.999023438 l 2
 405 551.33203125 394.333007812 575.999023438 373 593.999023438 c 0
 351.666992188 611.999023438 322.333984375 620.999023438 285.000976562 620.999023438 c 0
 248.333984375 620.999023438 219.333984375 611.999023438 198.000976562 593.999023438 c 0
 176.66796875 575.999023438 166.000976562 551.33203125 166.000976562 519.999023438 c 2
 166.000976562 504.999023438 l 2
 166.000976562 472.999023438 176.500976562 447.666015625 197.500976562 428.999023438 c 0
 218.500976562 410.33203125 247.66796875 400.999023438 285.000976562 400.999023438 c 0
 323.000976562 400.999023438 352.500976562 410.33203125 373.500976562 428.999023438 c 0
383.5 100.499023438 m 0
 407.166992188 121.499023438 419 150.666015625 419 187.999023438 c 2
 419 203.999023438 l 2
 419 240.666015625 407.166992188 269.499023438 383.5 290.499023438 c 0
 359.833007812 311.499023438 327 321.999023438 285 321.999023438 c 0
 243 321.999023438 210.166992188 311.499023438 186.5 290.499023438 c 0
 162.833007812 269.499023438 151 240.666015625 151 203.999023438 c 2
 151 187.999023438 l 2
 151 150.666015625 162.833007812 121.499023438 186.5 100.499023438 c 0
 210.166992188 79.4990234375 243 68.9990234375 285 68.9990234375 c 0
 327 68.9990234375 359.833007812 79.4990234375 383.5 100.499023438 c 0
EndSplineSet
EndChar

StartChar: nine
Encoding: 57 57 28
Width: 552
GlyphClass: 2
Flags: W
LayerCount: 2
Fore
SplineSet
340 290 m 1
 318.666992188 278 289.66796875 272 253.000976562 272 c 0
 215.000976562 272 181.000976562 280.5 151.000976562 297.5 c 0
 121.000976562 314.5 97.5009765625 338 80.5009765625 368 c 0
 63.5009765625 398 55.0009765625 432 55.0009765625 470 c 2
 55.0009765625 494 l 2
 55.0009765625 557.333007812 75.16796875 607.5 115.500976562 644.5 c 0
 155.833984375 681.5 209.666992188 700 277 700 c 0
 345 700 399 681.666992188 439 645 c 0
 479 608.333007812 499 559.333007812 499 498 c 2
 499 476 l 2
 499 443.333007812 493.833007812 412.333007812 483.5 383 c 0
 473.166992188 353.666992188 456 320 432 282 c 2
 262 0 l 1
 164 0 l 1
 340 290 l 1
374.000976562 384.5 m 0
 397.333984375 406.166992188 409.001953125 436.333007812 409.001953125 475 c 2
 409.001953125 498 l 2
 409.001953125 536 397.168945312 566 373.501953125 588 c 0
 349.834960938 610 317.66796875 621 277.001953125 621 c 0
 236.334960938 621 204.16796875 609.833007812 180.500976562 587.5 c 0
 156.833984375 565.166992188 145.000976562 535 145.000976562 497 c 2
 145.000976562 474 l 2
 145.000976562 436.666992188 157.000976562 407 181.000976562 385 c 0
 205.000976562 363 237.333984375 352 278.000976562 352 c 0
 318.66796875 352 350.66796875 362.833007812 374.000976562 384.5 c 0
EndSplineSet
EndChar

StartChar: colon
Encoding: 58 58 29
Width: 198
GlyphClass: 2
Flags: W
LayerCount: 2
Fore
SplineSet
48 396 m 1
 150 396 l 1
 150 289 l 1
 48 289 l 1
 48 396 l 1
48 156 m 1
 150 156 l 1
 150 49 l 1
 48 49 l 1
 48 156 l 1
EndSplineSet
EndChar

StartChar: semicolon
Encoding: 59 59 30
Width: 198
GlyphClass: 2
Flags: W
LayerCount: 2
Fore
SplineSet
48 445 m 1
 150 445 l 1
 150 338 l 1
 48 338 l 1
 48 445 l 1
68 107 m 1
 150 107 l 1
 150 -72 l 1
 68 -145 l 1
 68 107 l 1
EndSplineSet
EndChar

StartChar: less
Encoding: 60 60 31
Width: 509
GlyphClass: 2
Flags: W
LayerCount: 2
Fore
SplineSet
53 240 m 1
 53 312 l 1
 455 474 l 1
 455 390 l 1
 163 276 l 1
 455 161 l 1
 455 77 l 1
 53 240 l 1
EndSplineSet
Substitution2: "'rtla' Right to Left Alternates lookup 0 subtable" greater
EndChar

StartChar: equal
Encoding: 61 61 32
Width: 509
GlyphClass: 2
Flags: W
LayerCount: 2
Fore
SplineSet
53 400 m 1
 455 400 l 1
 455 319 l 1
 53 319 l 1
 53 400 l 1
53 232 m 1
 455 232 l 1
 455 152 l 1
 53 152 l 1
 53 232 l 1
EndSplineSet
EndChar

StartChar: greater
Encoding: 62 62 33
Width: 509
GlyphClass: 2
Flags: W
LayerCount: 2
Fore
SplineSet
53 161 m 1
 345 276 l 1
 53 390 l 1
 53 474 l 1
 455 312 l 1
 455 240 l 1
 53 77 l 1
 53 161 l 1
EndSplineSet
Substitution2: "'rtla' Right to Left Alternates lookup 0 subtable" less
EndChar

StartChar: question
Encoding: 63 63 34
Width: 485
GlyphClass: 2
Flags: W
LayerCount: 2
Fore
SplineSet
192 238 m 2
 192 268.666992188 195.5 292.833007812 202.5 310.5 c 0
 209.5 328.166992188 223.333007812 347 244 367 c 2
 302 424 l 2
 321.333984375 442 334.666992188 458.5 342 473.5 c 0
 349.333007812 488.5 353 506.333007812 353 527 c 0
 353 557 343.166992188 580 323.5 596 c 0
 303.833007812 612 275 620 237 620 c 0
 159.666992188 620 121 584.666992188 121 514 c 1
 34 514 l 1
 35.3330078125 574 53.5 620 88.5 652 c 0
 123.5 684 173.333007812 700 238 700 c 0
 302 700 352.166992188 684.833007812 388.5 654.5 c 0
 424.833007812 624.166992188 443 582.666992188 443 530 c 0
 443 502.666992188 438.166992188 477.666992188 428.5 455 c 0
 418.833007812 432.333007812 403.666015625 410 383 388 c 2
 315 320 l 2
 301 306 291.666992188 293.166992188 287 281.5 c 0
 282.333007812 269.833007812 280 254 280 234 c 2
 280 183 l 1
 192 183 l 1
 192 238 l 2
185 102.999023438 m 1
 286 102.999023438 l 1
 286 -0.0009765625 l 1
 185 -0.0009765625 l 1
 185 102.999023438 l 1
EndSplineSet
EndChar

StartChar: at
Encoding: 64 64 35
Width: 857
GlyphClass: 2
Flags: W
LayerCount: 2
Fore
SplineSet
232 -83 m 0
 175.333007812 -51.6669921875 131.169921875 -7.6630859375 99.5029296875 49.00390625 c 0
 67.8359375 105.670898438 52.0029296875 171.00390625 52.0029296875 245.00390625 c 2
 52.0029296875 321.00390625 l 2
 52.0029296875 394.337890625 67.8359375 459.170898438 99.5029296875 515.50390625 c 0
 131.169921875 571.836914062 175.502929688 615.50390625 232.502929688 646.50390625 c 0
 289.502929688 677.50390625 354.669921875 693.00390625 428.002929688 693.00390625 c 0
 500.669921875 693.00390625 565.669921875 677.336914062 623.002929688 646.00390625 c 0
 680.3359375 614.670898438 725.002929688 571.170898438 757.002929688 515.50390625 c 0
 789.002929688 459.836914062 805.002929688 396.00390625 805.002929688 324.00390625 c 2
 805.002929688 249.00390625 l 2
 805.002929688 185.00390625 790.669921875 136.836914062 762.002929688 104.50390625 c 0
 733.3359375 72.1708984375 696.002929688 56.00390625 650.002929688 56.00390625 c 0
 622.002929688 56.00390625 597.8359375 62.00390625 577.502929688 74.00390625 c 0
 557.169921875 86.00390625 542.002929688 103.00390625 532.002929688 125.00390625 c 1
 511.3359375 79.00390625 469.3359375 56.00390625 406.002929688 56.00390625 c 0
 356.002929688 56.00390625 319.002929688 71.50390625 295.002929688 102.50390625 c 0
 271.002929688 133.50390625 259.002929688 177.336914062 259.002929688 234.00390625 c 2
 259.002929688 322.00390625 l 2
 259.002929688 378.670898438 270.669921875 422.670898438 294.002929688 454.00390625 c 0
 317.3359375 485.336914062 353.3359375 501.00390625 402.002929688 501.00390625 c 0
 426.669921875 501.00390625 448.169921875 496.170898438 466.502929688 486.50390625 c 0
 484.8359375 476.8359375 499.3359375 463.668945312 510.002929688 447.002929688 c 1
 510.002929688 491.002929688 l 1
 589.002929688 491.002929688 l 1
 589.002929688 202.002929688 l 2
 589.002929688 176.002929688 594.8359375 156.3359375 606.502929688 143.002929688 c 0
 618.169921875 129.668945312 633.002929688 123.001953125 651.002929688 123.001953125 c 0
 674.3359375 123.001953125 692.002929688 132.668945312 704.002929688 152.001953125 c 0
 716.002929688 171.334960938 722.002929688 203.001953125 722.002929688 247.001953125 c 2
 722.002929688 323.001953125 l 2
 722.002929688 382.3359375 710.169921875 434.168945312 686.502929688 478.501953125 c 0
 662.8359375 522.834960938 628.8359375 557.16796875 584.502929688 581.500976562 c 0
 540.168945312 605.833984375 488.001953125 618.000976562 428.001953125 618.000976562 c 0
 368.001953125 618.000976562 316.001953125 606.000976562 272.001953125 582.000976562 c 0
 228.001953125 558.000976562 194.168945312 523.66796875 170.501953125 479.000976562 c 0
 146.834960938 434.333984375 135.001953125 382.000976562 135.001953125 322.000976562 c 2
 135.001953125 245.000976562 l 2
 135.001953125 185.000976562 146.668945312 132.500976562 170.001953125 87.5009765625 c 0
 193.334960938 42.5009765625 227.16796875 7.5009765625 271.500976562 -17.4990234375 c 0
 315.833984375 -42.4990234375 368.000976562 -54.9990234375 428.000976562 -54.9990234375 c 0
 470.000976562 -54.9990234375 507.333984375 -50.83203125 540.000976562 -42.4990234375 c 0
 572.66796875 -34.166015625 605.000976562 -21.3330078125 637.000976562 -4 c 1
 668.000976562 -69 l 1
 631.333984375 -90.3330078125 594.166992188 -105.833007812 556.5 -115.5 c 0
 518.833007812 -125.166992188 476 -130 428 -130 c 0
 354 -130 288.666992188 -114.333007812 232 -83 c 0
508.00390625 235.00390625 m 2
 508.00390625 323.004882812 l 2
 508.00390625 357.671875 501.170898438 384.504882812 487.50390625 403.504882812 c 0
 473.836914062 422.504882812 453.00390625 432.004882812 425.00390625 432.004882812 c 0
 369.00390625 432.004882812 341.00390625 395.004882812 341.00390625 321.004882812 c 2
 341.00390625 239.004882812 l 2
 341.00390625 202.337890625 347.50390625 174.170898438 360.50390625 154.50390625 c 0
 373.50390625 134.836914062 395.00390625 125.00390625 425.00390625 125.00390625 c 0
 480.336914062 125.00390625 508.00390625 161.670898438 508.00390625 235.00390625 c 2
EndSplineSet
EndChar

StartChar: A
Encoding: 65 65 36
Width: 666
GlyphClass: 2
Flags: W
LayerCount: 2
Fore
SplineSet
501 156 m 1
 163 156 l 1
 101 0 l 1
 6 0 l 1
 294 690 l 1
 371 690 l 1
 660 0 l 1
 564 0 l 1
 501 156 l 1
470 233 m 1
 332 578 l 1
 194 233 l 1
 470 233 l 1
EndSplineSet
EndChar

StartChar: B
Encoding: 66 66 37
Width: 671
GlyphClass: 2
Flags: W
LayerCount: 2
Fore
SplineSet
582.5 296.5 m 0
 602.166992188 268.833007812 611.999023438 234.000976562 611.999023438 192.000976562 c 0
 611.999023438 129.333984375 592.33203125 81.6669921875 552.999023438 49 c 0
 513.666015625 16.3330078125 456.333007812 0 381 0 c 2
 72 0 l 1
 72 690 l 1
 375 690 l 2
 448.333984375 690 504.166992188 674.333007812 542.5 643 c 0
 580.833007812 611.666992188 600 565.666992188 600 505 c 0
 600 469.666992188 591 439 573 413 c 0
 555 387 529.333007812 368 496 356 c 1
 534 344 562.833007812 324.166992188 582.5 296.5 c 0
162.999023438 610.000976562 m 1
 162.999023438 393 l 1
 374.999023438 393 l 2
 420.333007812 393 454.166015625 401.833007812 476.499023438 419.5 c 0
 498.83203125 437.166992188 509.999023438 464.333984375 509.999023438 501.000976562 c 0
 509.999023438 537.66796875 498.999023438 565.000976562 476.999023438 583.000976562 c 0
 454.999023438 601.000976562 421.666015625 610.000976562 376.999023438 610.000976562 c 2
 162.999023438 610.000976562 l 1
486.999023438 109 m 0
 509.666015625 128.333007812 520.998046875 158 520.998046875 198 c 0
 520.998046875 274.666992188 472.998046875 313 376.998046875 313 c 2
 162.998046875 313 l 1
 162.998046875 80 l 1
 382.998046875 80 l 2
 429.665039062 80 464.33203125 89.6669921875 486.999023438 109 c 0
EndSplineSet
EndChar

StartChar: C
Encoding: 67 67 38
Width: 680
GlyphClass: 2
Flags: W
LayerCount: 2
Fore
SplineSet
136.5 67.5 m 0
 86.1669921875 118.5 60.998046875 194.333007812 60.998046875 295 c 2
 60.998046875 396 l 2
 60.998046875 496.666992188 86.3310546875 572.5 136.998046875 623.5 c 0
 187.665039062 674.5 259.33203125 700 351.999023438 700 c 0
 435.33203125 700 500.999023438 680.666992188 548.999023438 642 c 0
 596.999023438 603.333007812 620.999023438 549.333007812 620.999023438 480 c 2
 620.999023438 475 l 1
 529.999023438 475 l 1
 529.999023438 479 l 2
 529.999023438 523.666992188 514.499023438 558 483.499023438 582 c 0
 452.499023438 606 408.33203125 618 350.999023438 618 c 0
 283.666015625 618 233.666015625 599.666992188 200.999023438 563 c 0
 168.33203125 526.333007812 151.999023438 469 151.999023438 391 c 2
 151.999023438 294 l 2
 151.999023438 218.666992188 168.499023438 163 201.499023438 127 c 0
 234.499023438 91 284.666015625 73 351.999023438 73 c 0
 409.33203125 73 453.33203125 85 483.999023438 109 c 0
 514.666015625 133 529.999023438 167.666992188 529.999023438 213 c 2
 529.999023438 217 l 1
 619.999023438 217 l 1
 619.999023438 212 l 2
 619.999023438 142.666992188 595.83203125 88.5 547.499023438 49.5 c 0
 499.166015625 10.5 433.333007812 -9 350 -9 c 0
 258 -9 186.833007812 16.5 136.5 67.5 c 0
EndSplineSet
EndChar

StartChar: D
Encoding: 68 68 39
Width: 674
GlyphClass: 2
Flags: W
LayerCount: 2
Fore
SplineSet
72 690 m 1
 327 689.999023438 l 2
 419 689.999023438 490 664.999023438 540 614.999023438 c 0
 590 564.999023438 615 490.33203125 615 390.999023438 c 2
 615 299.999023438 l 2
 615 200.666015625 589.833007812 125.833007812 539.5 75.5 c 0
 489.166992188 25.1669921875 417.666992188 0 325 0 c 2
 72 0 l 1
 72 690 l 1
327 80.9990234375 m 2
 393.666992188 80.9990234375 443.166992188 98.666015625 475.5 133.999023438 c 0
 507.833007812 169.33203125 524 223.999023438 524 297.999023438 c 2
 524 385.999023438 l 2
 524 461.999023438 507.833007812 518.166015625 475.5 554.499023438 c 0
 443.166992188 590.83203125 393.666992188 608.999023438 327 608.999023438 c 2
 163 608.999023438 l 1
 163 80.9990234375 l 1
 327 80.9990234375 l 2
EndSplineSet
EndChar

StartChar: E
Encoding: 69 69 40
Width: 597
GlyphClass: 2
Flags: W
LayerCount: 2
Fore
SplineSet
163 609 m 1
 163 391 l 1
 498 391 l 1
 498 310 l 1
 163 310 l 1
 163 81 l 1
 554 81 l 1
 554 0 l 1
 72 0 l 1
 72 690 l 1
 554 690 l 1
 554 609 l 1
 163 609 l 1
EndSplineSet
EndChar

StartChar: F
Encoding: 70 70 41
Width: 590
GlyphClass: 2
Flags: W
LayerCount: 2
Fore
SplineSet
163 609 m 1
 163 388 l 1
 499 388 l 1
 499 307 l 1
 163 307 l 1
 163 0 l 1
 72 0 l 1
 72 690 l 1
 554 690 l 1
 554 609 l 1
 163 609 l 1
EndSplineSet
EndChar

StartChar: G
Encoding: 71 71 42
Width: 680
GlyphClass: 2
Flags: W
LayerCount: 2
Fore
SplineSet
136.5 67.5 m 0
 86.1669921875 118.5 61 194.33203125 61 294.999023438 c 2
 61 395.999023438 l 2
 61 496.666015625 86.1669921875 572.499023438 136.5 623.499023438 c 0
 186.833007812 674.499023438 258.333007812 699.999023438 351 699.999023438 c 0
 433.666992188 699.999023438 499.166992188 680.33203125 547.5 640.999023438 c 0
 595.833007812 601.665039062 620 548.33203125 620 480.999023438 c 2
 620 475.999023438 l 1
 530 475.999023438 l 1
 530 479.999023438 l 2
 530 522.666992188 514.333007812 556.333984375 483 581 c 0
 451.666992188 605.666992188 407.666992188 618 351 618 c 0
 283.666992188 618 233.666992188 599.666992188 201 563 c 0
 168.333007812 526.333007812 152 469 152 391 c 2
 152 294 l 2
 152 218.666992188 168.5 163 201.5 127 c 0
 234.5 91 284.666992188 73 352 73 c 0
 471.333007812 73 531 129.333007812 531 242 c 2
 531 283 l 1
 340 283 l 1
 340 360 l 1
 621 360 l 1
 621 248 l 2
 621 164 597 100.166992188 549 56.5 c 0
 501 12.8330078125 435 -9 351 -9 c 0
 258.333007812 -9 186.833007812 16.5 136.5 67.5 c 0
EndSplineSet
EndChar

StartChar: H
Encoding: 72 72 43
Width: 685
GlyphClass: 2
Flags: W
LayerCount: 2
Fore
SplineSet
613 690 m 1
 613 0 l 1
 523 0 l 1
 523 312 l 1
 163 312 l 1
 163 0 l 1
 72 0 l 1
 72 690 l 1
 163 690 l 1
 163 392 l 1
 523 392 l 1
 523 690 l 1
 613 690 l 1
EndSplineSet
EndChar

StartChar: I
Encoding: 73 73 44
Width: 249
GlyphClass: 2
Flags: W
LayerCount: 2
Fore
SplineSet
79 690 m 1
 170 690 l 1
 170 0 l 1
 79 0 l 1
 79 690 l 1
EndSplineSet
EndChar

StartChar: J
Encoding: 74 74 45
Width: 345
GlyphClass: 2
Flags: W
LayerCount: 2
Fore
SplineSet
29 81 m 1
 90.9990234375 81 l 2
 121.666015625 81 143.333007812 87.5 156 100.5 c 0
 168.666992188 113.5 175 135.666992188 175 167 c 2
 175 690 l 1
 266 690 l 1
 266 155 l 2
 266 103 253 64.1669921875 227 38.5 c 0
 201 12.8330078125 161.666992188 0 109 0 c 2
 29 0 l 1
 29 81 l 1
EndSplineSet
EndChar

StartChar: K
Encoding: 75 75 46
Width: 671
GlyphClass: 2
Flags: W
LayerCount: 2
Fore
SplineSet
319 355 m 1
 163 189 l 1
 163 0 l 1
 72 0 l 1
 72 690 l 1
 163 690 l 1
 163 304 l 1
 518 690 l 1
 632 690 l 1
 379 419 l 1
 664 0 l 1
 555 0 l 1
 319 355 l 1
EndSplineSet
EndChar

StartChar: L
Encoding: 76 76 47
Width: 579
GlyphClass: 2
Flags: W
LayerCount: 2
Fore
SplineSet
72 690 m 1
 163 690 l 1
 163 81 l 1
 550 81 l 1
 550 0 l 1
 72 0 l 1
 72 690 l 1
EndSplineSet
EndChar

StartChar: M
Encoding: 77 77 48
Width: 827
GlyphClass: 2
Flags: W
LayerCount: 2
Fore
SplineSet
755 690 m 1
 755 0 l 1
 665 0 l 1
 665 522 l 1
 446 137 l 1
 382 137 l 1
 163 522 l 1
 163 0 l 1
 72 0 l 1
 72 690 l 1
 163 690 l 1
 414 242 l 1
 665 690 l 1
 755 690 l 1
EndSplineSet
EndChar

StartChar: N
Encoding: 78 78 49
Width: 721
GlyphClass: 2
Flags: W
LayerCount: 2
Fore
SplineSet
649 690 m 1
 649 0 l 1
 558 0 l 1
 163 534 l 1
 163 0 l 1
 72 0 l 1
 72 690 l 1
 163 690 l 1
 558 155 l 1
 558 690 l 1
 649 690 l 1
EndSplineSet
EndChar

StartChar: O
Encoding: 79 79 50
Width: 695
GlyphClass: 2
Flags: W
LayerCount: 2
Fore
SplineSet
135.5 67.5 m 0
 85.8330078125 118.5 61 194.333007812 61 295 c 2
 61 396 l 2
 61 496.666992188 86.1669921875 572.5 136.5 623.5 c 0
 186.833007812 674.5 258 700 350 700 c 0
 441.333007812 700 511.833007812 674.5 561.5 623.5 c 0
 611.166992188 572.5 636 496.666992188 636 396 c 2
 636 295 l 2
 636 194.333007812 610.833007812 118.5 560.5 67.5 c 0
 510.166992188 16.5 439 -9 347 -9 c 0
 255.666992188 -9 185.166992188 16.5 135.5 67.5 c 0
497 127 m 0
 529.666992188 163 546 218.66796875 546 294.000976562 c 2
 546 391.000976562 l 2
 546 469.000976562 529.666992188 526.333984375 497 563 c 0
 464.333007812 599.666992188 415 618 349 618 c 0
 282.333007812 618 232.833007812 599.666992188 200.5 563 c 0
 168.166992188 526.333007812 152 469 152 391 c 2
 152 294 l 2
 152 218.666992188 168.166992188 163 200.5 127 c 0
 232.833007812 91 282.333007812 73 349 73 c 0
 415 73 464.333007812 91 497 127 c 0
EndSplineSet
EndChar

StartChar: P
Encoding: 80 80 51
Width: 637
GlyphClass: 2
Flags: W
LayerCount: 2
Fore
SplineSet
547 637.5 m 0
 587.666992188 602.5 607.998046875 551 607.998046875 483 c 0
 607.998046875 416.333007812 587.831054688 365.333007812 547.498046875 330 c 0
 507.165039062 294.666992188 448.33203125 277 370.999023438 277 c 2
 162.999023438 277 l 1
 162.999023438 0 l 1
 71.9990234375 0 l 1
 71.9990234375 690 l 1
 370.999023438 690 l 2
 447.666015625 690 506.333007812 672.5 547 637.5 c 0
481.998046875 387.5 m 0
 505.331054688 407.166992188 516.998046875 438.666992188 516.998046875 482 c 0
 516.998046875 527.333007812 504.998046875 559.833007812 480.998046875 579.5 c 0
 456.998046875 599.166992188 418.998046875 609 366.998046875 609 c 2
 162.998046875 609 l 1
 162.998046875 358 l 1
 372.998046875 358 l 2
 422.33203125 358 458.665039062 367.833007812 481.998046875 387.5 c 0
EndSplineSet
EndChar

StartChar: Q
Encoding: 81 81 52
Width: 695
GlyphClass: 2
Flags: W
LayerCount: 2
Fore
SplineSet
523 37 m 1
 603 -113 l 1
 532 -151 l 1
 449 4 l 1
 419 -4.6669921875 385 -9 347 -9 c 0
 255.666992188 -9 185.166992188 16.5 135.5 67.5 c 0
 85.8330078125 118.5 61 194.333007812 61 295 c 2
 61 396 l 2
 61 496.666992188 86.1669921875 572.5 136.5 623.5 c 0
 186.833007812 674.5 258 700 350 700 c 0
 441.333007812 700 511.833007812 674.5 561.5 623.5 c 0
 611.166992188 572.5 636 496.666992188 636 396 c 2
 636 295 l 2
 636 172.333007812 598.333007812 86.3330078125 523 37 c 1
546 391 m 2
 546 469 529.666992188 526.333984375 497 563 c 0
 464.333007812 599.666992188 415 618 349 618 c 0
 282.333007812 618 232.833007812 599.666992188 200.5 563 c 0
 168.166992188 526.333007812 152 469 152 391 c 2
 152 294 l 2
 152 218.666992188 168.166992188 163 200.5 127 c 0
 232.833007812 91 282.333007812 73 349 73 c 0
 415 73 464.333007812 91 497 127 c 0
 529.666992188 163 546 218.666992188 546 294 c 2
 546 391 l 2
EndSplineSet
EndChar

StartChar: R
Encoding: 82 82 53
Width: 665
GlyphClass: 2
Flags: W
LayerCount: 2
Fore
SplineSet
363 294 m 1
 163 293.999023438 l 1
 163 -0.0009765625 l 1
 72 -0.0009765625 l 1
 72 689.999023438 l 1
 373 689.999023438 l 2
 449 689.999023438 507.166992188 672.999023438 547.5 638.999023438 c 0
 587.833007812 604.999023438 608 555.999023438 608 491.999023438 c 0
 608 441.999023438 595.166992188 400.83203125 569.5 368.499023438 c 0
 543.833007812 336.166015625 506.333007812 314.333007812 457 303 c 1
 628 0 l 1
 524 0 l 1
 363 294 l 1
163 372.999023438 m 1
 375 372.999023438 l 2
 423.666992188 372.999023438 459.5 382.666015625 482.5 401.999023438 c 0
 505.5 421.33203125 517 451.33203125 517 491.999023438 c 0
 517 531.999023438 504.833007812 561.499023438 480.5 580.499023438 c 0
 456.166992188 599.499023438 419 608.999023438 369 608.999023438 c 2
 163 608.999023438 l 1
 163 372.999023438 l 1
EndSplineSet
EndChar

StartChar: S
Encoding: 83 83 54
Width: 611
GlyphClass: 2
Flags: W
LayerCount: 2
Fore
SplineSet
106 46 m 0
 60.6669921875 80.6669921875 35.6650390625 131.665039062 30.998046875 198.998046875 c 1
 118.998046875 198.998046875 l 1
 122.998046875 154.331054688 140.165039062 121.998046875 170.498046875 101.998046875 c 0
 200.831054688 81.998046875 244.6640625 71.998046875 301.997070312 71.998046875 c 0
 420.6640625 71.998046875 479.997070312 111.665039062 479.997070312 190.998046875 c 0
 479.997070312 225.665039062 468.6640625 252.33203125 445.997070312 270.999023438 c 0
 423.330078125 289.666015625 388.330078125 301.666015625 340.997070312 306.999023438 c 2
 247.997070312 317.999023438 l 2
 113.997070312 334.666015625 46.9970703125 396.333007812 46.9970703125 503 c 0
 46.9970703125 565 69.6640625 613.166992188 114.997070312 647.5 c 0
 160.330078125 681.833007812 222.330078125 699 300.997070312 699 c 0
 377.6640625 699 437.831054688 682.5 481.498046875 649.5 c 0
 525.166992188 616.5 550.333984375 567.666992188 556.999023438 503 c 1
 468.999023438 503 l 1
 465.666015625 543 450.333007812 572.833007812 423 592.5 c 0
 395.666992188 612.166992188 355 622 301 622 c 0
 246.333007812 622 205 612.333007812 177 593 c 0
 149 573.666992188 135 545.666992188 135 509 c 0
 135 477 145.833007812 452 167.5 434 c 0
 189.166992188 416 223 404 269 398 c 2
 366 387 l 2
 502 369 570 305.666992188 570 197 c 0
 570 132.333007812 546 82.3330078125 498 47 c 0
 450 11.6669921875 383.333007812 -6 298 -6 c 0
 215.333007812 -6 151.333007812 11.3330078125 106 46 c 0
EndSplineSet
EndChar

StartChar: T
Encoding: 84 84 55
Width: 550
GlyphClass: 2
Flags: W
LayerCount: 2
Fore
SplineSet
543 609 m 1
 320 609 l 1
 320 0 l 1
 230 0 l 1
 230 609 l 1
 7 609 l 1
 7 690 l 1
 543 690 l 1
 543 609 l 1
EndSplineSet
EndChar

StartChar: U
Encoding: 85 85 56
Width: 692
GlyphClass: 2
Flags: W
LayerCount: 2
Fore
SplineSet
144.5 60.5 m 0
 96.1669921875 104.833007812 72 167 72 247 c 2
 72 690 l 1
 163 690 l 1
 163 253 l 2
 163 133.666992188 224 74 346 74 c 0
 468 74 529 133.666992188 529 253 c 2
 529 690 l 1
 620 690 l 1
 620 247 l 2
 620 167 595.833007812 104.833007812 547.5 60.5 c 0
 499.166992188 16.1669921875 432 -6 346 -6 c 0
 260 -6 192.833007812 16.1669921875 144.5 60.5 c 0
EndSplineSet
EndChar

StartChar: V
Encoding: 86 86 57
Width: 605
GlyphClass: 2
Flags: W
LayerCount: 2
Fore
SplineSet
6 690 m 1
 101 690 l 1
 304 123 l 1
 504 690 l 1
 599 690 l 1
 342 0 l 1
 266 0 l 1
 6 690 l 1
EndSplineSet
EndChar

StartChar: W
Encoding: 87 87 58
Width: 914
GlyphClass: 2
Flags: W
LayerCount: 2
Fore
SplineSet
908 690 m 1
 712 0 l 1
 620 0 l 1
 459 577 l 1
 298 0 l 1
 206 0 l 1
 6 690 l 1
 96 690 l 1
 255 128 l 1
 402 690 l 1
 515 690 l 1
 669 128 l 1
 820 690 l 1
 908 690 l 1
EndSplineSet
EndChar

StartChar: X
Encoding: 88 88 59
Width: 648
GlyphClass: 2
Flags: W
LayerCount: 2
Fore
SplineSet
270 359 m 1
 27 690 l 1
 135 690 l 1
 325 429 l 1
 513 690 l 1
 618 690 l 1
 377 362 l 1
 642 0 l 1
 534 0 l 1
 320 292 l 1
 111 0 l 1
 6 0 l 1
 270 359 l 1
EndSplineSet
EndChar

StartChar: Y
Encoding: 89 89 60
Width: 580
GlyphClass: 2
Flags: W
LayerCount: 2
Fore
SplineSet
335 278 m 1
 335 0 l 1
 245 0 l 1
 245 279 l 1
 6 690 l 1
 108 690 l 1
 291 355 l 1
 472 690 l 1
 574 690 l 1
 335 278 l 1
EndSplineSet
EndChar

StartChar: Z
Encoding: 90 90 61
Width: 571
GlyphClass: 2
Flags: W
LayerCount: 2
Fore
SplineSet
538 82 m 1
 538 1 l 1
 36 1 l 1
 36 82 l 1
 428 610 l 1
 49 610 l 1
 49 691 l 1
 533 691 l 1
 533 610 l 1
 142 82 l 1
 538 82 l 1
EndSplineSet
EndChar

StartChar: bracketleft
Encoding: 91 91 62
Width: 323
GlyphClass: 2
Flags: W
LayerCount: 2
Fore
SplineSet
72 740 m 1
 271 740 l 1
 271 659 l 1
 158 659 l 1
 158 -3 l 1
 271 -3 l 1
 271 -84 l 1
 72 -84 l 1
 72 740 l 1
EndSplineSet
Substitution2: "'rtla' Right to Left Alternates lookup 0 subtable" bracketright
EndChar

StartChar: backslash
Encoding: 92 92 63
Width: 428
GlyphClass: 2
Flags: W
LayerCount: 2
Fore
SplineSet
52 692 m 1
 125 692 l 1
 376 -10 l 1
 303 -10 l 1
 52 692 l 1
EndSplineSet
EndChar

StartChar: bracketright
Encoding: 93 93 64
Width: 323
GlyphClass: 2
Flags: W
LayerCount: 2
Fore
SplineSet
52 -3 m 1
 164 -3 l 1
 164 659 l 1
 52 659 l 1
 52 740 l 1
 251 740 l 1
 251 -84 l 1
 52 -84 l 1
 52 -3 l 1
EndSplineSet
Substitution2: "'rtla' Right to Left Alternates lookup 0 subtable" bracketleft
EndChar

StartChar: asciicircum
Encoding: 94 94 65
Width: 509
GlyphClass: 2
Flags: W
LayerCount: 2
Fore
SplineSet
218 692 m 1
 291 692 l 1
 460 281 l 1
 387 281 l 1
 254 609 l 1
 122 281 l 1
 49 281 l 1
 218 692 l 1
EndSplineSet
EndChar

StartChar: underscore
Encoding: 95 95 66
Width: 537
GlyphClass: 2
Flags: W
LayerCount: 2
Fore
SplineSet
0 -50 m 1
 537 -50 l 1
 537 -109 l 1
 0 -109 l 1
 0 -50 l 1
EndSplineSet
EndChar

StartChar: grave
Encoding: 96 96 67
Width: 500
GlyphClass: 2
Flags: W
LayerCount: 2
Fore
SplineSet
97 705 m 1
 208 705 l 1
 323 577 l 1
 241 577 l 1
 97 705 l 1
EndSplineSet
EndChar

StartChar: a
Encoding: 97 97 68
Width: 549
GlyphClass: 2
Flags: W
LayerCount: 2
Fore
SplineSet
425 471.5 m 0
 463 439.833007812 481.999023438 394 481.999023438 334 c 2
 481.999023438 0 l 1
 398.999023438 0 l 1
 398.999023438 58 l 1
 363.666015625 15.3330078125 307.999023438 -6 231.999023438 -6 c 0
 169.999023438 -6 122.83203125 7.1669921875 90.4990234375 33.5 c 0
 58.166015625 59.8330078125 41.9990234375 98 41.9990234375 148 c 0
 41.9990234375 196 58.666015625 232.833007812 91.9990234375 258.5 c 0
 125.33203125 284.166992188 173.999023438 297 237.999023438 297 c 2
 396.999023438 297 l 1
 396.999023438 332 l 2
 396.999023438 409.333007812 351.999023438 448 261.999023438 448 c 0
 222.666015625 448 192.833007812 440.666992188 172.5 426 c 0
 152.166992188 411.333007812 142 390.666015625 142 364 c 2
 142 361 l 1
 59 361 l 1
 59 364 l 2
 59 412 77 449.833007812 113 477.5 c 0
 149 505.166992188 198.333007812 519 261 519 c 0
 332.333007812 519 387 503.166992188 425 471.5 c 0
360.999023438 95 m 0
 384.999023438 116.333007812 396.998046875 149.000976562 396.998046875 193.000976562 c 2
 396.998046875 233.000976562 l 1
 251.998046875 233.000976562 l 2
 208.665039062 233.000976562 176.83203125 226.16796875 156.499023438 212.500976562 c 0
 136.166015625 198.833984375 125.999023438 177.666992188 125.999023438 149 c 0
 125.999023438 119.666992188 135.999023438 98 155.999023438 84 c 0
 175.999023438 70 206.999023438 63 248.999023438 63 c 0
 299.666015625 63 336.999023438 73.6669921875 360.999023438 95 c 0
EndSplineSet
EndChar

StartChar: b
Encoding: 98 98 69
Width: 580
GlyphClass: 2
Flags: W
LayerCount: 2
Fore
SplineSet
218 10 m 0
 190.666015625 22.6669921875 168.333007812 41.3330078125 151 66 c 1
 151 0 l 1
 67 0 l 1
 67 690 l 1
 152 690 l 1
 152 443 l 1
 168.666992188 467.666992188 191 487 219 501 c 0
 247 515 278.666992188 522 314 522 c 0
 378.666992188 522 430.5 501.333007812 469.5 460 c 0
 508.5 418.666992188 528 360 528 284 c 2
 528 230 l 2
 528 153.333007812 508.5 94.3330078125 469.5 53 c 0
 430.5 11.6669921875 378.666992188 -9 314 -9 c 0
 277.333007812 -9 245.333007812 -2.6669921875 218 10 c 0
406 107.999023438 m 0
 430.666992188 135.999023438 442.998046875 177.998046875 442.998046875 233.998046875 c 2
 442.998046875 279.998046875 l 2
 442.998046875 335.998046875 430.665039062 377.665039062 405.998046875 404.998046875 c 0
 381.331054688 432.331054688 345.998046875 445.998046875 299.998046875 445.998046875 c 0
 253.998046875 445.998046875 217.831054688 431.831054688 191.498046875 403.498046875 c 0
 165.165039062 375.165039062 151.998046875 336.998046875 151.998046875 288.998046875 c 2
 151.998046875 221.998046875 l 2
 151.998046875 174.665039062 165.331054688 136.83203125 191.998046875 108.499023438 c 0
 218.665039062 80.166015625 255.33203125 65.9990234375 301.999023438 65.9990234375 c 0
 346.666015625 65.9990234375 381.333007812 79.9990234375 406 107.999023438 c 0
EndSplineSet
EndChar

StartChar: c
Encoding: 99 99 70
Width: 553
GlyphClass: 2
Flags: W
LayerCount: 2
Fore
SplineSet
114 52.5 m 0
 72.6669921875 93.5 52.0009765625 153 52.0009765625 231 c 2
 52.0009765625 282 l 2
 52.0009765625 360 72.66796875 419.5 114.000976562 460.5 c 0
 155.333984375 501.5 212.666992188 522 286 522 c 0
 353.333007812 522 406 505.5 444 472.5 c 0
 482 439.5 501 394 501 336 c 2
 501 331 l 1
 418 331 l 1
 418 336 l 2
 418 370.666992188 406.666992188 397.666992188 384 417 c 0
 361.333007812 436.333007812 329 446 287 446 c 0
 187 446 137 390.666992188 137 280 c 2
 137 233 l 2
 137 121.666992188 187 66 287 66 c 0
 329 66 361.333007812 75.6669921875 384 95 c 0
 406.666992188 114.333007812 418 141 418 175 c 2
 418 179 l 1
 501 179 l 1
 501 175 l 2
 501 118.333007812 482.166992188 73.5 444.5 40.5 c 0
 406.833007812 7.5 354.333007812 -9 287 -9 c 0
 213 -9 155.333007812 11.5 114 52.5 c 0
EndSplineSet
EndChar

StartChar: d
Encoding: 100 100 71
Width: 580
GlyphClass: 2
Flags: W
LayerCount: 2
Fore
SplineSet
109 52.5 m 0
 71 93.5 52.0009765625 152.333007812 52.0009765625 229 c 2
 52.0009765625 284 l 2
 52.0009765625 360 71.16796875 418.666992188 109.500976562 460 c 0
 147.833984375 501.333007812 198.666992188 522 262 522 c 0
 298 522 330.5 515 359.5 501 c 0
 388.5 487 411.333007812 468 428 444 c 1
 428 690 l 1
 512 690 l 1
 512 0 l 1
 428 0 l 1
 428 67 l 1
 411.333007812 42.3330078125 389 23.5 361 10.5 c 0
 333 -2.5 300.666992188 -9 264 -9 c 0
 198.666992188 -9 147 11.5 109 52.5 c 0
389.000976562 108 m 0
 415.000976562 136 428.000976562 174 428.000976562 222 c 2
 428.000976562 289 l 2
 428.000976562 337.666992188 414.833984375 376 388.500976562 404 c 0
 362.16796875 432 325.66796875 446 279.000976562 446 c 0
 233.66796875 446 198.66796875 432.166992188 174.000976562 404.5 c 0
 149.333984375 376.833007812 137.000976562 335 137.000976562 279 c 2
 137.000976562 233 l 2
 137.000976562 177 149.500976562 135.166992188 174.500976562 107.5 c 0
 199.500976562 79.8330078125 234.66796875 66 280.000976562 66 c 0
 326.66796875 66 363.000976562 80 389.000976562 108 c 0
EndSplineSet
EndChar

StartChar: e
Encoding: 101 101 72
Width: 557
GlyphClass: 2
Flags: W
LayerCount: 2
Fore
SplineSet
137 235 m 1
 136.999023438 231 l 2
 136.999023438 120.333007812 188.666015625 65 291.999023438 65 c 0
 331.33203125 65 361.83203125 74.1669921875 383.499023438 92.5 c 0
 405.166015625 110.833007812 416.333007812 134 417 162 c 2
 417 165 l 1
 501 165 l 1
 501 161 l 2
 500.333007812 129 491.5 100.166992188 474.5 74.5 c 0
 457.5 48.8330078125 433.166992188 28.5 401.5 13.5 c 0
 369.833007812 -1.5 332.666015625 -9 290 -9 c 0
 215.333007812 -9 157 11.8330078125 115 53.5 c 0
 73 95.1669921875 52 156 52 236 c 2
 52 277 l 2
 52 355.666992188 72 416.166992188 112 458.5 c 0
 152 500.833007812 207.666992188 522 279 522 c 0
 349 522 404 502.5 444 463.5 c 0
 484 424.5 504 368.333007812 504 295 c 2
 504 235 l 1
 137 235 l 1
177.499023438 410.5 m 0
 153.166015625 386.166992188 139.665039062 349 136.998046875 299 c 1
 418.998046875 299 l 1
 418.998046875 308 l 2
 418.998046875 354.666992188 406.831054688 389.5 382.498046875 412.5 c 0
 358.165039062 435.5 323.665039062 447 278.998046875 447 c 0
 235.665039062 447 201.83203125 434.833007812 177.499023438 410.5 c 0
EndSplineSet
EndChar

StartChar: f
Encoding: 102 102 73
Width: 364
GlyphClass: 2
Flags: W
LayerCount: 2
Fore
SplineSet
221.5 608.5 m 0
 208.5 596.166992188 202 577 202 551 c 2
 202 512 l 1
 330 512 l 1
 330 448 l 1
 202 448 l 1
 202 0 l 1
 117 0 l 1
 117 448 l 1
 45 448 l 1
 45 512 l 1
 117 512 l 1
 117 548 l 2
 117 594 130 629.166992188 156 653.5 c 0
 182 677.833007812 219.666992188 690 269 690 c 2
 330 690 l 1
 330 627 l 1
 283 627 l 2
 255 627 234.5 620.833007812 221.5 608.5 c 0
EndSplineSet
EndChar

StartChar: g
Encoding: 103 103 74
Width: 580
GlyphClass: 2
Flags: W
LayerCount: 2
Fore
SplineSet
124.5 -123.5 m 0
 87.5 -99.1669921875 66.9990234375 -63.333984375 62.9990234375 -16.0009765625 c 1
 145.999023438 -16.0009765625 l 1
 151.999023438 -40.66796875 165.666015625 -58.8349609375 186.999023438 -70.501953125 c 0
 208.33203125 -82.1689453125 238.999023438 -88.001953125 278.999023438 -88.001953125 c 0
 329.666015625 -88.001953125 367.166015625 -77.6689453125 391.499023438 -57.001953125 c 0
 415.83203125 -36.3349609375 427.999023438 -4.66796875 427.999023438 37.9990234375 c 2
 427.999023438 91.9990234375 l 1
 411.33203125 66.666015625 388.999023438 47.4990234375 360.999023438 34.4990234375 c 0
 332.999023438 21.4990234375 300.666015625 14.9990234375 263.999023438 14.9990234375 c 0
 199.33203125 14.9990234375 147.83203125 35.166015625 109.499023438 75.4990234375 c 0
 71.166015625 115.83203125 51.9990234375 172.999023438 51.9990234375 246.999023438 c 2
 51.9990234375 285.999023438 l 2
 51.9990234375 361.33203125 70.9990234375 419.499023438 108.999023438 460.499023438 c 0
 146.999023438 501.499023438 197.999023438 521.999023438 261.999023438 521.999023438 c 0
 297.999023438 521.999023438 330.499023438 515.166015625 359.499023438 501.499023438 c 0
 388.499023438 487.83203125 411.33203125 468.999023438 427.999023438 444.999023438 c 1
 427.999023438 511.999023438 l 1
 511.999023438 511.999023438 l 1
 511.999023438 43.9990234375 l 2
 511.999023438 -21.333984375 491.83203125 -71.6669921875 451.499023438 -107 c 0
 411.166015625 -142.333007812 353.333007812 -160 278 -160 c 0
 212.666992188 -160 161.5 -147.833007812 124.5 -123.5 c 0
389.499023438 131 m 0
 415.166015625 157.666992188 427.999023438 195.666992188 427.999023438 245 c 2
 427.999023438 292 l 2
 427.999023438 339.333007812 414.83203125 377 388.499023438 405 c 0
 362.166015625 433 325.666015625 447 278.999023438 447 c 0
 233.666015625 447 198.666015625 433.166992188 173.999023438 405.5 c 0
 149.33203125 377.833007812 136.999023438 336.333007812 136.999023438 281 c 2
 136.999023438 252 l 2
 136.999023438 198.666992188 149.499023438 158.5 174.499023438 131.5 c 0
 199.499023438 104.5 234.33203125 91 278.999023438 91 c 0
 326.999023438 91 363.83203125 104.333007812 389.499023438 131 c 0
EndSplineSet
EndChar

StartChar: h
Encoding: 104 104 75
Width: 572
GlyphClass: 2
Flags: W
LayerCount: 2
Fore
SplineSet
67 690 m 1
 152 689.999023438 l 1
 152 442.999023438 l 1
 170 467.666015625 192.833007812 486.333007812 220.5 499 c 0
 248.166992188 511.666992188 279.333984375 518 314.000976562 518 c 0
 374.66796875 518 421.66796875 500.666992188 455.000976562 466 c 0
 488.333984375 431.333007812 505.000976562 383.333007812 505.000976562 322 c 2
 505.000976562 0 l 1
 420.000976562 0 l 1
 420.000976562 311 l 2
 420.000976562 354.333007812 409.16796875 387 387.500976562 409 c 0
 365.833984375 431 334.333984375 442 293.000976562 442 c 0
 250.333984375 442 216.166992188 429.333007812 190.5 404 c 0
 164.833007812 378.666992188 152 344 152 300 c 2
 152 0 l 1
 67 0 l 1
 67 690 l 1
EndSplineSet
EndChar

StartChar: i
Encoding: 105 105 76
Width: 234
GlyphClass: 2
Flags: W
LayerCount: 2
Fore
SplineSet
74 689 m 1
 159 689 l 1
 159 597 l 1
 74 597 l 1
 74 689 l 1
74 512 m 1
 159 512 l 1
 159 0 l 1
 74 0 l 1
 74 512 l 1
EndSplineSet
EndChar

StartChar: j
Encoding: 106 106 77
Width: 232
GlyphClass: 2
Flags: W
LayerCount: 2
Fore
SplineSet
71 690 m 1
 157 690 l 1
 157 597 l 1
 71 597 l 1
 71 690 l 1
-54 -77 m 1
 -9 -76.9990234375 l 2
 20.3330078125 -76.9990234375 41.3330078125 -70.666015625 54 -57.9990234375 c 0
 66.6669921875 -45.33203125 73 -23.9990234375 73 6.0009765625 c 2
 73 512.000976562 l 1
 158 512.000976562 l 1
 158 0.0009765625 l 2
 158 -50.666015625 144.833007812 -88.8330078125 118.5 -114.5 c 0
 92.1669921875 -140.166992188 53 -153 1 -153 c 2
 -54 -153 l 1
 -54 -77 l 1
EndSplineSet
EndChar

StartChar: k
Encoding: 107 107 78
Width: 558
GlyphClass: 2
Flags: W
LayerCount: 2
Fore
SplineSet
259 258 m 1
 152 151 l 1
 152 0 l 1
 67 0 l 1
 67 690 l 1
 152 690 l 1
 152 253 l 1
 407 512 l 1
 514 512 l 1
 317 316 l 1
 541 0 l 1
 440 0 l 1
 259 258 l 1
EndSplineSet
EndChar

StartChar: l
Encoding: 108 108 79
Width: 302
GlyphClass: 2
Flags: W
LayerCount: 2
Fore
SplineSet
105.5 37.5 m 0
 79.8330078125 62.5 67 101.333007812 67 154 c 2
 67 690 l 1
 152 690 l 1
 152 159 l 2
 152 129 158.166992188 107.666992188 170.5 95 c 0
 182.833007812 82.3330078125 204.333007812 76 235 76 c 2
 279 76 l 1
 279 0 l 1
 224 0 l 2
 170.666992188 0 131.166992188 12.5 105.5 37.5 c 0
EndSplineSet
EndChar

StartChar: m
Encoding: 109 109 80
Width: 912
GlyphClass: 2
Flags: W
LayerCount: 2
Fore
SplineSet
67 512 m 1
 151 511.999023438 l 1
 151 442.999023438 l 1
 169 467.666015625 192 486.333007812 220 499 c 0
 248 511.666992188 279 518 313 518 c 0
 347.666992188 518 378.666992188 510.833007812 406 496.5 c 0
 433.333007812 482.166992188 455 462 471 436 c 1
 492.333007812 464 517.5 484.666992188 546.5 498 c 0
 575.5 511.333007812 610 518 650 518 c 0
 712 518 759.833007812 500.833007812 793.5 466.5 c 0
 827.166992188 432.166992188 844 384 844 322 c 2
 844 0 l 1
 759 0 l 1
 759 311 l 2
 759 354.333007812 748.333007812 387 727 409 c 0
 705.666992188 431 674.666992188 442 634 442 c 0
 590.666015625 442 557.333007812 430.5 534.000976562 407.5 c 0
 510.66796875 384.5 499.000976562 351.666992188 499.000976562 309 c 2
 499.000976562 0 l 1
 413.000976562 0 l 1
 413.000976562 312 l 2
 413.000976562 354.666992188 402.500976562 387 381.500976562 409 c 0
 360.500976562 431 331.000976562 442 293.000976562 442 c 0
 250.333984375 442 216.166992188 429.333007812 190.5 404 c 0
 164.833007812 378.666992188 152 344 152 300 c 2
 152 0 l 1
 67 0 l 1
 67 512 l 1
EndSplineSet
EndChar

StartChar: n
Encoding: 110 110 81
Width: 572
GlyphClass: 2
Flags: W
LayerCount: 2
Fore
SplineSet
67 512 m 1
 151.000976562 511.999023438 l 1
 151.000976562 442.999023438 l 1
 169.000976562 467.666015625 192.000976562 486.333007812 220.000976562 499 c 0
 248.000976562 511.666992188 279.333984375 518 314.000976562 518 c 0
 374.66796875 518 421.66796875 500.666992188 455.000976562 466 c 0
 488.333984375 431.333007812 505.000976562 383.333007812 505.000976562 322 c 2
 505.000976562 0 l 1
 420.000976562 0 l 1
 420.000976562 311 l 2
 420.000976562 354.333007812 409.16796875 387 387.500976562 409 c 0
 365.833984375 431 334.333984375 442 293.000976562 442 c 0
 250.333984375 442 216.166992188 429.333007812 190.5 404 c 0
 164.833007812 378.666992188 152 344 152 300 c 2
 152 0 l 1
 67 0 l 1
 67 512 l 1
EndSplineSet
EndChar

StartChar: o
Encoding: 111 111 82
Width: 572
GlyphClass: 2
Flags: W
LayerCount: 2
Fore
SplineSet
114.5 52.5 m 0
 72.8330078125 93.5 52 152.999023438 52 230.999023438 c 2
 52 281.999023438 l 2
 52 359.999023438 72.8330078125 419.499023438 114.5 460.499023438 c 0
 156.166992188 501.499023438 213.666992188 521.999023438 287 521.999023438 c 0
 359.666992188 521.999023438 416.666992188 501.33203125 458 459.999023438 c 0
 499.333007812 418.666015625 520 359.333007812 520 282 c 2
 520 231 l 2
 520 153 499.333007812 93.5 458 52.5 c 0
 416.666992188 11.5 359.666992188 -9 287 -9 c 0
 213.666992188 -9 156.166992188 11.5 114.5 52.5 c 0
435 232.999023438 m 2
 435 279.999023438 l 2
 435 390.666015625 385.333007812 445.999023438 286 445.999023438 c 0
 186.666992188 445.999023438 137 390.666015625 137 279.999023438 c 2
 137 232.999023438 l 2
 137 121.666015625 186.666992188 65.9990234375 286 65.9990234375 c 0
 385.333007812 65.9990234375 435 121.666015625 435 232.999023438 c 2
EndSplineSet
EndChar

StartChar: p
Encoding: 112 112 83
Width: 580
GlyphClass: 2
Flags: W
LayerCount: 2
Fore
SplineSet
67 512 m 1
 151 511.999023438 l 1
 151 442.999023438 l 1
 168.333007812 467.666015625 191 486.833007812 219 500.5 c 0
 247 514.166992188 278.666992188 521 314 521 c 0
 378.666992188 521 430.5 500.5 469.5 459.5 c 0
 508.5 418.5 528 360 528 284 c 2
 528 230 l 2
 528 153.333007812 508.5 94.3330078125 469.5 53 c 0
 430.5 11.6669921875 378.666992188 -9 314 -9 c 0
 240.666992188 -9 186.666992188 16 152 66 c 1
 152 -162 l 1
 67 -162 l 1
 67 512 l 1
406 107.999023438 m 0
 430.666992188 135.999023438 442.998046875 177.998046875 442.998046875 233.998046875 c 2
 442.998046875 278.998046875 l 2
 442.998046875 334.998046875 430.665039062 376.831054688 405.998046875 404.498046875 c 0
 381.331054688 432.165039062 345.998046875 445.998046875 299.998046875 445.998046875 c 0
 253.998046875 445.998046875 217.831054688 431.831054688 191.498046875 403.498046875 c 0
 165.165039062 375.165039062 151.998046875 336.998046875 151.998046875 288.998046875 c 2
 151.998046875 221.998046875 l 2
 151.998046875 174.665039062 165.331054688 136.83203125 191.998046875 108.499023438 c 0
 218.665039062 80.166015625 255.33203125 65.9990234375 301.999023438 65.9990234375 c 0
 346.666015625 65.9990234375 381.333007812 79.9990234375 406 107.999023438 c 0
EndSplineSet
EndChar

StartChar: q
Encoding: 113 113 84
Width: 580
GlyphClass: 2
Flags: W
LayerCount: 2
Fore
SplineSet
428 67 m 1
 411.333007812 42.3330078125 388.83203125 23.5 360.499023438 10.5 c 0
 332.166015625 -2.5 299.999023438 -9 263.999023438 -9 c 0
 198.666015625 -9 146.999023438 11.5 108.999023438 52.5 c 0
 70.9990234375 93.5 51.9990234375 152.333007812 51.9990234375 229 c 2
 51.9990234375 284 l 2
 51.9990234375 360 71.166015625 418.5 109.499023438 459.5 c 0
 147.83203125 500.5 198.999023438 521 262.999023438 521 c 0
 298.999023438 521 331.33203125 514.166992188 359.999023438 500.5 c 0
 388.666015625 486.833007812 411.333007812 468 428 444 c 1
 428 512 l 1
 512 512 l 1
 512 -162 l 1
 428 -162 l 1
 428 67 l 1
388.999023438 108 m 0
 414.999023438 136 427.999023438 174 427.999023438 222 c 2
 427.999023438 289 l 2
 427.999023438 337.666992188 414.83203125 376 388.499023438 404 c 0
 362.166015625 432 325.666015625 446 278.999023438 446 c 0
 233.666015625 446 198.666015625 432.166992188 173.999023438 404.5 c 0
 149.33203125 376.833007812 136.999023438 335 136.999023438 279 c 2
 136.999023438 233 l 2
 136.999023438 177 149.499023438 135.166992188 174.499023438 107.5 c 0
 199.499023438 79.8330078125 234.666015625 66 279.999023438 66 c 0
 326.666015625 66 362.999023438 80 388.999023438 108 c 0
EndSplineSet
EndChar

StartChar: r
Encoding: 114 114 85
Width: 378
GlyphClass: 2
Flags: W
LayerCount: 2
Fore
SplineSet
67 512 m 1
 150.999023438 512 l 1
 150.999023438 440 l 1
 168.33203125 466.666992188 190.999023438 486.5 218.999023438 499.5 c 0
 246.999023438 512.5 278.666015625 519 313.999023438 519 c 0
 328.666015625 519 342.333007812 518 355 516 c 1
 355 435 l 1
 337 440.333007812 318.333007812 443 299 443 c 0
 255 443 219.5 429.666992188 192.5 403 c 0
 165.5 376.333007812 152 340.333007812 152 295 c 2
 152 0 l 1
 67 0 l 1
 67 512 l 1
EndSplineSet
EndChar

StartChar: s
Encoding: 115 115 86
Width: 517
GlyphClass: 2
Flags: W
LayerCount: 2
Fore
SplineSet
99 36.5 m 0
 61 64.8330078125 42.001953125 103.666992188 42.001953125 153 c 2
 42.001953125 156 l 1
 123.001953125 156 l 1
 123.001953125 154 l 2
 123.001953125 126.666992188 134.334960938 105 157.001953125 89 c 0
 179.668945312 73 214.668945312 65 262.001953125 65 c 0
 304.668945312 65 338.168945312 72 362.501953125 86 c 0
 386.834960938 100 399.001953125 120.333007812 399.001953125 147 c 0
 399.001953125 169 390.168945312 185.666992188 372.501953125 197 c 0
 354.834960938 208.333007812 326.66796875 216 288.001953125 220 c 2
 215.001953125 229 l 2
 158.334960938 235.666992188 116.66796875 250.166992188 90.0009765625 272.5 c 0
 63.333984375 294.833007812 50.0009765625 326.333007812 50.0009765625 367 c 0
 50.0009765625 414.333007812 68.66796875 451.5 106.000976562 478.5 c 0
 143.333984375 505.5 194.000976562 519 258.000976562 519 c 0
 324.66796875 519 377.000976562 505.333007812 415.000976562 478 c 0
 453.000976562 450.666992188 472.000976562 413.666992188 472.000976562 367 c 2
 472.000976562 363 l 1
 391.000976562 363 l 1
 391.000976562 366 l 2
 391.000976562 393.333984375 379.500976562 414.166992188 356.500976562 428.5 c 0
 333.500976562 442.833007812 301.000976562 450 259.000976562 450 c 0
 216.333984375 450 184.333984375 443.333007812 163.000976562 430 c 0
 141.66796875 416.666992188 131.000976562 397.666992188 131.000976562 373 c 0
 131.000976562 351.666992188 138.66796875 335.5 154.000976562 324.5 c 0
 169.333984375 313.5 195.666992188 306 233 302 c 2
 311 292 l 2
 368.333007812 285.333007812 410.833007812 270.666015625 438.5 248 c 0
 466.166992188 225.333007812 480 193.333007812 480 152 c 0
 480 102 460.166992188 63.1669921875 420.5 35.5 c 0
 380.833007812 7.8330078125 326.666015625 -6 258 -6 c 0
 190 -6 137 8.1669921875 99 36.5 c 0
EndSplineSet
EndChar

StartChar: t
Encoding: 116 116 87
Width: 383
GlyphClass: 2
Flags: W
LayerCount: 2
Fore
SplineSet
206 448 m 1
 206 152 l 2
 206 124 212.333007812 104 225 92 c 0
 237.666992188 80 258.666992188 74 288 74 c 2
 331 74 l 1
 331 0 l 1
 274 0 l 2
 172 0 121 49 121 147 c 2
 121 448 l 1
 31 448 l 1
 31 512 l 1
 121 512 l 1
 121 623 l 1
 206 658 l 1
 206 512 l 1
 342 512 l 1
 342 448 l 1
 206 448 l 1
EndSplineSet
EndChar

StartChar: u
Encoding: 117 117 88
Width: 572
GlyphClass: 2
Flags: W
LayerCount: 2
Fore
SplineSet
123 47.5 m 0
 85.6669921875 83.8330078125 67 135.666015625 67 202.999023438 c 2
 67 511.999023438 l 1
 152 511.999023438 l 1
 152 211.999023438 l 2
 152 116.666015625 196.666992188 68.9990234375 286 68.9990234375 c 0
 332 68.9990234375 365.833007812 80.83203125 387.5 104.499023438 c 0
 409.166992188 128.166015625 420 163.999023438 420 211.999023438 c 2
 420 511.999023438 l 1
 505 511.999023438 l 1
 505 202.999023438 l 2
 505 135.666015625 486.166992188 83.8330078125 448.5 47.5 c 0
 410.833007812 11.1669921875 356.333007812 -7 285 -7 c 0
 214.333007812 -7 160.333007812 11.1669921875 123 47.5 c 0
EndSplineSet
EndChar

StartChar: v
Encoding: 118 118 89
Width: 513
GlyphClass: 2
Flags: W
LayerCount: 2
Fore
SplineSet
13 512 m 1
 104 512 l 1
 257 106 l 1
 409 512 l 1
 500 512 l 1
 298 0 l 1
 215 0 l 1
 13 512 l 1
EndSplineSet
EndChar

StartChar: w
Encoding: 119 119 90
Width: 820
GlyphClass: 2
Flags: W
LayerCount: 2
Fore
SplineSet
13 512 m 1
 104 512 l 1
 234 108 l 1
 375 512 l 1
 444 512 l 1
 586 108 l 1
 716 512 l 1
 807 512 l 1
 630 0 l 1
 546 0 l 1
 409 390 l 1
 272 0 l 1
 189 0 l 1
 13 512 l 1
EndSplineSet
EndChar

StartChar: x
Encoding: 120 120 91
Width: 488
GlyphClass: 2
Flags: W
LayerCount: 2
Fore
SplineSet
384 0 m 1
 243 199 l 1
 104 0 l 1
 13 0 l 1
 198 262 l 1
 22 512 l 1
 113 512 l 1
 243 328 l 1
 372 512 l 1
 463 512 l 1
 287 265 l 1
 475 0 l 1
 384 0 l 1
EndSplineSet
EndChar

StartChar: y
Encoding: 121 121 92
Width: 513
GlyphClass: 2
Flags: W
LayerCount: 2
Fore
SplineSet
500 512 m 1
 279 -51 l 2
 265 -87 244.666992188 -113 218 -129 c 0
 191.333007812 -145 156.333007812 -153 113 -153 c 2
 77 -153 l 1
 77 -76 l 1
 113 -76 l 2
 143 -76 165.333007812 -71.6669921875 180 -63 c 0
 194.666992188 -54.3330078125 206 -39 214 -17 c 2
 220 0 l 1
 13 512 l 1
 104 512 l 1
 261 109 l 1
 411 512 l 1
 500 512 l 1
EndSplineSet
EndChar

StartChar: z
Encoding: 122 122 93
Width: 500
GlyphClass: 2
Flags: W
LayerCount: 2
Fore
SplineSet
448 436 m 1
 150 75 l 1
 448 75 l 1
 448 0 l 1
 52 0 l 1
 52 75 l 1
 348 436 l 1
 52 436 l 1
 52 512 l 1
 448 512 l 1
 448 436 l 1
EndSplineSet
EndChar

StartChar: braceleft
Encoding: 123 123 94
Width: 377
GlyphClass: 2
Flags: W
LayerCount: 2
Fore
SplineSet
140 31 m 2
 140.000976562 210.999023438 l 2
 140.000976562 240.33203125 133.66796875 260.999023438 121.000976562 272.999023438 c 0
 108.333984375 284.999023438 85.333984375 291.33203125 52.0009765625 291.999023438 c 1
 52.0009765625 368.999023438 l 1
 85.333984375 369.666015625 108.333984375 375.999023438 121.000976562 387.999023438 c 0
 133.66796875 399.999023438 140.000976562 420.33203125 140.000976562 448.999023438 c 2
 140.000976562 624.999023438 l 2
 140.000976562 701.666015625 177.333984375 739.999023438 252.000976562 739.999023438 c 2
 325.000976562 739.999023438 l 1
 325.000976562 666.999023438 l 1
 275.000976562 666.999023438 l 2
 257.66796875 666.999023438 245.16796875 662.999023438 237.500976562 654.999023438 c 0
 229.833984375 646.999023438 226.000976562 633.999023438 226.000976562 615.999023438 c 2
 226.000976562 451.999023438 l 2
 226.000976562 414.666015625 221.333984375 387.166015625 212.000976562 369.499023438 c 0
 202.666992188 351.83203125 186.333984375 338.665039062 163.000976562 329.999023438 c 1
 186.333984375 321.33203125 202.666992188 308.33203125 212 290.999023438 c 0
 221.333007812 273.666015625 226 246.333007812 226 209 c 2
 226 40 l 2
 226 22 229.833007812 9 237.5 1 c 0
 245.166992188 -7 257.666992188 -11 275 -11 c 2
 325 -11 l 1
 325 -84 l 1
 252 -84 l 2
 177.333007812 -84 140 -45.6669921875 140 31 c 2
EndSplineSet
Substitution2: "'rtla' Right to Left Alternates lookup 0 subtable" braceright
EndChar

StartChar: bar
Encoding: 124 124 95
Width: 290
GlyphClass: 2
Flags: W
LayerCount: 2
Fore
SplineSet
104 740 m 1
 186 740 l 1
 186 -83 l 1
 104 -83 l 1
 104 740 l 1
EndSplineSet
EndChar

StartChar: braceright
Encoding: 125 125 96
Width: 377
GlyphClass: 2
Flags: W
LayerCount: 2
Fore
SplineSet
52 -11 m 1
 102.000976562 -11 l 2
 119.333984375 -11 131.833984375 -7 139.500976562 1 c 0
 147.16796875 9 151.000976562 22 151.000976562 40 c 2
 151.000976562 209 l 2
 151.000976562 246.333007812 155.66796875 273.666015625 165.000976562 290.999023438 c 0
 174.333984375 308.33203125 190.666992188 321.33203125 214 329.999023438 c 1
 190.666015625 338.666015625 174.333007812 351.833007812 165 369.5 c 0
 155.666992188 387.166992188 151 414.666992188 151 452 c 2
 151 616 l 2
 151 634 147.166992188 647 139.5 655 c 0
 131.833007812 663 119.333007812 667 102 667 c 2
 52 667 l 1
 52 740 l 1
 124 740 l 2
 161.333007812 740 189.333007812 730.5 208 711.5 c 0
 226.666992188 692.5 236 663.666992188 236 625 c 2
 236 449 l 2
 236 420.333007812 242.333007812 400 255 388 c 0
 267.666992188 376 291 369.666992188 325 369 c 1
 325 292 l 1
 291 291.333007812 267.666992188 285 255 273 c 0
 242.333007812 261 236 240.333007812 236 211 c 2
 236 31 l 2
 236 -7.6669921875 226.666992188 -36.5 208 -55.5 c 0
 189.333007812 -74.5 161.333007812 -84 124 -84 c 2
 52 -84 l 1
 52 -11 l 1
EndSplineSet
Substitution2: "'rtla' Right to Left Alternates lookup 0 subtable" braceleft
EndChar

StartChar: asciitilde
Encoding: 126 126 97
Width: 509
GlyphClass: 2
Flags: W
LayerCount: 2
Fore
SplineSet
43 245 m 1
 57.6669921875 277 76.1689453125 301.16796875 98.501953125 317.500976562 c 0
 120.834960938 333.833984375 145.66796875 342.000976562 173.000976562 342.000976562 c 0
 190.333984375 342.000976562 206.000976562 339.000976562 220.000976562 333.000976562 c 0
 234.000976562 327.000976562 249.333984375 318.66796875 266.000976562 308.000976562 c 0
 282.66796875 298.66796875 295.500976562 292.000976562 304.500976562 288.000976562 c 0
 313.500976562 284.000976562 323.000976562 282.000976562 333.000976562 282.000976562 c 0
 348.333984375 282.000976562 361.500976562 286.333984375 372.500976562 295.000976562 c 0
 383.500976562 303.66796875 395.000976562 319.000976562 407.000976562 341.000976562 c 1
 465.000976562 305.000976562 l 1
 450.333007812 273.000976562 431.666015625 248.66796875 409 232.000976562 c 0
 386.333007812 215.333984375 361.333007812 207.000976562 334 207.000976562 c 0
 317.333007812 207.000976562 302.166015625 209.833984375 288.5 215.500976562 c 0
 274.833007812 221.16796875 259 229.66796875 241 241.000976562 c 0
 227 250.333984375 215 257.166992188 205 261.5 c 0
 195 265.833007812 185 268 175 268 c 0
 159.666992188 268 146.666992188 263.833007812 136 255.5 c 0
 125.333007812 247.166992188 114 232 102 210 c 1
 43 245 l 1
EndSplineSet
EndChar

StartChar: exclamdown
Encoding: 161 161 99
Width: 239
GlyphClass: 2
Flags: W
LayerCount: 2
Fore
SplineSet
69 512 m 1
 171 512 l 1
 171 406 l 1
 69 406 l 1
 69 512 l 1
87 306 m 1
 153 306 l 1
 170 -153 l 1
 69 -153 l 1
 87 306 l 1
EndSplineSet
EndChar

StartChar: cent
Encoding: 162 162 100
Width: 553
GlyphClass: 2
Flags: W
LayerCount: 2
Fore
SplineSet
418 331 m 1
 417.999023438 336 l 2
 417.999023438 366.666992188 409.166015625 391.333984375 391.499023438 410.000976562 c 0
 373.83203125 428.66796875 348.665039062 440.000976562 315.999023438 444.000976562 c 1
 315.999023438 68.0009765625 l 1
 348.666015625 72.0009765625 373.833007812 83.333984375 391.5 102.000976562 c 0
 409.166992188 120.66796875 418 145.000976562 418 175.000976562 c 2
 418 179.000976562 l 1
 501 179.000976562 l 1
 501 175.000976562 l 2
 501 122.333984375 484.833007812 79.833984375 452.5 47.5009765625 c 0
 420.166992188 15.16796875 374.666992188 -3.33203125 316 -7.9990234375 c 1
 316 -99.9990234375 l 1
 255 -99.9990234375 l 1
 255 -7.9990234375 l 1
 191 -1.9990234375 141.166992188 21.333984375 105.5 62.0009765625 c 0
 69.8330078125 102.66796875 52 159.000976562 52 231.000976562 c 2
 52 282.000976562 l 2
 52 354.000976562 69.8330078125 410.333984375 105.5 451.000976562 c 0
 141.166992188 491.66796875 191 515.000976562 255 521.000976562 c 1
 255 611.000976562 l 1
 316 611.000976562 l 1
 316 521.000976562 l 1
 374.666992188 516.333984375 420.166992188 497.666992188 452.5 465 c 0
 484.833007812 432.333007812 501 389.333007812 501 336 c 2
 501 331 l 1
 418 331 l 1
254.999023438 68 m 1
 254.999023438 444 l 1
 176.33203125 432.666992188 136.999023438 378 136.999023438 280 c 2
 136.999023438 233 l 2
 136.999023438 134.333007812 176.33203125 79.3330078125 254.999023438 68 c 1
EndSplineSet
EndChar

StartChar: sterling
Encoding: 163 163 101
Width: 501
GlyphClass: 2
Flags: W
LayerCount: 2
Fore
SplineSet
471 82 m 1
 471 0.0009765625 l 1
 54 0.0009765625 l 1
 54 77.0009765625 l 1
 72.6669921875 85.66796875 86 97.66796875 94 113.000976562 c 0
 102 128.333984375 106 149.333984375 106 176.000976562 c 2
 106 287.000976562 l 1
 31 287.000976562 l 1
 31 367.000976562 l 1
 106 367.000976562 l 1
 106 502.000976562 l 2
 106 566.000976562 121.666992188 615.000976562 153 649.000976562 c 0
 184.333007812 683.000976562 230 700.000976562 290 700.000976562 c 0
 347.333007812 700.000976562 391.333007812 685.500976562 422 656.500976562 c 0
 452.666992188 627.500976562 468 586.000976562 468 532.000976562 c 1
 381 532.000976562 l 1
 381 562.000976562 373.5 584.16796875 358.5 598.500976562 c 0
 343.5 612.833984375 320.333007812 620.000976562 289 620.000976562 c 0
 227.666992188 620.000976562 197 584.66796875 197 514.000976562 c 2
 197 367.000976562 l 1
 367 367.000976562 l 1
 367 287.000976562 l 1
 197 287.000976562 l 1
 197 186.000976562 l 2
 197 162.66796875 194 142.66796875 188 126.000976562 c 0
 182 109.333984375 172.666992188 94.6669921875 160 82 c 1
 471 82 l 1
EndSplineSet
EndChar

StartChar: currency
Encoding: 164 164 102
Width: 606
GlyphClass: 2
Flags: W
LayerCount: 2
Fore
SplineSet
413 157 m 1
 380.333007812 135 343.333007812 124.000976562 302 124.000976562 c 0
 260.666992188 124.000976562 223.666992188 135.000976562 191 157.000976562 c 1
 122 89.0009765625 l 1
 67 145.000976562 l 1
 135 213.000976562 l 1
 113.666992188 246.333984375 103 283.000976562 103 323.000976562 c 0
 103 365.000976562 114 401.66796875 136 433.000976562 c 1
 67 503.000976562 l 1
 122 558.000976562 l 1
 191 490.000976562 l 1
 224.333007812 511.333984375 261.333007812 522.000976562 302 522.000976562 c 0
 343.333007812 522.000976562 380 511.333984375 412 490.000976562 c 1
 482 558.000976562 l 1
 537 503.000976562 l 1
 468 434.000976562 l 1
 490.666992188 400.66796875 502 363.66796875 502 323.000976562 c 0
 502 282.333984375 491 245.666992188 469 213 c 1
 538 144 l 1
 483 88 l 1
 413 157 l 1
390.5 233.000976562 m 0
 413.5 257.000976562 425 287.000976562 425 323.000976562 c 0
 425 359.000976562 413.5 389.000976562 390.5 413.000976562 c 0
 367.5 437.000976562 338 449.000976562 302 449.000976562 c 0
 266.666992188 449.000976562 237.333984375 437.000976562 214.000976562 413.000976562 c 0
 190.66796875 389.000976562 179.000976562 359.000976562 179.000976562 323.000976562 c 0
 179.000976562 287.000976562 190.66796875 257.000976562 214.000976562 233.000976562 c 0
 237.333984375 209.000976562 266.666992188 197.000976562 302 197.000976562 c 0
 338 197.000976562 367.5 209.000976562 390.5 233.000976562 c 0
EndSplineSet
EndChar

StartChar: yen
Encoding: 165 165 103
Width: 532
GlyphClass: 2
Flags: W
LayerCount: 2
Fore
SplineSet
221 143 m 1
 58 143 l 1
 58 209 l 1
 221 209 l 1
 221 271 l 1
 58 271 l 1
 58 338 l 1
 200 338 l 1
 9 690 l 1
 109 690 l 1
 267 379 l 1
 423 690 l 1
 523 690 l 1
 333 338 l 1
 476 338 l 1
 476 271 l 1
 312 271 l 1
 312 209 l 1
 476 209 l 1
 476 143 l 1
 312 143 l 1
 312 0 l 1
 221 0 l 1
 221 143 l 1
EndSplineSet
EndChar

StartChar: brokenbar
Encoding: 166 166 104
Width: 290
GlyphClass: 2
Flags: W
LayerCount: 2
Fore
SplineSet
104 725 m 1
 186 725 l 1
 186 373 l 1
 104 373 l 1
 104 725 l 1
104 285 m 1
 186 285 l 1
 186 -68 l 1
 104 -68 l 1
 104 285 l 1
EndSplineSet
EndChar

StartChar: section
Encoding: 167 167 105
Width: 559
GlyphClass: 2
Flags: W
LayerCount: 2
Fore
SplineSet
136 -124.5 m 0
 103.333007812 -95.5 86.9990234375 -54.3349609375 86.9990234375 -1.001953125 c 1
 168.999023438 -1.001953125 l 1
 168.999023438 -62.3349609375 204.999023438 -93.001953125 276.999023438 -93.001953125 c 0
 311.666015625 -93.001953125 337.833007812 -86.1689453125 355.5 -72.501953125 c 0
 373.166992188 -58.8349609375 382 -38.66796875 382 -12.0009765625 c 0
 382 18.666015625 370.5 40.9990234375 347.5 54.9990234375 c 0
 324.5 68.9990234375 286.333007812 81.666015625 233 92.9990234375 c 0
 125.666992188 117.666015625 72 177.333007812 72 272 c 0
 72 311.333007812 81.3330078125 344.833007812 100 372.5 c 0
 118.666992188 400.166992188 146.333984375 420.333984375 183.000976562 433.000976562 c 1
 152.333984375 445.66796875 130.333984375 462.66796875 117.000976562 484.000976562 c 0
 103.66796875 505.333984375 97.0009765625 531.000976562 97.0009765625 561.000976562 c 0
 97.0009765625 607.668945312 113.66796875 644.8359375 147.000976562 672.500976562 c 0
 180.333984375 700.16796875 225.666992188 714.000976562 283 714.000976562 c 0
 342.333984375 714.000976562 387.666992188 699.833984375 419 671.500976562 c 0
 450.333007812 643.16796875 466 603.66796875 466 553.000976562 c 1
 384 553.000976562 l 1
 384 610.333984375 350 639.000976562 282 639.000976562 c 0
 250 639.000976562 225.5 632.333984375 208.5 619.000976562 c 0
 191.5 605.665039062 183 586.33203125 183 561.000976562 c 0
 183 540.333984375 188.333007812 523.666992188 199 511 c 0
 209.666992188 498.331054688 225 488.1640625 245 480.499023438 c 0
 265 472.83203125 292.666992188 465.33203125 328 457.999023438 c 0
 373.333984375 447.33203125 411.166992188 428.499023438 441.5 401.499023438 c 0
 471.833007812 374.499023438 487 333.666015625 487 278.999023438 c 0
 487 238.33203125 477.666992188 204.33203125 459 176.999023438 c 0
 440.333007812 149.666015625 413.666015625 130.333007812 379 119 c 1
 409 106.333007812 431.333007812 89.3330078125 446 68 c 0
 460.666992188 46.6669921875 468 19.6669921875 468 -13 c 0
 468 -61.6669921875 450.833007812 -99.6669921875 416.5 -127 c 0
 382.166992188 -154.333007812 335.666992188 -168 277 -168 c 0
 215.666992188 -168 168.666992188 -153.5 136 -124.5 c 0
369.999023438 194.998046875 m 0
 390.666015625 213.665039062 400.999023438 240.330078125 400.999023438 274.997070312 c 0
 400.999023438 310.330078125 390.666015625 337.330078125 369.999023438 355.997070312 c 0
 349.33203125 374.6640625 319.33203125 383.997070312 279.999023438 383.997070312 c 0
 239.999023438 383.997070312 209.666015625 374.6640625 188.999023438 355.997070312 c 0
 168.33203125 337.330078125 157.999023438 310.330078125 157.999023438 274.997070312 c 0
 157.999023438 239.6640625 168.33203125 212.831054688 188.999023438 194.498046875 c 0
 209.666015625 176.165039062 239.999023438 166.998046875 279.999023438 166.998046875 c 0
 319.33203125 166.998046875 349.33203125 176.331054688 369.999023438 194.998046875 c 0
EndSplineSet
EndChar

StartChar: dieresis
Encoding: 168 168 106
Width: 500
GlyphClass: 2
Flags: W
LayerCount: 2
Fore
SplineSet
100 676 m 1
 185 676 l 1
 185 581 l 1
 100 581 l 1
 100 676 l 1
315 676 m 1
 399 676 l 1
 399 581 l 1
 315 581 l 1
 315 676 l 1
EndSplineSet
EndChar

StartChar: copyright
Encoding: 169 169 107
Width: 803
GlyphClass: 2
Flags: W
LayerCount: 2
Fore
SplineSet
224 35 m 0
 172 64.3330078125 131.833007812 105.5 103.5 158.5 c 0
 75.1669921875 211.5 61 272.333007812 61 341 c 0
 61 409.666992188 75.1669921875 470.5 103.5 523.5 c 0
 131.833007812 576.5 172 617.666992188 224 647 c 0
 276 676.333007812 335.666992188 691 403 691 c 0
 470.333984375 691 529.833984375 676.333007812 581.5 647 c 0
 633.166992188 617.666992188 673.166992188 576.5 701.5 523.5 c 0
 729.833007812 470.5 744 409.666992188 744 341 c 0
 744 271.666992188 729.833007812 210.666992188 701.5 158 c 0
 673.166992188 105.333007812 633.166992188 64.3330078125 581.5 35 c 0
 529.833007812 5.6669921875 470.333007812 -9 403 -9 c 0
 335.666992188 -9 276 5.6669921875 224 35 c 0
549.5 86 m 0
 591.16796875 110 623.3359375 144.000976562 646.000976562 188.000976562 c 0
 668.66796875 232.000976562 680.000976562 283.000976562 680.000976562 341.000976562 c 0
 680.000976562 399.000976562 668.66796875 450.000976562 646.000976562 494.000976562 c 0
 623.333984375 538.000976562 591.166992188 571.833984375 549.5 595.500976562 c 0
 507.833007812 619.16796875 459 631.000976562 403 631.000976562 c 0
 347 631.000976562 298 619.16796875 256 595.500976562 c 0
 214 571.833984375 181.666992188 538.000976562 159 494.000976562 c 0
 136.333007812 450.000976562 125 399.000976562 125 341.000976562 c 0
 125 282.333984375 136.333007812 231.166992188 159 187.5 c 0
 181.666992188 143.833007812 214 110 256 86 c 0
 298 62 347 50 403 50 c 0
 459 50 507.833007812 62 549.5 86 c 0
280.500976562 192.500976562 m 0
 249.500976562 222.16796875 234.000976562 265.333984375 234.000976562 322.000976562 c 2
 234.000976562 363.000976562 l 2
 234.000976562 419.000976562 249.500976562 462.000976562 280.500976562 492.000976562 c 0
 311.500976562 522.000976562 353.333984375 537.000976562 406.000976562 537.000976562 c 0
 455.334960938 537.000976562 494.16796875 525.333984375 522.500976562 502.000976562 c 0
 550.833984375 478.66796875 565.000976562 447.000976562 565.000976562 407.000976562 c 2
 565.000976562 403.000976562 l 1
 499.000976562 403.000976562 l 1
 499.000976562 406.000976562 l 2
 499.000976562 429.333984375 490.833984375 447.333984375 474.500976562 460.000976562 c 0
 458.16796875 472.66796875 435.66796875 479.000976562 407.000976562 479.000976562 c 0
 373.000976562 479.000976562 346.833984375 469.333984375 328.500976562 450.000976562 c 0
 310.16796875 430.66796875 301.000976562 401.000976562 301.000976562 361.000976562 c 2
 301.000976562 324.000976562 l 2
 301.000976562 244.66796875 336.66796875 205.000976562 408.000976562 205.000976562 c 0
 436.66796875 205.000976562 459.000976562 211.333984375 475.000976562 224.000976562 c 0
 491.000976562 236.66796875 499.000976562 254.66796875 499.000976562 278.000976562 c 2
 499.000976562 282.000976562 l 1
 564.000976562 282.000976562 l 1
 564.000976562 278.000976562 l 2
 564.000976562 238.000976562 549.833984375 206.333984375 521.500976562 183.000976562 c 0
 493.16796875 159.66796875 454.66796875 148.000976562 406.000976562 148.000976562 c 0
 353.333984375 148.000976562 311.500976562 162.833984375 280.500976562 192.500976562 c 0
EndSplineSet
EndChar

StartChar: ordfeminine
Encoding: 170 170 108
Width: 382
GlyphClass: 2
Flags: W
LayerCount: 2
Fore
SplineSet
327 632 m 2
 327 430.000976562 l 1
 259 430.000976562 l 1
 259 463.000976562 l 1
 234.333007812 438.333984375 201 426.000976562 159 426.000976562 c 0
 121.666992188 426.000976562 93 434.500976562 73 451.500976562 c 0
 53 468.500976562 43 492.000976562 43 522.000976562 c 0
 43 552.669921875 53.6669921875 575.836914062 75 591.500976562 c 0
 96.3330078125 607.16796875 127.333007812 615.000976562 168 615.000976562 c 2
 256 615.000976562 l 1
 256 636.000976562 l 2
 256 655.333984375 250.166992188 669.666992188 238.5 679 c 0
 226.833007812 688.333007812 209 693 185 693 c 0
 163.666992188 693 147.333984375 689.5 136.000976562 682.5 c 0
 124.66796875 675.5 119.000976562 665.666992188 119.000976562 653 c 2
 119.000976562 651 l 1
 53.0009765625 651 l 1
 53.0009765625 653 l 2
 53.0009765625 683 64.66796875 706.333007812 88.0009765625 723 c 0
 111.333984375 739.666992188 144.666992188 748 188 748 c 0
 280.666992188 748 327 709.333007812 327 632 c 2
236.5 500.500976562 m 0
 249.5 511.500976562 256.000976562 528.66796875 256.000976562 552.000976562 c 2
 256.000976562 566.000976562 l 1
 178.000976562 566.000976562 l 2
 155.333984375 566.000976562 138.666992188 562.66796875 128 556.000976562 c 0
 117.333007812 549.333984375 112 539.000976562 112 525.000976562 c 0
 112 497.66796875 133 484.000976562 175 484.000976562 c 0
 203 484.000976562 223.5 489.500976562 236.5 500.500976562 c 0
8.0009765625 700.000976562 m 1024
EndSplineSet
EndChar

StartChar: guillemotleft
Encoding: 171 171 109
Width: 552
GlyphClass: 2
Flags: W
LayerCount: 2
Fore
SplineSet
23 264 m 1
 256 469 l 1
 256 378 l 1
 124 264 l 1
 256 150 l 1
 256 59 l 1
 23 264 l 1
252 264 m 1
 485 469 l 1
 485 378 l 1
 353 264 l 1
 485 150 l 1
 485 59 l 1
 252 264 l 1
EndSplineSet
EndChar

StartChar: logicalnot
Encoding: 172 172 110
Width: 509
GlyphClass: 2
Flags: W
LayerCount: 2
Fore
SplineSet
370 261 m 1
 53 261 l 1
 53 338 l 1
 456 338 l 1
 456 129 l 1
 370 129 l 1
 370 261 l 1
EndSplineSet
EndChar

StartChar: uni00AD
Encoding: 173 173 111
Width: 422
GlyphClass: 2
Flags: W
LayerCount: 2
Fore
SplineSet
52 387 m 1
 370 387 l 1
 370 306 l 1
 52 306 l 1
 52 387 l 1
EndSplineSet
EndChar

StartChar: registered
Encoding: 174 174 112
Width: 519
GlyphClass: 2
Flags: W
LayerCount: 2
Fore
SplineSet
162.5 332 m 0
 134.166992188 348.666992188 112 371.5 96 400.5 c 0
 80 429.5 72 462.333007812 72 499 c 0
 72 535 80 567.5 96 596.5 c 0
 112 625.5 134.333007812 648.333007812 163 665 c 0
 191.666992188 681.666992188 223.666992188 690 259 690 c 0
 295 690 327.166992188 681.666992188 355.5 665 c 0
 383.833984375 648.333007812 406.166992188 625.5 422.5 596.5 c 0
 438.833007812 567.5 447 535 447 499 c 0
 447 462.333007812 439 429.5 423 400.5 c 0
 407 371.5 384.666992188 348.666992188 356 332 c 0
 327.333007812 315.333007812 295 307 259 307 c 0
 223 307 190.833007812 315.333007812 162.5 332 c 0
368.5 385 m 0
 396.833007812 414.333007812 411 452.333007812 411 499 c 0
 411 545 396.666992188 582.666992188 368 612 c 0
 339.333007812 641.333007812 303 656 259 656 c 0
 214.333007812 656 178.166015625 641.333007812 150.499023438 612 c 0
 122.83203125 582.666992188 108.999023438 545 108.999023438 499 c 0
 108.999023438 452.333007812 122.83203125 414.333007812 150.499023438 385 c 0
 178.166015625 355.666992188 214.333007812 341 259 341 c 0
 303.666992188 341 340.166992188 355.666992188 368.5 385 c 0
188 607 m 1
 270 607.000976562 l 2
 292.666992188 607.000976562 310.166992188 601.500976562 322.5 590.500976562 c 0
 334.833007812 579.500976562 341 563.66796875 341 543.000976562 c 0
 341 514.333984375 328.666992188 494.666992188 304 484 c 1
 346 393 l 1
 303 393 l 1
 263 479 l 1
 229 479 l 1
 229 393 l 1
 188 393 l 1
 188 607 l 1
268 514.000976562 m 2
 290 514.000976562 301 523.66796875 301 543.000976562 c 0
 301 561.66796875 290 571.000976562 268 571.000976562 c 2
 229 571.000976562 l 1
 229 514.000976562 l 1
 268 514.000976562 l 2
EndSplineSet
EndChar

StartChar: macron
Encoding: 175 175 113
Width: 500
GlyphClass: 2
Flags: W
LayerCount: 2
Fore
SplineSet
98 667 m 1
 403 667 l 1
 403 590 l 1
 98 590 l 1
 98 667 l 1
EndSplineSet
EndChar

StartChar: degree
Encoding: 176 176 114
Width: 401
GlyphClass: 2
Flags: W
LayerCount: 2
Fore
SplineSet
101 459.5 m 0
 74.3330078125 486.5 60.9990234375 520 60.9990234375 560 c 0
 60.9990234375 600 74.33203125 633.333007812 100.999023438 660 c 0
 127.666015625 686.666992188 161.333007812 700 202 700 c 0
 241.333007812 700 274.5 686.666992188 301.5 660 c 0
 328.5 633.333007812 342 600 342 560 c 0
 342 534 335.833007812 510.166992188 323.5 488.5 c 0
 311.166992188 466.833007812 294.333984375 449.833007812 273.000976562 437.5 c 0
 251.66796875 425.166992188 228.000976562 419 202.000976562 419 c 0
 161.333984375 419 127.666992188 432.5 101 459.5 c 0
259.999023438 500 m 0
 275.33203125 516 283 536 283 560 c 0
 283 584.666992188 275.333007812 605 260 621 c 0
 244.666015625 637 225.333007812 645 202 645 c 0
 178 645 158.333007812 637 143 621 c 0
 127.666992188 605 120 584.666992188 120 560 c 0
 120 536 127.666992188 516 143 500 c 0
 158.333007812 484 178 476 202 476 c 0
 225.333007812 476 244.666015625 484 259.999023438 500 c 0
EndSplineSet
EndChar

StartChar: plusminus
Encoding: 177 177 115
Width: 509
GlyphClass: 2
Flags: W
LayerCount: 2
Fore
SplineSet
214 280 m 1
 53 280 l 1
 53 361 l 1
 214 361 l 1
 214 522 l 1
 295 522 l 1
 295 361 l 1
 456 361 l 1
 456 280 l 1
 295 280 l 1
 295 119 l 1
 214 119 l 1
 214 280 l 1
53 70 m 1
 456 70 l 1
 456 -11 l 1
 53 -11 l 1
 53 70 l 1
EndSplineSet
EndChar

StartChar: uni00B2
Encoding: 178 178 116
Width: 375
GlyphClass: 2
Flags: W
LayerCount: 2
Fore
SplineSet
51 490 m 1
 210 656.000976562 l 2
 223.333007812 669.333984375 233 681.500976562 239 692.500976562 c 0
 245 703.500976562 248 715.333984375 248 728.000976562 c 2
 248 734.000976562 l 2
 248 752.000976562 242.833007812 765.833984375 232.5 775.500976562 c 0
 222.166992188 785.16796875 206.666992188 790.000976562 186 790.000976562 c 0
 165.333007812 790.000976562 149.5 785.16796875 138.5 775.500976562 c 0
 127.5 765.833984375 122 751.666992188 122 733 c 2
 122 726 l 1
 47 726 l 1
 47 735 l 2
 47 772.333007812 59.5 801.5 84.5 822.5 c 0
 109.5 843.5 144 854 188 854 c 0
 231.333007812 854 265.166015625 843.5 289.499023438 822.5 c 0
 313.83203125 801.5 325.999023438 773 325.999023438 737 c 2
 325.999023438 729 l 2
 325.999023438 707 321.33203125 687 311.999023438 669 c 0
 302.666015625 651 287.333007812 631.666992188 266 611 c 2
 159 497 l 1
 328 497 l 1
 328 430 l 1
 51 430 l 1
 51 490 l 1
EndSplineSet
EndChar

StartChar: uni00B3
Encoding: 179 179 117
Width: 373
GlyphClass: 2
Flags: W
LayerCount: 2
Fore
SplineSet
82 453.5 m 0
 58 473.166992188 45.9990234375 500.998046875 45.9990234375 536.998046875 c 2
 45.9990234375 544.998046875 l 1
 114.999023438 544.998046875 l 1
 114.999023438 538.998046875 l 2
 114.999023438 504.331054688 137.666015625 486.998046875 182.999023438 486.998046875 c 0
 228.33203125 486.998046875 250.999023438 505.998046875 250.999023438 543.998046875 c 2
 250.999023438 551.998046875 l 2
 250.999023438 572.665039062 244.999023438 587.998046875 232.999023438 597.998046875 c 0
 220.999023438 607.998046875 202.33203125 612.998046875 176.999023438 612.998046875 c 2
 152.999023438 612.998046875 l 1
 152.999023438 677.998046875 l 1
 176.999023438 677.998046875 l 2
 221.666015625 677.998046875 243.999023438 695.665039062 243.999023438 730.998046875 c 2
 243.999023438 737.998046875 l 2
 243.999023438 772.665039062 222.999023438 789.998046875 180.999023438 789.998046875 c 0
 160.33203125 789.998046875 144.499023438 785.665039062 133.499023438 776.998046875 c 0
 122.499023438 768.331054688 116.999023438 755.998046875 116.999023438 739.998046875 c 2
 116.999023438 732.998046875 l 1
 47.9990234375 732.998046875 l 1
 47.9990234375 739.998046875 l 2
 47.9990234375 775.998046875 59.9990234375 803.998046875 83.9990234375 823.998046875 c 0
 107.999023438 843.998046875 141.33203125 853.998046875 183.999023438 853.998046875 c 0
 226.666015625 853.998046875 259.833007812 844.331054688 283.5 824.998046875 c 0
 307.166992188 805.662109375 319 779.329101562 319 745.999023438 c 2
 319 737.999023438 l 2
 319 696.666015625 299.666992188 667.666015625 261 650.999023438 c 1
 304.333007812 634.999023438 326 602.33203125 326 552.999023438 c 2
 326 543.999023438 l 2
 326 506.666015625 313.333007812 477.333007812 288 456 c 0
 262.666992188 434.666992188 228 424 184 424 c 0
 140 424 106 433.833007812 82 453.5 c 0
EndSplineSet
EndChar

StartChar: acute
Encoding: 180 180 118
Width: 500
GlyphClass: 2
Flags: W
LayerCount: 2
Fore
SplineSet
268 705 m 1
 373 705 l 1
 238 577 l 1
 159 577 l 1
 268 705 l 1
EndSplineSet
EndChar

StartChar: uni00B5
Encoding: 181 181 119
Width: 571
GlyphClass: 2
Flags: W
LayerCount: 2
Fore
SplineSet
67 512 m 1
 152 511.999023438 l 1
 152 198.999023438 l 2
 152 156.999023438 163.5 124.83203125 186.5 102.499023438 c 0
 209.5 80.166015625 241.333007812 68.9990234375 282 68.9990234375 c 0
 324.666992188 68.9990234375 358 81.83203125 382 107.499023438 c 0
 406 133.166015625 418 169.333007812 418 216 c 2
 418 512 l 1
 504 512 l 1
 504 0 l 1
 420 0 l 1
 420 66 l 1
 385.333007812 18 335.333007812 -6 270 -6 c 0
 218 -6 178.666992188 7 152 33 c 1
 152 -153 l 1
 67 -153 l 1
 67 512 l 1
EndSplineSet
EndChar

StartChar: paragraph
Encoding: 182 182 120
Width: 681
GlyphClass: 2
Flags: W
LayerCount: 2
Fore
SplineSet
325 269 m 1
 322.999023438 268.999023438 l 2
 242.33203125 268.999023438 180.33203125 287.33203125 136.999023438 323.999023438 c 0
 93.666015625 360.666015625 71.9990234375 412.333007812 71.9990234375 479 c 0
 71.9990234375 546.333007812 92.83203125 598.333007812 134.499023438 635 c 0
 176.166015625 671.666992188 234.333007812 690 309 690 c 2
 573 690 l 1
 573 -153 l 1
 493 -153 l 1
 493 614 l 1
 405 614 l 1
 405 -153 l 1
 325 -153 l 1
 325 269 l 1
EndSplineSet
EndChar

StartChar: periodcentered
Encoding: 183 183 121
Width: 198
GlyphClass: 2
Flags: W
LayerCount: 2
Fore
SplineSet
48 326 m 1
 150 326 l 1
 150 219 l 1
 48 219 l 1
 48 326 l 1
EndSplineSet
EndChar

StartChar: cedilla
Encoding: 184 184 122
Width: 500
GlyphClass: 2
Flags: W
LayerCount: 2
Fore
SplineSet
247 12 m 1
 320 12 l 1
 248 -152 l 1
 162 -152 l 1
 247 12 l 1
EndSplineSet
EndChar

StartChar: uni00B9
Encoding: 185 185 123
Width: 265
GlyphClass: 2
Flags: W
LayerCount: 2
Fore
SplineSet
124 767 m 1
 39 714 l 1
 39 795 l 1
 124 847 l 1
 202 847 l 1
 202 430 l 1
 124 430 l 1
 124 767 l 1
EndSplineSet
EndChar

StartChar: ordmasculine
Encoding: 186 186 124
Width: 382
GlyphClass: 2
Flags: W
LayerCount: 2
Fore
SplineSet
84 463 m 0
 58.6669921875 487.666992188 46 523.333984375 46 570.000976562 c 2
 46 605.000976562 l 2
 46 651.000976562 58.8330078125 686.333984375 84.5 711.000976562 c 0
 110.166992188 735.66796875 145.666992188 748.000976562 191 748.000976562 c 0
 236.333007812 748.000976562 272 735.66796875 298 711.000976562 c 0
 324 686.333984375 337 651.000976562 337 605.000976562 c 2
 337 570.000976562 l 2
 337 523.333984375 324.166992188 487.666992188 298.5 463 c 0
 272.833007812 438.333007812 237 426 191 426 c 0
 145 426 109.333007812 438.333007812 84 463 c 0
246 510 m 0
 258.666992188 523.333007812 265 543.333007812 265 570 c 2
 265 605 l 2
 265 631 258.666992188 650.666992188 246 664 c 0
 233.333007812 677.333007812 215 684 191 684 c 0
 167 684 148.666992188 677.333007812 136 664 c 0
 123.333007812 650.666992188 117 631 117 605 c 2
 117 570 l 2
 117 543.333007812 123.333007812 523.333007812 136 510 c 0
 148.666992188 496.666992188 167 490 191 490 c 0
 215 490 233.333007812 496.666992188 246 510 c 0
5 700 m 1024
EndSplineSet
EndChar

StartChar: guillemotright
Encoding: 187 187 125
Width: 552
GlyphClass: 2
Flags: W
LayerCount: 2
Fore
SplineSet
67 150 m 1
 199 264 l 1
 67 378 l 1
 67 469 l 1
 301 264 l 1
 67 59 l 1
 67 150 l 1
296 150 m 1
 428 264 l 1
 296 378 l 1
 296 469 l 1
 530 264 l 1
 296 59 l 1
 296 150 l 1
EndSplineSet
EndChar

StartChar: onequarter
Encoding: 188 188 126
Width: 806
GlyphClass: 3
Flags: W
LayerCount: 2
Fore
SplineSet
588 692 m 1
 207 0 l 1
 134 0 l 1
 514 692 l 1
 588 692 l 1
114 273 m 1
 114 609 l 1
 28 556 l 1
 28 638 l 1
 114 690 l 1
 192 690 l 1
 192 273 l 1
 114 273 l 1
770 70 m 1
 729 70 l 1
 729 0 l 1
 651 0 l 1
 651 70 l 1
 458 70 l 1
 458 137 l 1
 597 417 l 1
 675 417 l 1
 537 137 l 1
 651 137 l 1
 651 232 l 1
 729 232 l 1
 729 137 l 1
 770 137 l 1
 770 70 l 1
EndSplineSet
Ligature2: "'frac' Diagonal Fractions lookup 2 subtable" one slash four
EndChar

StartChar: onehalf
Encoding: 189 189 127
Width: 817
GlyphClass: 3
Flags: W
LayerCount: 2
Fore
SplineSet
509 692 m 1
 583 692 l 1
 202 0 l 1
 129 0 l 1
 509 692 l 1
114 609 m 1
 28 556 l 1
 28 638 l 1
 114 690 l 1
 192 690 l 1
 192 273 l 1
 114 273 l 1
 114 609 l 1
493 60 m 1
 652 226 l 2
 665.333007812 239.333007812 675 251.5 681 262.5 c 0
 687 273.5 690 285.333007812 690 298 c 2
 690 304 l 2
 690 322 684.833007812 335.833007812 674.5 345.5 c 0
 664.166992188 355.166992188 648.666992188 360 628 360 c 0
 607.333007812 360 591.5 355.166992188 580.5 345.5 c 0
 569.5 335.833007812 564 321.666015625 564 303 c 2
 564 296 l 1
 489 296 l 1
 489 305 l 2
 489 342.333007812 501.5 371.5 526.5 392.5 c 0
 551.5 413.5 586 424 630 424 c 0
 673.333007812 424 707.166015625 413.5 731.499023438 392.5 c 0
 755.83203125 371.5 767.999023438 343 767.999023438 307 c 2
 767.999023438 299 l 2
 767.999023438 277 763.33203125 257 753.999023438 239 c 0
 744.663085938 221 729.330078125 201.666992188 708 181 c 2
 601 67 l 1
 770 67 l 1
 770 0 l 1
 493 0 l 1
 493 60 l 1
EndSplineSet
Ligature2: "'frac' Diagonal Fractions lookup 2 subtable" one slash two
EndChar

StartChar: threequarters
Encoding: 190 190 128
Width: 909
GlyphClass: 3
Flags: W
LayerCount: 2
Fore
SplineSet
287 298 m 0
 261.666992188 276.666992188 227.333984375 266 184.000976562 266 c 0
 139.333984375 266 105.000976562 276 81.0009765625 296 c 0
 57.0009765625 316 45.0009765625 344 45.0009765625 380 c 2
 45.0009765625 387 l 1
 114.000976562 387 l 1
 114.000976562 381 l 2
 114.000976562 364.333007812 119.833984375 351.666015625 131.500976562 343 c 0
 143.16796875 334.333007812 160.000976562 330 182.000976562 330 c 0
 228.000976562 330 251.000976562 348.666992188 251.000976562 386 c 2
 251.000976562 395 l 2
 251.000976562 435.666992188 226.333984375 456 177.000976562 456 c 2
 152.000976562 456 l 1
 152.000976562 520 l 1
 176.000976562 520 l 2
 221.333984375 520 244.000976562 538 244.000976562 574 c 2
 244.000976562 581 l 2
 244.000976562 615.666992188 222.66796875 633 180.000976562 633 c 0
 159.333984375 633 143.666992188 628.666992188 133 620 c 0
 122.333007812 611.333007812 117 598.666015625 117 581.999023438 c 2
 117 575.999023438 l 1
 47 575.999023438 l 1
 47 582.999023438 l 2
 47 618.999023438 59 646.999023438 83 666.999023438 c 0
 107 686.999023438 140.333007812 696.999023438 183 696.999023438 c 0
 225.666992188 696.999023438 259 687.33203125 283 667.999023438 c 0
 307 648.666015625 319 621.999023438 319 587.999023438 c 2
 319 580.999023438 l 2
 319 539.666015625 299.666992188 510.666015625 261 493.999023438 c 1
 303.666992188 478.666015625 325 445.666015625 325 394.999023438 c 2
 325 385.999023438 l 2
 325 348.666015625 312.333007812 319.333007812 287 298 c 0
691 692 m 1
 310 0 l 1
 237 0 l 1
 617 692 l 1
 691 692 l 1
873 70 m 1
 832 70 l 1
 832 0 l 1
 754 0 l 1
 754 70 l 1
 561 70 l 1
 561 137 l 1
 700 417 l 1
 778 417 l 1
 640 137 l 1
 754 137 l 1
 754 232 l 1
 832 232 l 1
 832 137 l 1
 873 137 l 1
 873 70 l 1
EndSplineSet
Ligature2: "'frac' Diagonal Fractions lookup 2 subtable" three slash four
EndChar

StartChar: questiondown
Encoding: 191 191 129
Width: 485
GlyphClass: 2
Flags: W
LayerCount: 2
Fore
SplineSet
199 512 m 1
 300 512 l 1
 300 408 l 1
 199 408 l 1
 199 512 l 1
96.5 -118 m 0
 60.1669921875 -88 42.0009765625 -46.6669921875 42.0009765625 6 c 0
 42.0009765625 34 46.833984375 59.5 56.5009765625 82.5 c 0
 66.16796875 105.5 82.0009765625 128 104.000976562 150 c 2
 169.000976562 212 l 2
 183.66796875 226 193.500976562 239.166992188 198.500976562 251.5 c 0
 203.500976562 263.833007812 206.000976562 280.333007812 206.000976562 301 c 2
 206.000976562 330 l 1
 294.000976562 330 l 1
 294.000976562 297 l 2
 294.000976562 266.333007812 290.333984375 241.833007812 283.000976562 223.5 c 0
 275.66796875 205.166992188 261.000976562 185.666992188 239.000976562 165 c 2
 183.000976562 113 l 2
 164.333984375 95 151.166992188 78.3330078125 143.5 63 c 0
 135.833007812 47.6669921875 132 30 132 10 c 0
 132 -20 142 -43 162 -59 c 0
 182 -75 211 -83 249 -83 c 0
 325.666992188 -83 364 -47.6669921875 364 23 c 1
 451 23 l 1
 449.666992188 -37 431.5 -83 396.5 -115 c 0
 361.5 -147 311.666992188 -163 247 -163 c 0
 183 -163 132.833007812 -148 96.5 -118 c 0
EndSplineSet
EndChar

StartChar: Agrave
Encoding: 192 192 130
Width: 666
GlyphClass: 2
Flags: W
LayerCount: 2
Fore
SplineSet
501 156 m 1
 163 156 l 1
 101 0 l 1
 6 0 l 1
 294 690 l 1
 371 690 l 1
 660 0 l 1
 564 0 l 1
 501 156 l 1
470 233 m 1
 332 578 l 1
 194 233 l 1
 470 233 l 1
180 878 m 1
 288 878 l 1
 399 750 l 1
 319 750 l 1
 180 878 l 1
EndSplineSet
EndChar

StartChar: Aacute
Encoding: 193 193 131
Width: 666
GlyphClass: 2
Flags: W
LayerCount: 2
Fore
SplineSet
501 156 m 1
 163 156 l 1
 101 0 l 1
 6 0 l 1
 294 690 l 1
 371 690 l 1
 660 0 l 1
 564 0 l 1
 501 156 l 1
470 233 m 1
 332 578 l 1
 194 233 l 1
 470 233 l 1
358 878 m 1
 465 878 l 1
 326 750 l 1
 246 750 l 1
 358 878 l 1
EndSplineSet
EndChar

StartChar: Acircumflex
Encoding: 194 194 132
Width: 666
GlyphClass: 2
Flags: W
LayerCount: 2
Fore
SplineSet
501 156 m 1
 163 156 l 1
 101 0 l 1
 6 0 l 1
 294 690 l 1
 371 690 l 1
 660 0 l 1
 564 0 l 1
 501 156 l 1
470 233 m 1
 332 578 l 1
 194 233 l 1
 470 233 l 1
300 891 m 1
 365 891 l 1
 496 745 l 1
 416 745 l 1
 333 835 l 1
 249 745 l 1
 169 745 l 1
 300 891 l 1
EndSplineSet
EndChar

StartChar: Atilde
Encoding: 195 195 133
Width: 666
GlyphClass: 2
Flags: W
LayerCount: 2
Fore
SplineSet
501 156 m 1
 163 156 l 1
 101 0 l 1
 6 0 l 1
 294 690 l 1
 371 690 l 1
 660 0 l 1
 564 0 l 1
 501 156 l 1
470 233 m 1
 332 578 l 1
 194 233 l 1
 470 233 l 1
186 819 m 1
 199.333007812 831.666992188 212.331054688 841 224.998046875 847 c 0
 237.665039062 853 251.998046875 856 267.998046875 856 c 0
 281.331054688 856 293.1640625 854.333007812 303.497070312 851 c 0
 313.830078125 847.666992188 325.663085938 842.666992188 338.99609375 836 c 0
 351.663085938 830 362.49609375 825.5 371.49609375 822.5 c 0
 380.49609375 819.5 390.663085938 818 401.99609375 818 c 0
 417.329101562 818 430.49609375 821 441.49609375 827 c 0
 452.49609375 833 464.99609375 842.666992188 478.99609375 856 c 1
 478.99609375 784 l 1
 455.663085938 760 428.330078125 748 396.997070312 748 c 0
 382.997070312 748 370.830078125 749.666992188 360.497070312 753 c 0
 350.1640625 756.333007812 338.331054688 761.333007812 324.998046875 768 c 0
 311.665039062 774 300.83203125 778.5 292.499023438 781.5 c 0
 284.166015625 784.5 274.333007812 786 263 786 c 0
 248.333007812 786 235.5 783 224.5 777 c 0
 213.5 771 200.666992188 761.333007812 186 748 c 1
 186 819 l 1
EndSplineSet
EndChar

StartChar: Adieresis
Encoding: 196 196 134
Width: 666
GlyphClass: 2
Flags: W
LayerCount: 2
Fore
SplineSet
501 156 m 1
 163 156 l 1
 101 0 l 1
 6 0 l 1
 294 690 l 1
 371 690 l 1
 660 0 l 1
 564 0 l 1
 501 156 l 1
470 233 m 1
 332 578 l 1
 194 233 l 1
 470 233 l 1
183 854 m 1
 268 854 l 1
 268 759 l 1
 183 759 l 1
 183 854 l 1
398 854 m 1
 482 854 l 1
 482 759 l 1
 398 759 l 1
 398 854 l 1
EndSplineSet
EndChar

StartChar: Aring
Encoding: 197 197 135
Width: 666
GlyphClass: 2
Flags: W
LayerCount: 2
Fore
SplineSet
501 156 m 1
 163 156 l 1
 101 0 l 1
 6 0 l 1
 293 689 l 1
 276.333007812 696.333007812 263.166015625 707.5 253.5 722.5 c 0
 243.833007812 737.5 239 755 239 775 c 0
 239 802.333007812 247.833007812 825 265.5 843 c 0
 283.166992188 861 305.666992188 870 333 870 c 0
 359.666992188 870 382 861 400 843 c 0
 418 825 427 802.333007812 427 775 c 0
 427 755 422 737.5 412 722.5 c 0
 402 707.5 388.666992188 696.333007812 372 689 c 1
 660 0 l 1
 564 0 l 1
 501 156 l 1
297 812.5 m 0
 287.666992188 802.833007812 283 790.333007812 283 775 c 0
 283 760.333007812 287.666992188 748 297 738 c 0
 306.333007812 728 318.333007812 723 333 723 c 0
 347.666992188 723 359.666992188 728 369 738 c 0
 378.333007812 748 383 760.333007812 383 775 c 0
 383 790.333007812 378.333007812 802.833007812 369 812.5 c 0
 359.666992188 822.166992188 347.666992188 827 333 827 c 0
 318.333007812 827 306.333007812 822.166992188 297 812.5 c 0
470 233 m 1
 332 578 l 1
 194 233 l 1
 470 233 l 1
EndSplineSet
EndChar

StartChar: AE
Encoding: 198 198 136
Width: 1000
GlyphClass: 2
Flags: W
LayerCount: 2
Fore
SplineSet
572 609 m 1
 572 391 l 1
 902 391 l 1
 902 310 l 1
 572 310 l 1
 572 81 l 1
 957 81 l 1
 957 0 l 1
 481 0 l 1
 481 161 l 1
 205 161 l 1
 107 0 l 1
 6 0 l 1
 431 690 l 1
 957 690 l 1
 957 609 l 1
 572 609 l 1
481 238 m 1
 481 614 l 1
 252 238 l 1
 481 238 l 1
EndSplineSet
EndChar

StartChar: Ccedilla
Encoding: 199 199 137
Width: 680
GlyphClass: 2
Flags: W
LayerCount: 2
Fore
SplineSet
530 475 m 1
 529.999023438 479 l 2
 529.999023438 523.666992188 514.499023438 558 483.499023438 582 c 0
 452.499023438 606 408.33203125 618 350.999023438 618 c 0
 283.666015625 618 233.666015625 599.666992188 200.999023438 563 c 0
 168.33203125 526.333007812 151.999023438 469 151.999023438 391 c 2
 151.999023438 294 l 2
 151.999023438 218.666992188 168.499023438 163 201.499023438 127 c 0
 234.499023438 91 284.666015625 73 351.999023438 73 c 0
 409.33203125 73 453.33203125 85 483.999023438 109 c 0
 514.666015625 133 529.999023438 167.666992188 529.999023438 213 c 2
 529.999023438 217 l 1
 619.999023438 217 l 1
 619.999023438 212 l 2
 619.999023438 152 601.666015625 103.166992188 564.999023438 65.5 c 0
 528.33203125 27.8330078125 477.33203125 4.3330078125 411.999023438 -5 c 1
 346.999023438 -152 l 1
 260.999023438 -152 l 1
 334.999023438 -9 l 1
 247.666015625 -5.6669921875 180.166015625 21.3330078125 132.499023438 72 c 0
 84.83203125 122.666992188 60.9990234375 197 60.9990234375 295 c 2
 60.9990234375 396 l 2
 60.9990234375 496.666992188 86.33203125 572.5 136.999023438 623.5 c 0
 187.666015625 674.5 259.333007812 700 352 700 c 0
 435.333007812 700 501 680.666992188 549 642 c 0
 597 603.333007812 621 549.333007812 621 480 c 2
 621 475 l 1
 530 475 l 1
EndSplineSet
EndChar

StartChar: Egrave
Encoding: 200 200 138
Width: 597
GlyphClass: 2
Flags: W
LayerCount: 2
Fore
SplineSet
163 609 m 1
 163 391 l 1
 498 391 l 1
 498 310 l 1
 163 310 l 1
 163 81 l 1
 554 81 l 1
 554 0 l 1
 72 0 l 1
 72 690 l 1
 554 690 l 1
 554 609 l 1
 163 609 l 1
157 878 m 1
 265 878 l 1
 376 750 l 1
 296 750 l 1
 157 878 l 1
EndSplineSet
EndChar

StartChar: Eacute
Encoding: 201 201 139
Width: 597
GlyphClass: 2
Flags: W
LayerCount: 2
Fore
SplineSet
163 609 m 1
 163 391 l 1
 498 391 l 1
 498 310 l 1
 163 310 l 1
 163 81 l 1
 554 81 l 1
 554 0 l 1
 72 0 l 1
 72 690 l 1
 554 690 l 1
 554 609 l 1
 163 609 l 1
343 878 m 1
 450 878 l 1
 311 750 l 1
 231 750 l 1
 343 878 l 1
EndSplineSet
EndChar

StartChar: Ecircumflex
Encoding: 202 202 140
Width: 597
GlyphClass: 2
Flags: W
LayerCount: 2
Fore
SplineSet
163 609 m 1
 163 391 l 1
 498 391 l 1
 498 310 l 1
 163 310 l 1
 163 81 l 1
 554 81 l 1
 554 0 l 1
 72 0 l 1
 72 690 l 1
 554 690 l 1
 554 609 l 1
 163 609 l 1
277 891 m 1
 342 891 l 1
 473 745 l 1
 393 745 l 1
 310 835 l 1
 226 745 l 1
 146 745 l 1
 277 891 l 1
EndSplineSet
EndChar

StartChar: Edieresis
Encoding: 203 203 141
Width: 597
GlyphClass: 2
Flags: W
LayerCount: 2
Fore
SplineSet
163 609 m 1
 163 391 l 1
 498 391 l 1
 498 310 l 1
 163 310 l 1
 163 81 l 1
 554 81 l 1
 554 0 l 1
 72 0 l 1
 72 690 l 1
 554 690 l 1
 554 609 l 1
 163 609 l 1
160 854 m 1
 245 854 l 1
 245 759 l 1
 160 759 l 1
 160 854 l 1
375 854 m 1
 459 854 l 1
 459 759 l 1
 375 759 l 1
 375 854 l 1
EndSplineSet
EndChar

StartChar: Igrave
Encoding: 204 204 142
Width: 249
GlyphClass: 2
Flags: W
LayerCount: 2
Fore
SplineSet
79 690 m 1
 170 690 l 1
 170 0 l 1
 79 0 l 1
 79 690 l 1
-28 878 m 1
 80 878 l 1
 191 750 l 1
 111 750 l 1
 -28 878 l 1
EndSplineSet
EndChar

StartChar: Iacute
Encoding: 205 205 143
Width: 249
GlyphClass: 2
Flags: W
LayerCount: 2
Fore
SplineSet
79 690 m 1
 170 690 l 1
 170 0 l 1
 79 0 l 1
 79 690 l 1
158 878 m 1
 265 878 l 1
 126 750 l 1
 46 750 l 1
 158 878 l 1
EndSplineSet
EndChar

StartChar: Icircumflex
Encoding: 206 206 144
Width: 249
GlyphClass: 2
Flags: W
LayerCount: 2
Fore
SplineSet
79 690 m 1
 170 690 l 1
 170 0 l 1
 79 0 l 1
 79 690 l 1
92 891 m 1
 157 891 l 1
 288 745 l 1
 208 745 l 1
 125 835 l 1
 41 745 l 1
 -39 745 l 1
 92 891 l 1
EndSplineSet
EndChar

StartChar: Idieresis
Encoding: 207 207 145
Width: 249
GlyphClass: 2
Flags: W
LayerCount: 2
Fore
SplineSet
79 690 m 1
 170 690 l 1
 170 0 l 1
 79 0 l 1
 79 690 l 1
-25 854 m 1
 60 854 l 1
 60 759 l 1
 -25 759 l 1
 -25 854 l 1
190 854 m 1
 274 854 l 1
 274 759 l 1
 190 759 l 1
 190 854 l 1
EndSplineSet
EndChar

StartChar: Eth
Encoding: 208 208 146
Width: 725
GlyphClass: 2
Flags: W
LayerCount: 2
Fore
SplineSet
591 615 m 0
 641 565 666 490.33203125 666 390.999023438 c 2
 666 299.999023438 l 2
 666 200.666015625 640.833007812 125.833007812 590.5 75.5 c 0
 540.166015625 25.1669921875 468.666015625 0 376 0 c 2
 123 0 l 1
 123 310 l 1
 34 310 l 1
 34 391 l 1
 123 391 l 1
 123 690 l 1
 378 690 l 2
 470 690 541 665 591 615 c 0
575 385.999023438 m 2
 575 461.999023438 558.833007812 518.166015625 526.5 554.499023438 c 0
 494.166992188 590.83203125 444.666992188 608.999023438 378 608.999023438 c 2
 214 608.999023438 l 1
 214 390.999023438 l 1
 384 390.999023438 l 1
 384 309.999023438 l 1
 214 309.999023438 l 1
 214 80.9990234375 l 1
 378 80.9990234375 l 2
 444.666992188 80.9990234375 494.166992188 98.666015625 526.5 133.999023438 c 0
 558.833007812 169.33203125 575 223.999023438 575 297.999023438 c 2
 575 385.999023438 l 2
EndSplineSet
EndChar

StartChar: Ntilde
Encoding: 209 209 147
Width: 721
GlyphClass: 2
Flags: W
LayerCount: 2
Fore
SplineSet
649 690 m 1
 649 0 l 1
 558 0 l 1
 163 534 l 1
 163 0 l 1
 72 0 l 1
 72 690 l 1
 163 690 l 1
 558 155 l 1
 558 690 l 1
 649 690 l 1
211 819 m 1
 224.333007812 831.666992188 237.329101562 841 249.99609375 847 c 0
 262.663085938 853 276.99609375 856 292.99609375 856 c 0
 306.330078125 856 318.163085938 854.333007812 328.49609375 851 c 0
 338.830078125 847.666992188 350.663085938 842.666992188 363.99609375 836 c 0
 376.663085938 830 387.49609375 825.5 396.49609375 822.5 c 0
 405.49609375 819.5 415.663085938 818 426.99609375 818 c 0
 442.329101562 818 455.49609375 821 466.49609375 827 c 0
 477.49609375 833 489.99609375 842.666992188 503.99609375 856 c 1
 503.99609375 784 l 1
 480.663085938 760 453.330078125 748 421.997070312 748 c 0
 407.997070312 748 395.830078125 749.666992188 385.497070312 753 c 0
 375.1640625 756.333007812 363.331054688 761.333007812 349.998046875 768 c 0
 336.665039062 774 325.83203125 778.5 317.499023438 781.5 c 0
 309.166015625 784.5 299.333007812 786 288 786 c 0
 273.333007812 786 260.5 783 249.5 777 c 0
 238.5 771 225.666992188 761.333007812 211 748 c 1
 211 819 l 1
EndSplineSet
EndChar

StartChar: Ograve
Encoding: 210 210 148
Width: 695
GlyphClass: 2
Flags: W
LayerCount: 2
Fore
SplineSet
135.5 67.5 m 0
 85.8330078125 118.5 61 194.333007812 61 295 c 2
 61 396 l 2
 61 496.666992188 86.1669921875 572.5 136.5 623.5 c 0
 186.833007812 674.5 258 700 350 700 c 0
 441.333007812 700 511.833007812 674.5 561.5 623.5 c 0
 611.166992188 572.5 636 496.666992188 636 396 c 2
 636 295 l 2
 636 194.333007812 610.833007812 118.5 560.5 67.5 c 0
 510.166992188 16.5 439 -9 347 -9 c 0
 255.666992188 -9 185.166992188 16.5 135.5 67.5 c 0
497 127 m 0
 529.666992188 163 546 218.66796875 546 294.000976562 c 2
 546 391.000976562 l 2
 546 469.000976562 529.666992188 526.333984375 497 563 c 0
 464.333007812 599.666992188 415 618 349 618 c 0
 282.333007812 618 232.833007812 599.666992188 200.5 563 c 0
 168.166992188 526.333007812 152 469 152 391 c 2
 152 294 l 2
 152 218.666992188 168.166992188 163 200.5 127 c 0
 232.833007812 91 282.333007812 73 349 73 c 0
 415 73 464.333007812 91 497 127 c 0
196 878.000976562 m 1
 304 878.000976562 l 1
 415 750.000976562 l 1
 335 750.000976562 l 1
 196 878.000976562 l 1
EndSplineSet
EndChar

StartChar: Oacute
Encoding: 211 211 149
Width: 695
GlyphClass: 2
Flags: W
LayerCount: 2
Fore
SplineSet
135.5 67.5 m 0
 85.8330078125 118.5 61 194.333007812 61 295 c 2
 61 396 l 2
 61 496.666992188 86.1669921875 572.5 136.5 623.5 c 0
 186.833007812 674.5 258 700 350 700 c 0
 441.333007812 700 511.833007812 674.5 561.5 623.5 c 0
 611.166992188 572.5 636 496.666992188 636 396 c 2
 636 295 l 2
 636 194.333007812 610.833007812 118.5 560.5 67.5 c 0
 510.166992188 16.5 439 -9 347 -9 c 0
 255.666992188 -9 185.166992188 16.5 135.5 67.5 c 0
497 127 m 0
 529.666992188 163 546 218.66796875 546 294.000976562 c 2
 546 391.000976562 l 2
 546 469.000976562 529.666992188 526.333984375 497 563 c 0
 464.333007812 599.666992188 415 618 349 618 c 0
 282.333007812 618 232.833007812 599.666992188 200.5 563 c 0
 168.166992188 526.333007812 152 469 152 391 c 2
 152 294 l 2
 152 218.666992188 168.166992188 163 200.5 127 c 0
 232.833007812 91 282.333007812 73 349 73 c 0
 415 73 464.333007812 91 497 127 c 0
372 878.000976562 m 1
 479 878.000976562 l 1
 340 750.000976562 l 1
 260 750.000976562 l 1
 372 878.000976562 l 1
EndSplineSet
EndChar

StartChar: Ocircumflex
Encoding: 212 212 150
Width: 695
GlyphClass: 2
Flags: W
LayerCount: 2
Fore
SplineSet
135.5 67.5 m 0
 85.8330078125 118.5 61 194.333007812 61 295 c 2
 61 396 l 2
 61 496.666992188 86.1669921875 572.5 136.5 623.5 c 0
 186.833007812 674.5 258 700 350 700 c 0
 441.333007812 700 511.833007812 674.5 561.5 623.5 c 0
 611.166992188 572.5 636 496.666992188 636 396 c 2
 636 295 l 2
 636 194.333007812 610.833007812 118.5 560.5 67.5 c 0
 510.166992188 16.5 439 -9 347 -9 c 0
 255.666992188 -9 185.166992188 16.5 135.5 67.5 c 0
497 127 m 0
 529.666992188 163 546 218.66796875 546 294.000976562 c 2
 546 391.000976562 l 2
 546 469.000976562 529.666992188 526.333984375 497 563 c 0
 464.333007812 599.666992188 415 618 349 618 c 0
 282.333007812 618 232.833007812 599.666992188 200.5 563 c 0
 168.166992188 526.333007812 152 469 152 391 c 2
 152 294 l 2
 152 218.666992188 168.166992188 163 200.5 127 c 0
 232.833007812 91 282.333007812 73 349 73 c 0
 415 73 464.333007812 91 497 127 c 0
316 891.000976562 m 1
 381 891.000976562 l 1
 512 745.000976562 l 1
 432 745.000976562 l 1
 349 835.000976562 l 1
 265 745.000976562 l 1
 185 745.000976562 l 1
 316 891.000976562 l 1
EndSplineSet
EndChar

StartChar: Otilde
Encoding: 213 213 151
Width: 695
GlyphClass: 2
Flags: W
LayerCount: 2
Fore
SplineSet
135.5 67.5 m 0
 85.8330078125 118.5 61 194.333007812 61 295 c 2
 61 396 l 2
 61 496.666992188 86.1669921875 572.5 136.5 623.5 c 0
 186.833007812 674.5 258 700 350 700 c 0
 441.333007812 700 511.833007812 674.5 561.5 623.5 c 0
 611.166992188 572.5 636 496.666992188 636 396 c 2
 636 295 l 2
 636 194.333007812 610.833007812 118.5 560.5 67.5 c 0
 510.166992188 16.5 439 -9 347 -9 c 0
 255.666992188 -9 185.166992188 16.5 135.5 67.5 c 0
497 127 m 0
 529.666992188 163 546 218.66796875 546 294.000976562 c 2
 546 391.000976562 l 2
 546 469.000976562 529.666992188 526.333984375 497 563 c 0
 464.333007812 599.666992188 415 618 349 618 c 0
 282.333007812 618 232.833007812 599.666992188 200.5 563 c 0
 168.166992188 526.333007812 152 469 152 391 c 2
 152 294 l 2
 152 218.666992188 168.166992188 163 200.5 127 c 0
 232.833007812 91 282.333007812 73 349 73 c 0
 415 73 464.333007812 91 497 127 c 0
202 819.000976562 m 1
 215.333007812 831.66796875 228.329101562 841.000976562 240.99609375 847.000976562 c 0
 253.663085938 853.000976562 267.99609375 856.000976562 283.99609375 856.000976562 c 0
 297.330078125 856.000976562 309.163085938 854.333984375 319.49609375 851.000976562 c 0
 329.830078125 847.66796875 341.663085938 842.66796875 354.99609375 836.000976562 c 0
 367.663085938 830.000976562 378.49609375 825.500976562 387.49609375 822.500976562 c 0
 396.49609375 819.500976562 406.663085938 818.000976562 417.99609375 818.000976562 c 0
 433.329101562 818.000976562 446.49609375 821.000976562 457.49609375 827.000976562 c 0
 468.49609375 833.000976562 480.99609375 842.66796875 494.99609375 856.000976562 c 1
 494.99609375 784.000976562 l 1
 471.663085938 760.000976562 444.330078125 748.000976562 412.997070312 748.000976562 c 0
 398.997070312 748.000976562 386.830078125 749.66796875 376.497070312 753.000976562 c 0
 366.1640625 756.333984375 354.331054688 761.333984375 340.998046875 768.000976562 c 0
 327.665039062 774.000976562 316.83203125 778.500976562 308.499023438 781.500976562 c 0
 300.166015625 784.500976562 290.333007812 786.000976562 279 786.000976562 c 0
 264.333007812 786.000976562 251.5 783.000976562 240.5 777.000976562 c 0
 229.5 771.000976562 216.666992188 761.333984375 202 748.000976562 c 1
 202 819.000976562 l 1
EndSplineSet
EndChar

StartChar: Odieresis
Encoding: 214 214 152
Width: 695
GlyphClass: 2
Flags: W
LayerCount: 2
Fore
SplineSet
135.5 67.5 m 0
 85.8330078125 118.5 61 194.333007812 61 295 c 2
 61 396 l 2
 61 496.666992188 86.1669921875 572.5 136.5 623.5 c 0
 186.833007812 674.5 258 700 350 700 c 0
 441.333007812 700 511.833007812 674.5 561.5 623.5 c 0
 611.166992188 572.5 636 496.666992188 636 396 c 2
 636 295 l 2
 636 194.333007812 610.833007812 118.5 560.5 67.5 c 0
 510.166992188 16.5 439 -9 347 -9 c 0
 255.666992188 -9 185.166992188 16.5 135.5 67.5 c 0
497 127 m 0
 529.666992188 163 546 218.66796875 546 294.000976562 c 2
 546 391.000976562 l 2
 546 469.000976562 529.666992188 526.333984375 497 563 c 0
 464.333007812 599.666992188 415 618 349 618 c 0
 282.333007812 618 232.833007812 599.666992188 200.5 563 c 0
 168.166992188 526.333007812 152 469 152 391 c 2
 152 294 l 2
 152 218.666992188 168.166992188 163 200.5 127 c 0
 232.833007812 91 282.333007812 73 349 73 c 0
 415 73 464.333007812 91 497 127 c 0
199 854.000976562 m 1
 284 854.000976562 l 1
 284 759.000976562 l 1
 199 759.000976562 l 1
 199 854.000976562 l 1
414 854.000976562 m 1
 498 854.000976562 l 1
 498 759.000976562 l 1
 414 759.000976562 l 1
 414 854.000976562 l 1
EndSplineSet
EndChar

StartChar: multiply
Encoding: 215 215 153
Width: 509
GlyphClass: 2
Flags: W
LayerCount: 2
Fore
SplineSet
81 156 m 1
 201 277 l 1
 81 397 l 1
 135 451 l 1
 255 331 l 1
 375 451 l 1
 429 397 l 1
 309 277 l 1
 429 156 l 1
 375 102 l 1
 255 222 l 1
 135 102 l 1
 81 156 l 1
EndSplineSet
EndChar

StartChar: Oslash
Encoding: 216 216 154
Width: 695
GlyphClass: 2
Flags: W
LayerCount: 2
Fore
SplineSet
636 396 m 2
 635.999023438 295 l 2
 635.999023438 194.333007812 610.83203125 118.5 560.499023438 67.5 c 0
 510.166015625 16.5 438.999023438 -9 346.999023438 -9 c 0
 279.666015625 -9 223.333007812 5 178 33 c 1
 143 -20 l 1
 71 -20 l 1
 131 72 l 1
 84.3330078125 124 61 198.333007812 61 295 c 2
 61 396 l 2
 61 496.666992188 86.1669921875 572.5 136.5 623.5 c 0
 186.833007812 674.5 258 700 350 700 c 0
 418 700 474.333007812 686 519 658 c 1
 554 712 l 1
 625 712 l 1
 565 620 l 1
 612.333007812 568.666992188 636 494 636 396 c 2
182.999023438 150 m 1
 470.999023438 586 l 1
 440.999023438 607.333007812 400.33203125 618 348.999023438 618 c 0
 282.33203125 618 232.83203125 599.666992188 200.499023438 563 c 0
 168.166015625 526.333007812 151.999023438 469 151.999023438 391 c 2
 151.999023438 294 l 2
 151.999023438 232.666992188 162.33203125 184.666992188 182.999023438 150 c 1
545.999023438 391 m 2
 545.999023438 455 534.999023438 505 512.999023438 541 c 1
 224.999023438 105 l 1
 254.999023438 83.6669921875 296.33203125 73 348.999023438 73 c 0
 414.999023438 73 464.33203125 91 496.999023438 127 c 0
 529.666015625 163 545.999023438 218.666992188 545.999023438 294 c 2
 545.999023438 391 l 2
EndSplineSet
EndChar

StartChar: Ugrave
Encoding: 217 217 155
Width: 692
GlyphClass: 2
Flags: W
LayerCount: 2
Fore
SplineSet
144.5 60.5 m 0
 96.1669921875 104.833007812 72 167 72 247 c 2
 72 690 l 1
 163 690 l 1
 163 253 l 2
 163 133.666992188 224 74 346 74 c 0
 468 74 529 133.666992188 529 253 c 2
 529 690 l 1
 620 690 l 1
 620 247 l 2
 620 167 595.833007812 104.833007812 547.5 60.5 c 0
 499.166992188 16.1669921875 432 -6 346 -6 c 0
 260 -6 192.833007812 16.1669921875 144.5 60.5 c 0
193 878 m 1
 301 878 l 1
 412 750 l 1
 332 750 l 1
 193 878 l 1
EndSplineSet
EndChar

StartChar: Uacute
Encoding: 218 218 156
Width: 692
GlyphClass: 2
Flags: W
LayerCount: 2
Fore
SplineSet
144.5 60.5 m 0
 96.1669921875 104.833007812 72 167 72 247 c 2
 72 690 l 1
 163 690 l 1
 163 253 l 2
 163 133.666992188 224 74 346 74 c 0
 468 74 529 133.666992188 529 253 c 2
 529 690 l 1
 620 690 l 1
 620 247 l 2
 620 167 595.833007812 104.833007812 547.5 60.5 c 0
 499.166992188 16.1669921875 432 -6 346 -6 c 0
 260 -6 192.833007812 16.1669921875 144.5 60.5 c 0
379 878 m 1
 486 878 l 1
 347 750 l 1
 267 750 l 1
 379 878 l 1
EndSplineSet
EndChar

StartChar: Ucircumflex
Encoding: 219 219 157
Width: 692
GlyphClass: 2
Flags: W
LayerCount: 2
Fore
SplineSet
144.5 60.5 m 0
 96.1669921875 104.833007812 72 167 72 247 c 2
 72 690 l 1
 163 690 l 1
 163 253 l 2
 163 133.666992188 224 74 346 74 c 0
 468 74 529 133.666992188 529 253 c 2
 529 690 l 1
 620 690 l 1
 620 247 l 2
 620 167 595.833007812 104.833007812 547.5 60.5 c 0
 499.166992188 16.1669921875 432 -6 346 -6 c 0
 260 -6 192.833007812 16.1669921875 144.5 60.5 c 0
313 891 m 1
 378 891 l 1
 509 745 l 1
 429 745 l 1
 346 835 l 1
 262 745 l 1
 182 745 l 1
 313 891 l 1
EndSplineSet
EndChar

StartChar: Udieresis
Encoding: 220 220 158
Width: 692
GlyphClass: 2
Flags: W
LayerCount: 2
Fore
SplineSet
144.5 60.5 m 0
 96.1669921875 104.833007812 72 167 72 247 c 2
 72 690 l 1
 163 690 l 1
 163 253 l 2
 163 133.666992188 224 74 346 74 c 0
 468 74 529 133.666992188 529 253 c 2
 529 690 l 1
 620 690 l 1
 620 247 l 2
 620 167 595.833007812 104.833007812 547.5 60.5 c 0
 499.166992188 16.1669921875 432 -6 346 -6 c 0
 260 -6 192.833007812 16.1669921875 144.5 60.5 c 0
196 854 m 1
 281 854 l 1
 281 759 l 1
 196 759 l 1
 196 854 l 1
411 854 m 1
 495 854 l 1
 495 759 l 1
 411 759 l 1
 411 854 l 1
EndSplineSet
EndChar

StartChar: Yacute
Encoding: 221 221 159
Width: 580
GlyphClass: 2
Flags: W
LayerCount: 2
Fore
SplineSet
335 278 m 1
 335 0 l 1
 245 0 l 1
 245 279 l 1
 6 690 l 1
 108 690 l 1
 291 355 l 1
 472 690 l 1
 574 690 l 1
 335 278 l 1
323 878 m 1
 430 878 l 1
 291 750 l 1
 211 750 l 1
 323 878 l 1
EndSplineSet
EndChar

StartChar: Thorn
Encoding: 222 222 160
Width: 637
GlyphClass: 2
Flags: W
LayerCount: 2
Fore
SplineSet
545 515.5 m 0
 585.666992188 480.5 605.998046875 429 605.998046875 361 c 0
 605.998046875 294.333007812 585.831054688 243.333007812 545.498046875 208 c 0
 505.165039062 172.666992188 446.33203125 155 368.999023438 155 c 2
 162.999023438 155 l 1
 162.999023438 0 l 1
 71.9990234375 0 l 1
 71.9990234375 690 l 1
 162.999023438 690 l 1
 162.999023438 568 l 1
 368.999023438 568 l 2
 445.666015625 568 504.333007812 550.5 545 515.5 c 0
480.498046875 266 m 0
 504.165039062 286 515.998046875 317.333007812 515.998046875 360 c 0
 515.998046875 404.666992188 503.998046875 437 479.998046875 457 c 0
 455.998046875 477 417.998046875 487 365.998046875 487 c 2
 162.998046875 487 l 1
 162.998046875 236 l 1
 370.998046875 236 l 2
 420.331054688 236 456.831054688 246 480.498046875 266 c 0
EndSplineSet
EndChar

StartChar: germandbls
Encoding: 223 223 161
Width: 560
GlyphClass: 2
Flags: W
LayerCount: 2
Fore
SplineSet
277 71 m 1
 308 70.9990234375 l 2
 339.333984375 70.9990234375 363.166992188 75.83203125 379.5 85.4990234375 c 0
 395.833984375 95.166015625 407.166992188 110.833007812 413.5 132.5 c 0
 419.833007812 154.166992188 423 185 423 225 c 0
 423 265.666992188 419.666992188 297 413 319 c 0
 406.333007812 341 394.333007812 357 377 367 c 0
 359.666992188 377 334.333984375 382 301.000976562 382 c 2
 276.000976562 382 l 1
 276.000976562 457 l 1
 307.000976562 457 l 2
 345.000976562 457 372.333984375 463.5 389.000976562 476.5 c 0
 405.66796875 489.5 414.000976562 510 414.000976562 538 c 0
 414.000976562 567.333007812 404.000976562 588.666015625 384.000976562 601.999023438 c 0
 364.000976562 615.33203125 332.66796875 621.999023438 290.000976562 621.999023438 c 0
 241.333984375 621.999023438 206.166992188 612.83203125 184.5 594.499023438 c 0
 162.833007812 576.165039062 152 545.33203125 152 502 c 2
 152 0 l 1
 67 0 l 1
 67 493 l 2
 67 561.666992188 84.6669921875 613 120 647 c 0
 155.333007812 681 211 698 287 698 c 0
 355 698 407.333007812 684.5 444 657.5 c 0
 480.666992188 630.5 499 591.666992188 499 541 c 0
 499 511.666992188 493 487.5 481 468.5 c 0
 469 449.5 450.666992188 434.333007812 426 423 c 1
 457.333007812 410.333007812 478.833007812 389.666015625 490.5 361 c 0
 502.166992188 332.333007812 508 288 508 228 c 0
 508 169.333007812 502.166992188 123.5 490.5 90.5 c 0
 478.833007812 57.5 459 33.5 431 18.5 c 0
 403 3.5 363.666992188 -4 313 -4 c 2
 277 -4 l 1
 277 71 l 1
EndSplineSet
EndChar

StartChar: agrave
Encoding: 224 224 162
Width: 549
GlyphClass: 2
Flags: W
LayerCount: 2
Fore
SplineSet
425 471.5 m 0
 463 439.833007812 481.999023438 394 481.999023438 334 c 2
 481.999023438 0 l 1
 398.999023438 0 l 1
 398.999023438 58 l 1
 363.666015625 15.3330078125 307.999023438 -6 231.999023438 -6 c 0
 169.999023438 -6 122.83203125 7.1669921875 90.4990234375 33.5 c 0
 58.166015625 59.8330078125 41.9990234375 98 41.9990234375 148 c 0
 41.9990234375 196 58.666015625 232.833007812 91.9990234375 258.5 c 0
 125.33203125 284.166992188 173.999023438 297 237.999023438 297 c 2
 396.999023438 297 l 1
 396.999023438 332 l 2
 396.999023438 409.333007812 351.999023438 448 261.999023438 448 c 0
 222.666015625 448 192.833007812 440.666992188 172.5 426 c 0
 152.166992188 411.333007812 142 390.666015625 142 364 c 2
 142 361 l 1
 59 361 l 1
 59 364 l 2
 59 412 77 449.833007812 113 477.5 c 0
 149 505.166992188 198.333007812 519 261 519 c 0
 332.333007812 519 387 503.166992188 425 471.5 c 0
360.999023438 95 m 0
 384.999023438 116.333007812 396.998046875 149.000976562 396.998046875 193.000976562 c 2
 396.998046875 233.000976562 l 1
 251.998046875 233.000976562 l 2
 208.665039062 233.000976562 176.83203125 226.16796875 156.499023438 212.500976562 c 0
 136.166015625 198.833984375 125.999023438 177.666992188 125.999023438 149 c 0
 125.999023438 119.666992188 135.999023438 98 155.999023438 84 c 0
 175.999023438 70 206.999023438 63 248.999023438 63 c 0
 299.666015625 63 336.999023438 73.6669921875 360.999023438 95 c 0
110.998046875 700.000976562 m 1
 218.998046875 700.000976562 l 1
 329.998046875 572.000976562 l 1
 249.998046875 572.000976562 l 1
 110.998046875 700.000976562 l 1
EndSplineSet
EndChar

StartChar: aacute
Encoding: 225 225 163
Width: 549
GlyphClass: 2
Flags: W
LayerCount: 2
Fore
SplineSet
425 471.5 m 0
 463 439.833007812 481.999023438 394 481.999023438 334 c 2
 481.999023438 0 l 1
 398.999023438 0 l 1
 398.999023438 58 l 1
 363.666015625 15.3330078125 307.999023438 -6 231.999023438 -6 c 0
 169.999023438 -6 122.83203125 7.1669921875 90.4990234375 33.5 c 0
 58.166015625 59.8330078125 41.9990234375 98 41.9990234375 148 c 0
 41.9990234375 196 58.666015625 232.833007812 91.9990234375 258.5 c 0
 125.33203125 284.166992188 173.999023438 297 237.999023438 297 c 2
 396.999023438 297 l 1
 396.999023438 332 l 2
 396.999023438 409.333007812 351.999023438 448 261.999023438 448 c 0
 222.666015625 448 192.833007812 440.666992188 172.5 426 c 0
 152.166992188 411.333007812 142 390.666015625 142 364 c 2
 142 361 l 1
 59 361 l 1
 59 364 l 2
 59 412 77 449.833007812 113 477.5 c 0
 149 505.166992188 198.333007812 519 261 519 c 0
 332.333007812 519 387 503.166992188 425 471.5 c 0
360.999023438 95 m 0
 384.999023438 116.333007812 396.998046875 149.000976562 396.998046875 193.000976562 c 2
 396.998046875 233.000976562 l 1
 251.998046875 233.000976562 l 2
 208.665039062 233.000976562 176.83203125 226.16796875 156.499023438 212.500976562 c 0
 136.166015625 198.833984375 125.999023438 177.666992188 125.999023438 149 c 0
 125.999023438 119.666992188 135.999023438 98 155.999023438 84 c 0
 175.999023438 70 206.999023438 63 248.999023438 63 c 0
 299.666015625 63 336.999023438 73.6669921875 360.999023438 95 c 0
291.998046875 700.000976562 m 1
 398.998046875 700.000976562 l 1
 259.998046875 572.000976562 l 1
 179.998046875 572.000976562 l 1
 291.998046875 700.000976562 l 1
EndSplineSet
EndChar

StartChar: acircumflex
Encoding: 226 226 164
Width: 549
GlyphClass: 2
Flags: W
LayerCount: 2
Fore
SplineSet
425 471.5 m 0
 463 439.833007812 481.999023438 394 481.999023438 334 c 2
 481.999023438 0 l 1
 398.999023438 0 l 1
 398.999023438 58 l 1
 363.666015625 15.3330078125 307.999023438 -6 231.999023438 -6 c 0
 169.999023438 -6 122.83203125 7.1669921875 90.4990234375 33.5 c 0
 58.166015625 59.8330078125 41.9990234375 98 41.9990234375 148 c 0
 41.9990234375 196 58.666015625 232.833007812 91.9990234375 258.5 c 0
 125.33203125 284.166992188 173.999023438 297 237.999023438 297 c 2
 396.999023438 297 l 1
 396.999023438 332 l 2
 396.999023438 409.333007812 351.999023438 448 261.999023438 448 c 0
 222.666015625 448 192.833007812 440.666992188 172.5 426 c 0
 152.166992188 411.333007812 142 390.666015625 142 364 c 2
 142 361 l 1
 59 361 l 1
 59 364 l 2
 59 412 77 449.833007812 113 477.5 c 0
 149 505.166992188 198.333007812 519 261 519 c 0
 332.333007812 519 387 503.166992188 425 471.5 c 0
360.999023438 95 m 0
 384.999023438 116.333007812 396.998046875 149.000976562 396.998046875 193.000976562 c 2
 396.998046875 233.000976562 l 1
 251.998046875 233.000976562 l 2
 208.665039062 233.000976562 176.83203125 226.16796875 156.499023438 212.500976562 c 0
 136.166015625 198.833984375 125.999023438 177.666992188 125.999023438 149 c 0
 125.999023438 119.666992188 135.999023438 98 155.999023438 84 c 0
 175.999023438 70 206.999023438 63 248.999023438 63 c 0
 299.666015625 63 336.999023438 73.6669921875 360.999023438 95 c 0
230.998046875 713.000976562 m 1
 295.998046875 713.000976562 l 1
 426.998046875 567.000976562 l 1
 346.998046875 567.000976562 l 1
 263.998046875 657.000976562 l 1
 179.998046875 567.000976562 l 1
 99.998046875 567.000976562 l 1
 230.998046875 713.000976562 l 1
EndSplineSet
EndChar

StartChar: atilde
Encoding: 227 227 165
Width: 549
GlyphClass: 2
Flags: W
LayerCount: 2
Fore
SplineSet
425 471.5 m 0
 463 439.833007812 481.999023438 394 481.999023438 334 c 2
 481.999023438 0 l 1
 398.999023438 0 l 1
 398.999023438 58 l 1
 363.666015625 15.3330078125 307.999023438 -6 231.999023438 -6 c 0
 169.999023438 -6 122.83203125 7.1669921875 90.4990234375 33.5 c 0
 58.166015625 59.8330078125 41.9990234375 98 41.9990234375 148 c 0
 41.9990234375 196 58.666015625 232.833007812 91.9990234375 258.5 c 0
 125.33203125 284.166992188 173.999023438 297 237.999023438 297 c 2
 396.999023438 297 l 1
 396.999023438 332 l 2
 396.999023438 409.333007812 351.999023438 448 261.999023438 448 c 0
 222.666015625 448 192.833007812 440.666992188 172.5 426 c 0
 152.166992188 411.333007812 142 390.666015625 142 364 c 2
 142 361 l 1
 59 361 l 1
 59 364 l 2
 59 412 77 449.833007812 113 477.5 c 0
 149 505.166992188 198.333007812 519 261 519 c 0
 332.333007812 519 387 503.166992188 425 471.5 c 0
360.999023438 95 m 0
 384.999023438 116.333007812 396.998046875 149.000976562 396.998046875 193.000976562 c 2
 396.998046875 233.000976562 l 1
 251.998046875 233.000976562 l 2
 208.665039062 233.000976562 176.83203125 226.16796875 156.499023438 212.500976562 c 0
 136.166015625 198.833984375 125.999023438 177.666992188 125.999023438 149 c 0
 125.999023438 119.666992188 135.999023438 98 155.999023438 84 c 0
 175.999023438 70 206.999023438 63 248.999023438 63 c 0
 299.666015625 63 336.999023438 73.6669921875 360.999023438 95 c 0
116.998046875 641.000976562 m 1
 130.331054688 653.66796875 143.331054688 663.000976562 155.998046875 669.000976562 c 0
 168.665039062 675.000976562 182.998046875 678.000976562 198.998046875 678.000976562 c 0
 212.331054688 678.000976562 224.1640625 676.333984375 234.497070312 673.000976562 c 0
 244.830078125 669.66796875 256.663085938 664.66796875 269.99609375 658.000976562 c 0
 282.663085938 652.000976562 293.49609375 647.500976562 302.49609375 644.500976562 c 0
 311.49609375 641.500976562 321.663085938 640.000976562 332.99609375 640.000976562 c 0
 348.329101562 640.000976562 361.49609375 643.000976562 372.49609375 649.000976562 c 0
 383.49609375 655.000976562 395.99609375 664.66796875 409.99609375 678.000976562 c 1
 409.99609375 606.000976562 l 1
 386.663085938 582.000976562 359.330078125 570.000976562 327.997070312 570.000976562 c 0
 313.997070312 570.000976562 301.830078125 571.66796875 291.497070312 575.000976562 c 0
 281.1640625 578.333984375 269.331054688 583.333984375 255.998046875 590.000976562 c 0
 242.6640625 596.000976562 231.831054688 600.500976562 223.498046875 603.500976562 c 0
 215.1640625 606.500976562 205.331054688 608.000976562 193.998046875 608.000976562 c 0
 179.331054688 608.000976562 166.498046875 605.000976562 155.498046875 599.000976562 c 0
 144.498046875 593.000976562 131.665039062 583.333984375 116.998046875 570.000976562 c 1
 116.998046875 641.000976562 l 1
EndSplineSet
EndChar

StartChar: adieresis
Encoding: 228 228 166
Width: 549
GlyphClass: 2
Flags: W
LayerCount: 2
Fore
SplineSet
425 471.5 m 0
 463 439.833007812 481.999023438 394 481.999023438 334 c 2
 481.999023438 0 l 1
 398.999023438 0 l 1
 398.999023438 58 l 1
 363.666015625 15.3330078125 307.999023438 -6 231.999023438 -6 c 0
 169.999023438 -6 122.83203125 7.1669921875 90.4990234375 33.5 c 0
 58.166015625 59.8330078125 41.9990234375 98 41.9990234375 148 c 0
 41.9990234375 196 58.666015625 232.833007812 91.9990234375 258.5 c 0
 125.33203125 284.166992188 173.999023438 297 237.999023438 297 c 2
 396.999023438 297 l 1
 396.999023438 332 l 2
 396.999023438 409.333007812 351.999023438 448 261.999023438 448 c 0
 222.666015625 448 192.833007812 440.666992188 172.5 426 c 0
 152.166992188 411.333007812 142 390.666015625 142 364 c 2
 142 361 l 1
 59 361 l 1
 59 364 l 2
 59 412 77 449.833007812 113 477.5 c 0
 149 505.166992188 198.333007812 519 261 519 c 0
 332.333007812 519 387 503.166992188 425 471.5 c 0
360.999023438 95 m 0
 384.999023438 116.333007812 396.998046875 149.000976562 396.998046875 193.000976562 c 2
 396.998046875 233.000976562 l 1
 251.998046875 233.000976562 l 2
 208.665039062 233.000976562 176.83203125 226.16796875 156.499023438 212.500976562 c 0
 136.166015625 198.833984375 125.999023438 177.666992188 125.999023438 149 c 0
 125.999023438 119.666992188 135.999023438 98 155.999023438 84 c 0
 175.999023438 70 206.999023438 63 248.999023438 63 c 0
 299.666015625 63 336.999023438 73.6669921875 360.999023438 95 c 0
113.998046875 676.000976562 m 1
 198.998046875 676.000976562 l 1
 198.998046875 581.000976562 l 1
 113.998046875 581.000976562 l 1
 113.998046875 676.000976562 l 1
328.998046875 676.000976562 m 1
 412.998046875 676.000976562 l 1
 412.998046875 581.000976562 l 1
 328.998046875 581.000976562 l 1
 328.998046875 676.000976562 l 1
EndSplineSet
EndChar

StartChar: aring
Encoding: 229 229 167
Width: 549
GlyphClass: 2
Flags: W
LayerCount: 2
Fore
SplineSet
425 471.5 m 0
 463 439.833007812 481.999023438 394 481.999023438 334 c 2
 481.999023438 0 l 1
 398.999023438 0 l 1
 398.999023438 58 l 1
 363.666015625 15.3330078125 307.999023438 -6 231.999023438 -6 c 0
 169.999023438 -6 122.83203125 7.1669921875 90.4990234375 33.5 c 0
 58.166015625 59.8330078125 41.9990234375 98 41.9990234375 148 c 0
 41.9990234375 196 58.666015625 232.833007812 91.9990234375 258.5 c 0
 125.33203125 284.166992188 173.999023438 297 237.999023438 297 c 2
 396.999023438 297 l 1
 396.999023438 332 l 2
 396.999023438 409.333007812 351.999023438 448 261.999023438 448 c 0
 222.666015625 448 192.833007812 440.666992188 172.5 426 c 0
 152.166992188 411.333007812 142 390.666015625 142 364 c 2
 142 361 l 1
 59 361 l 1
 59 364 l 2
 59 412 77 449.833007812 113 477.5 c 0
 149 505.166992188 198.333007812 519 261 519 c 0
 332.333007812 519 387 503.166992188 425 471.5 c 0
360.999023438 95 m 0
 384.999023438 116.333007812 396.998046875 149.000976562 396.998046875 193.000976562 c 2
 396.998046875 233.000976562 l 1
 251.998046875 233.000976562 l 2
 208.665039062 233.000976562 176.83203125 226.16796875 156.499023438 212.500976562 c 0
 136.166015625 198.833984375 125.999023438 177.666992188 125.999023438 149 c 0
 125.999023438 119.666992188 135.999023438 98 155.999023438 84 c 0
 175.999023438 70 206.999023438 63 248.999023438 63 c 0
 299.666015625 63 336.999023438 73.6669921875 360.999023438 95 c 0
196.498046875 588.500976562 m 0
 178.831054688 606.16796875 169.998046875 628.66796875 169.998046875 656.000976562 c 0
 169.998046875 683.333984375 178.831054688 706.000976562 196.498046875 724.000976562 c 0
 214.165039062 742.000976562 236.665039062 751.000976562 263.998046875 751.000976562 c 0
 290.665039062 751.000976562 312.998046875 742.000976562 330.998046875 724.000976562 c 0
 348.998046875 706.000976562 357.998046875 683.333984375 357.998046875 656.000976562 c 0
 357.998046875 629.333984375 349.165039062 607.000976562 331.498046875 589.000976562 c 0
 313.831054688 571.000976562 291.331054688 562.000976562 263.998046875 562.000976562 c 0
 236.665039062 562.000976562 214.165039062 570.833984375 196.498046875 588.500976562 c 0
299.998046875 619.000976562 m 0
 309.331054688 629.000976562 313.998046875 641.333984375 313.998046875 656.000976562 c 0
 313.998046875 671.333984375 309.331054688 683.833984375 299.998046875 693.500976562 c 0
 290.665039062 703.16796875 278.665039062 708.000976562 263.998046875 708.000976562 c 0
 249.331054688 708.000976562 237.331054688 703.16796875 227.998046875 693.500976562 c 0
 218.665039062 683.833984375 213.998046875 671.333984375 213.998046875 656.000976562 c 0
 213.998046875 641.333984375 218.665039062 629.000976562 227.998046875 619.000976562 c 0
 237.331054688 609.000976562 249.331054688 604.000976562 263.998046875 604.000976562 c 0
 278.665039062 604.000976562 290.665039062 609.000976562 299.998046875 619.000976562 c 0
EndSplineSet
EndChar

StartChar: ae
Encoding: 230 230 168
Width: 901
GlyphClass: 2
Flags: W
LayerCount: 2
Fore
SplineSet
482 235 m 1
 482 231.000976562 l 2
 482 120.333984375 533.666992188 65.0009765625 637 65.0009765625 c 0
 675.66796875 65.0009765625 705.834960938 74.0009765625 727.5 92.0009765625 c 0
 749.166992188 110.000976562 760.666992188 133.333984375 762 162.000976562 c 2
 762 165.000976562 l 1
 846 165.000976562 l 1
 846 161.000976562 l 2
 845.333007812 129.66796875 836.666015625 101.000976562 819.999023438 75.0009765625 c 0
 803.33203125 49.0009765625 779.33203125 28.5009765625 747.999023438 13.5009765625 c 0
 716.666015625 -1.4990234375 679.666015625 -8.9990234375 636.999023438 -8.9990234375 c 0
 548.33203125 -8.9990234375 483.33203125 19.66796875 441.999023438 77.0009765625 c 1
 402.666015625 21.0009765625 336.999023438 -6.9990234375 244.999023438 -6.9990234375 c 0
 180.999023438 -6.9990234375 131.166015625 6.66796875 95.4990234375 34.0009765625 c 0
 59.83203125 61.333984375 41.9990234375 99.6669921875 41.9990234375 149 c 0
 41.9990234375 197 58.666015625 233.833007812 91.9990234375 259.5 c 0
 125.33203125 285.166992188 173.999023438 298 237.999023438 298 c 2
 396.999023438 298 l 1
 396.999023438 332 l 2
 396.999023438 409.333007812 351.999023438 448 261.999023438 448 c 0
 222.666015625 448 192.833007812 440.666992188 172.5 426 c 0
 152.166992188 411.333007812 142 390.666015625 142 364 c 2
 142 361 l 1
 59 361 l 1
 59 364 l 2
 59 412 77 449.833007812 113 477.5 c 0
 149 505.166992188 198.333007812 519 261 519 c 0
 348.333984375 519 410.666992188 495.333007812 448 448 c 1
 467.333007812 472 491.833007812 490.333007812 521.5 503 c 0
 551.166992188 515.666992188 585 522 623 522 c 0
 693.666992188 522 749 502.5 789 463.5 c 0
 829 424.5 849 368 849 294 c 2
 849 235 l 1
 482 235 l 1
522.5 410.500976562 m 0
 498.166992188 386.16796875 484.666015625 349.000976562 481.999023438 299.000976562 c 1
 763.999023438 299.000976562 l 1
 763.999023438 307.000976562 l 2
 763.999023438 354.333984375 751.999023438 389.500976562 727.999023438 412.500976562 c 0
 703.999023438 435.500976562 669.33203125 447.000976562 623.999023438 447.000976562 c 0
 580.665039062 447.000976562 546.83203125 434.833984375 522.5 410.500976562 c 0
360.999023438 96.5009765625 m 0
 384.999023438 118.833984375 397 151.668945312 397 195.001953125 c 2
 397 235.001953125 l 1
 252 235.001953125 l 2
 209.333007812 235.001953125 177.666015625 228.168945312 156.999023438 214.501953125 c 0
 136.33203125 200.834960938 125.999023438 179.334960938 125.999023438 150.001953125 c 0
 125.999023438 121.334960938 136.666015625 99.66796875 157.999023438 85.0009765625 c 0
 179.33203125 70.333984375 211.33203125 63.0009765625 253.999023438 63.0009765625 c 0
 301.33203125 63.0009765625 336.999023438 74.16796875 360.999023438 96.5009765625 c 0
EndSplineSet
EndChar

StartChar: ccedilla
Encoding: 231 231 169
Width: 553
GlyphClass: 2
Flags: W
LayerCount: 2
Fore
SplineSet
418 331 m 1
 418.000976562 336.000976562 l 2
 418.000976562 370.66796875 406.66796875 397.66796875 384.000976562 417.000976562 c 0
 361.333984375 436.333984375 329.000976562 446.000976562 287.000976562 446.000976562 c 0
 187.000976562 446.000976562 137.000976562 390.66796875 137.000976562 280.000976562 c 2
 137.000976562 233.000976562 l 2
 137.000976562 121.66796875 187.000976562 66.0009765625 287.000976562 66.0009765625 c 0
 329.000976562 66.0009765625 361.333984375 75.66796875 384.000976562 95.0009765625 c 0
 406.66796875 114.333984375 418.000976562 141.000976562 418.000976562 175.000976562 c 2
 418.000976562 179.000976562 l 1
 501.000976562 179.000976562 l 1
 501.000976562 175.000976562 l 2
 501.000976562 126.333984375 486.833984375 86.1669921875 458.500976562 54.5 c 0
 430.16796875 22.8330078125 390.66796875 3 340.000976562 -5 c 1
 275.000976562 -152 l 1
 189.000976562 -152 l 1
 263.000976562 -8 l 1
 196.333984375 -4 144.500976562 18.3330078125 107.500976562 59 c 0
 70.5009765625 99.6669921875 52.0009765625 157 52.0009765625 231 c 2
 52.0009765625 282 l 2
 52.0009765625 360 72.66796875 419.5 114.000976562 460.5 c 0
 155.333984375 501.5 212.666992188 522 286 522 c 0
 353.333007812 522 406 505.5 444 472.5 c 0
 482 439.5 501 394 501 336 c 2
 501 331 l 1
 418 331 l 1
EndSplineSet
EndChar

StartChar: egrave
Encoding: 232 232 170
Width: 557
GlyphClass: 2
Flags: W
LayerCount: 2
Fore
SplineSet
137 235 m 1
 136.999023438 231 l 2
 136.999023438 120.333007812 188.666015625 65 291.999023438 65 c 0
 331.33203125 65 361.83203125 74.1669921875 383.499023438 92.5 c 0
 405.166015625 110.833007812 416.333007812 134 417 162 c 2
 417 165 l 1
 501 165 l 1
 501 161 l 2
 500.333007812 129 491.5 100.166992188 474.5 74.5 c 0
 457.5 48.8330078125 433.166992188 28.5 401.5 13.5 c 0
 369.833007812 -1.5 332.666015625 -9 290 -9 c 0
 215.333007812 -9 157 11.8330078125 115 53.5 c 0
 73 95.1669921875 52 156 52 236 c 2
 52 277 l 2
 52 355.666992188 72 416.166992188 112 458.5 c 0
 152 500.833007812 207.666992188 522 279 522 c 0
 349 522 404 502.5 444 463.5 c 0
 484 424.5 504 368.333007812 504 295 c 2
 504 235 l 1
 137 235 l 1
177.499023438 410.5 m 0
 153.166015625 386.166992188 139.665039062 349 136.998046875 299 c 1
 418.998046875 299 l 1
 418.998046875 308 l 2
 418.998046875 354.666992188 406.831054688 389.5 382.498046875 412.5 c 0
 358.165039062 435.5 323.665039062 447 278.998046875 447 c 0
 235.665039062 447 201.83203125 434.833007812 177.499023438 410.5 c 0
125.998046875 700 m 1
 233.998046875 700 l 1
 344.998046875 572 l 1
 264.998046875 572 l 1
 125.998046875 700 l 1
EndSplineSet
EndChar

StartChar: eacute
Encoding: 233 233 171
Width: 557
GlyphClass: 2
Flags: W
LayerCount: 2
Fore
SplineSet
137 235 m 1
 136.999023438 231 l 2
 136.999023438 120.333007812 188.666015625 65 291.999023438 65 c 0
 331.33203125 65 361.83203125 74.1669921875 383.499023438 92.5 c 0
 405.166015625 110.833007812 416.333007812 134 417 162 c 2
 417 165 l 1
 501 165 l 1
 501 161 l 2
 500.333007812 129 491.5 100.166992188 474.5 74.5 c 0
 457.5 48.8330078125 433.166992188 28.5 401.5 13.5 c 0
 369.833007812 -1.5 332.666015625 -9 290 -9 c 0
 215.333007812 -9 157 11.8330078125 115 53.5 c 0
 73 95.1669921875 52 156 52 236 c 2
 52 277 l 2
 52 355.666992188 72 416.166992188 112 458.5 c 0
 152 500.833007812 207.666992188 522 279 522 c 0
 349 522 404 502.5 444 463.5 c 0
 484 424.5 504 368.333007812 504 295 c 2
 504 235 l 1
 137 235 l 1
177.499023438 410.5 m 0
 153.166015625 386.166992188 139.665039062 349 136.998046875 299 c 1
 418.998046875 299 l 1
 418.998046875 308 l 2
 418.998046875 354.666992188 406.831054688 389.5 382.498046875 412.5 c 0
 358.165039062 435.5 323.665039062 447 278.998046875 447 c 0
 235.665039062 447 201.83203125 434.833007812 177.499023438 410.5 c 0
304.998046875 700 m 1
 411.998046875 700 l 1
 272.998046875 572 l 1
 192.998046875 572 l 1
 304.998046875 700 l 1
EndSplineSet
EndChar

StartChar: ecircumflex
Encoding: 234 234 172
Width: 557
GlyphClass: 2
Flags: W
LayerCount: 2
Fore
SplineSet
137 235 m 1
 136.999023438 231 l 2
 136.999023438 120.333007812 188.666015625 65 291.999023438 65 c 0
 331.33203125 65 361.83203125 74.1669921875 383.499023438 92.5 c 0
 405.166015625 110.833007812 416.333007812 134 417 162 c 2
 417 165 l 1
 501 165 l 1
 501 161 l 2
 500.333007812 129 491.5 100.166992188 474.5 74.5 c 0
 457.5 48.8330078125 433.166992188 28.5 401.5 13.5 c 0
 369.833007812 -1.5 332.666015625 -9 290 -9 c 0
 215.333007812 -9 157 11.8330078125 115 53.5 c 0
 73 95.1669921875 52 156 52 236 c 2
 52 277 l 2
 52 355.666992188 72 416.166992188 112 458.5 c 0
 152 500.833007812 207.666992188 522 279 522 c 0
 349 522 404 502.5 444 463.5 c 0
 484 424.5 504 368.333007812 504 295 c 2
 504 235 l 1
 137 235 l 1
177.499023438 410.5 m 0
 153.166015625 386.166992188 139.665039062 349 136.998046875 299 c 1
 418.998046875 299 l 1
 418.998046875 308 l 2
 418.998046875 354.666992188 406.831054688 389.5 382.498046875 412.5 c 0
 358.165039062 435.5 323.665039062 447 278.998046875 447 c 0
 235.665039062 447 201.83203125 434.833007812 177.499023438 410.5 c 0
245.998046875 713 m 1
 310.998046875 713 l 1
 441.998046875 567 l 1
 361.998046875 567 l 1
 278.998046875 657 l 1
 194.998046875 567 l 1
 114.998046875 567 l 1
 245.998046875 713 l 1
EndSplineSet
EndChar

StartChar: edieresis
Encoding: 235 235 173
Width: 557
GlyphClass: 2
Flags: W
LayerCount: 2
Fore
SplineSet
137 235 m 1
 136.999023438 231 l 2
 136.999023438 120.333007812 188.666015625 65 291.999023438 65 c 0
 331.33203125 65 361.83203125 74.1669921875 383.499023438 92.5 c 0
 405.166015625 110.833007812 416.333007812 134 417 162 c 2
 417 165 l 1
 501 165 l 1
 501 161 l 2
 500.333007812 129 491.5 100.166992188 474.5 74.5 c 0
 457.5 48.8330078125 433.166992188 28.5 401.5 13.5 c 0
 369.833007812 -1.5 332.666015625 -9 290 -9 c 0
 215.333007812 -9 157 11.8330078125 115 53.5 c 0
 73 95.1669921875 52 156 52 236 c 2
 52 277 l 2
 52 355.666992188 72 416.166992188 112 458.5 c 0
 152 500.833007812 207.666992188 522 279 522 c 0
 349 522 404 502.5 444 463.5 c 0
 484 424.5 504 368.333007812 504 295 c 2
 504 235 l 1
 137 235 l 1
177.499023438 410.5 m 0
 153.166015625 386.166992188 139.665039062 349 136.998046875 299 c 1
 418.998046875 299 l 1
 418.998046875 308 l 2
 418.998046875 354.666992188 406.831054688 389.5 382.498046875 412.5 c 0
 358.165039062 435.5 323.665039062 447 278.998046875 447 c 0
 235.665039062 447 201.83203125 434.833007812 177.499023438 410.5 c 0
128.998046875 676 m 1
 213.998046875 676 l 1
 213.998046875 581 l 1
 128.998046875 581 l 1
 128.998046875 676 l 1
343.998046875 676 m 1
 427.998046875 676 l 1
 427.998046875 581 l 1
 343.998046875 581 l 1
 343.998046875 676 l 1
EndSplineSet
EndChar

StartChar: igrave
Encoding: 236 236 174
Width: 234
GlyphClass: 2
Flags: W
LayerCount: 2
Fore
SplineSet
74 512 m 1
 159 512 l 1
 159 0 l 1
 74 0 l 1
 74 512 l 1
-36 700 m 1
 72 700 l 1
 183 572 l 1
 103 572 l 1
 -36 700 l 1
EndSplineSet
EndChar

StartChar: iacute
Encoding: 237 237 175
Width: 234
GlyphClass: 2
Flags: W
LayerCount: 2
Fore
SplineSet
74 512 m 1
 159 512 l 1
 159 0 l 1
 74 0 l 1
 74 512 l 1
160 700 m 1
 267 700 l 1
 128 572 l 1
 48 572 l 1
 160 700 l 1
EndSplineSet
EndChar

StartChar: icircumflex
Encoding: 238 238 176
Width: 234
GlyphClass: 2
Flags: W
LayerCount: 2
Fore
SplineSet
74 512 m 1
 159 512 l 1
 159 0 l 1
 74 0 l 1
 74 512 l 1
84 713 m 1
 149 713 l 1
 280 567 l 1
 200 567 l 1
 117 657 l 1
 33 567 l 1
 -47 567 l 1
 84 713 l 1
EndSplineSet
EndChar

StartChar: idieresis
Encoding: 239 239 177
Width: 234
GlyphClass: 2
Flags: W
LayerCount: 2
Fore
SplineSet
74 512 m 1
 159 512 l 1
 159 0 l 1
 74 0 l 1
 74 512 l 1
-33 676 m 1
 52 676 l 1
 52 581 l 1
 -33 581 l 1
 -33 676 l 1
182 676 m 1
 266 676 l 1
 266 581 l 1
 182 581 l 1
 182 676 l 1
EndSplineSet
EndChar

StartChar: eth
Encoding: 240 240 178
Width: 548
GlyphClass: 2
Flags: W
LayerCount: 2
Fore
SplineSet
476 364 m 0
 489.333007812 328.666992188 496 290.331054688 496 248.998046875 c 2
 496 219.998046875 l 2
 496 146.665039062 476.333007812 89.83203125 437 49.4990234375 c 0
 397.666992188 9.166015625 343 -11.0009765625 273 -11.0009765625 c 0
 203.666992188 -11.0009765625 149.5 8.9990234375 110.5 48.9990234375 c 0
 71.5 88.9990234375 52 145.33203125 52 217.999023438 c 2
 52 246.999023438 l 2
 52 316.999023438 70.5 371.999023438 107.5 411.999023438 c 0
 144.5 451.999023438 195.333007812 471.999023438 260 471.999023438 c 0
 285.333007812 471.999023438 307 467.999023438 325 459.999023438 c 1
 253 548.999023438 l 1
 134 516.999023438 l 1
 117 578.999023438 l 1
 208 602.999023438 l 1
 136 691.999023438 l 1
 234 691.999023438 l 1
 289 623.999023438 l 1
 413 656.999023438 l 1
 430 595.999023438 l 1
 333 569.999023438 l 1
 407 478.999023438 l 2
 439.666992188 437.666015625 462.666992188 399.333007812 476 364 c 0
412 246.997070312 m 2
 412 296.330078125 400.33203125 333.830078125 376.999023438 359.497070312 c 0
 353.666015625 385.1640625 319.333007812 397.997070312 274 397.997070312 c 0
 228.666992188 397.997070312 194.166992188 385.1640625 170.5 359.497070312 c 0
 146.833007812 333.830078125 135 296.663085938 135 247.997070312 c 2
 135 218.997070312 l 2
 135 168.997070312 146.833007812 130.997070312 170.5 104.997070312 c 0
 194.166992188 78.9970703125 228.666992188 65.9970703125 274 65.9970703125 c 0
 319.333984375 65.9970703125 353.666992188 78.9970703125 377 104.997070312 c 0
 400.333007812 130.997070312 412 168.997070312 412 218.997070312 c 2
 412 246.997070312 l 2
EndSplineSet
EndChar

StartChar: ntilde
Encoding: 241 241 179
Width: 572
GlyphClass: 2
Flags: W
LayerCount: 2
Fore
SplineSet
67 512 m 1
 151.000976562 511.999023438 l 1
 151.000976562 442.999023438 l 1
 169.000976562 467.666015625 192.000976562 486.333007812 220.000976562 499 c 0
 248.000976562 511.666992188 279.333984375 518 314.000976562 518 c 0
 374.66796875 518 421.66796875 500.666992188 455.000976562 466 c 0
 488.333984375 431.333007812 505.000976562 383.333007812 505.000976562 322 c 2
 505.000976562 0 l 1
 420.000976562 0 l 1
 420.000976562 311 l 2
 420.000976562 354.333007812 409.16796875 387 387.500976562 409 c 0
 365.833984375 431 334.333984375 442 293.000976562 442 c 0
 250.333984375 442 216.166992188 429.333007812 190.5 404 c 0
 164.833007812 378.666992188 152 344 152 300 c 2
 152 0 l 1
 67 0 l 1
 67 512 l 1
140.000976562 640.999023438 m 1
 153.333984375 653.666015625 166.33203125 662.999023438 178.999023438 668.999023438 c 0
 191.666015625 674.999023438 205.999023438 677.999023438 221.999023438 677.999023438 c 0
 235.33203125 677.999023438 247.165039062 676.33203125 257.498046875 672.999023438 c 0
 267.83203125 669.666015625 279.665039062 664.666015625 292.998046875 657.999023438 c 0
 305.665039062 651.999023438 316.498046875 647.499023438 325.498046875 644.499023438 c 0
 334.498046875 641.499023438 344.665039062 639.999023438 355.998046875 639.999023438 c 0
 371.331054688 639.999023438 384.498046875 642.999023438 395.498046875 648.999023438 c 0
 406.498046875 654.999023438 418.998046875 664.666015625 432.998046875 677.999023438 c 1
 432.998046875 605.999023438 l 1
 409.665039062 581.999023438 382.33203125 569.999023438 350.999023438 569.999023438 c 0
 336.999023438 569.999023438 324.83203125 571.666015625 314.499023438 574.999023438 c 0
 304.166015625 578.33203125 292.333007812 583.33203125 279 589.999023438 c 0
 265.666992188 595.999023438 254.833984375 600.499023438 246.500976562 603.499023438 c 0
 238.166992188 606.499023438 228.333984375 607.999023438 217.000976562 607.999023438 c 0
 202.333984375 607.999023438 189.500976562 604.999023438 178.500976562 598.999023438 c 0
 167.500976562 592.999023438 154.66796875 583.33203125 140.000976562 569.999023438 c 1
 140.000976562 640.999023438 l 1
EndSplineSet
EndChar

StartChar: ograve
Encoding: 242 242 180
Width: 572
GlyphClass: 2
Flags: W
LayerCount: 2
Fore
SplineSet
114.5 52.5 m 0
 72.8330078125 93.5 52 152.999023438 52 230.999023438 c 2
 52 281.999023438 l 2
 52 359.999023438 72.8330078125 419.499023438 114.5 460.499023438 c 0
 156.166992188 501.499023438 213.666992188 521.999023438 287 521.999023438 c 0
 359.666992188 521.999023438 416.666992188 501.33203125 458 459.999023438 c 0
 499.333007812 418.666015625 520 359.333007812 520 282 c 2
 520 231 l 2
 520 153 499.333007812 93.5 458 52.5 c 0
 416.666992188 11.5 359.666992188 -9 287 -9 c 0
 213.666992188 -9 156.166992188 11.5 114.5 52.5 c 0
435 232.999023438 m 2
 435 279.999023438 l 2
 435 390.666015625 385.333007812 445.999023438 286 445.999023438 c 0
 186.666992188 445.999023438 137 390.666015625 137 279.999023438 c 2
 137 232.999023438 l 2
 137 121.666015625 186.666992188 65.9990234375 286 65.9990234375 c 0
 385.333007812 65.9990234375 435 121.666015625 435 232.999023438 c 2
133 699.999023438 m 1
 241 699.999023438 l 1
 352 571.999023438 l 1
 272 571.999023438 l 1
 133 699.999023438 l 1
EndSplineSet
EndChar

StartChar: oacute
Encoding: 243 243 181
Width: 572
GlyphClass: 2
Flags: W
LayerCount: 2
Fore
SplineSet
114.5 52.5 m 0
 72.8330078125 93.5 52 152.999023438 52 230.999023438 c 2
 52 281.999023438 l 2
 52 359.999023438 72.8330078125 419.499023438 114.5 460.499023438 c 0
 156.166992188 501.499023438 213.666992188 521.999023438 287 521.999023438 c 0
 359.666992188 521.999023438 416.666992188 501.33203125 458 459.999023438 c 0
 499.333007812 418.666015625 520 359.333007812 520 282 c 2
 520 231 l 2
 520 153 499.333007812 93.5 458 52.5 c 0
 416.666992188 11.5 359.666992188 -9 287 -9 c 0
 213.666992188 -9 156.166992188 11.5 114.5 52.5 c 0
435 232.999023438 m 2
 435 279.999023438 l 2
 435 390.666015625 385.333007812 445.999023438 286 445.999023438 c 0
 186.666992188 445.999023438 137 390.666015625 137 279.999023438 c 2
 137 232.999023438 l 2
 137 121.666015625 186.666992188 65.9990234375 286 65.9990234375 c 0
 385.333007812 65.9990234375 435 121.666015625 435 232.999023438 c 2
313 699.999023438 m 1
 420 699.999023438 l 1
 281 571.999023438 l 1
 201 571.999023438 l 1
 313 699.999023438 l 1
EndSplineSet
EndChar

StartChar: ocircumflex
Encoding: 244 244 182
Width: 572
GlyphClass: 2
Flags: W
LayerCount: 2
Fore
SplineSet
114.5 52.5 m 0
 72.8330078125 93.5 52 152.999023438 52 230.999023438 c 2
 52 281.999023438 l 2
 52 359.999023438 72.8330078125 419.499023438 114.5 460.499023438 c 0
 156.166992188 501.499023438 213.666992188 521.999023438 287 521.999023438 c 0
 359.666992188 521.999023438 416.666992188 501.33203125 458 459.999023438 c 0
 499.333007812 418.666015625 520 359.333007812 520 282 c 2
 520 231 l 2
 520 153 499.333007812 93.5 458 52.5 c 0
 416.666992188 11.5 359.666992188 -9 287 -9 c 0
 213.666992188 -9 156.166992188 11.5 114.5 52.5 c 0
435 232.999023438 m 2
 435 279.999023438 l 2
 435 390.666015625 385.333007812 445.999023438 286 445.999023438 c 0
 186.666992188 445.999023438 137 390.666015625 137 279.999023438 c 2
 137 232.999023438 l 2
 137 121.666015625 186.666992188 65.9990234375 286 65.9990234375 c 0
 385.333007812 65.9990234375 435 121.666015625 435 232.999023438 c 2
253 712.999023438 m 1
 318 712.999023438 l 1
 449 566.999023438 l 1
 369 566.999023438 l 1
 286 656.999023438 l 1
 202 566.999023438 l 1
 122 566.999023438 l 1
 253 712.999023438 l 1
EndSplineSet
EndChar

StartChar: otilde
Encoding: 245 245 183
Width: 572
GlyphClass: 2
Flags: W
LayerCount: 2
Fore
SplineSet
114.5 52.5 m 0
 72.8330078125 93.5 52 152.999023438 52 230.999023438 c 2
 52 281.999023438 l 2
 52 359.999023438 72.8330078125 419.499023438 114.5 460.499023438 c 0
 156.166992188 501.499023438 213.666992188 521.999023438 287 521.999023438 c 0
 359.666992188 521.999023438 416.666992188 501.33203125 458 459.999023438 c 0
 499.333007812 418.666015625 520 359.333007812 520 282 c 2
 520 231 l 2
 520 153 499.333007812 93.5 458 52.5 c 0
 416.666992188 11.5 359.666992188 -9 287 -9 c 0
 213.666992188 -9 156.166992188 11.5 114.5 52.5 c 0
435 232.999023438 m 2
 435 279.999023438 l 2
 435 390.666015625 385.333007812 445.999023438 286 445.999023438 c 0
 186.666992188 445.999023438 137 390.666015625 137 279.999023438 c 2
 137 232.999023438 l 2
 137 121.666015625 186.666992188 65.9990234375 286 65.9990234375 c 0
 385.333007812 65.9990234375 435 121.666015625 435 232.999023438 c 2
139 640.999023438 m 1
 152.333007812 653.666015625 165.331054688 662.999023438 177.998046875 668.999023438 c 0
 190.665039062 674.999023438 204.998046875 677.999023438 220.998046875 677.999023438 c 0
 234.331054688 677.999023438 246.1640625 676.33203125 256.497070312 672.999023438 c 0
 266.831054688 669.666015625 278.6640625 664.666015625 291.997070312 657.999023438 c 0
 304.6640625 651.999023438 315.497070312 647.499023438 324.497070312 644.499023438 c 0
 333.497070312 641.499023438 343.6640625 639.999023438 354.997070312 639.999023438 c 0
 370.330078125 639.999023438 383.497070312 642.999023438 394.497070312 648.999023438 c 0
 405.497070312 654.999023438 417.997070312 664.666015625 431.997070312 677.999023438 c 1
 431.997070312 605.999023438 l 1
 408.6640625 581.999023438 381.331054688 569.999023438 349.998046875 569.999023438 c 0
 335.998046875 569.999023438 323.831054688 571.666015625 313.498046875 574.999023438 c 0
 303.165039062 578.33203125 291.33203125 583.33203125 277.999023438 589.999023438 c 0
 264.666015625 595.999023438 253.833007812 600.499023438 245.5 603.499023438 c 0
 237.166015625 606.499023438 227.333007812 607.999023438 216 607.999023438 c 0
 201.333007812 607.999023438 188.5 604.999023438 177.5 598.999023438 c 0
 166.5 592.999023438 153.666992188 583.33203125 139 569.999023438 c 1
 139 640.999023438 l 1
EndSplineSet
EndChar

StartChar: odieresis
Encoding: 246 246 184
Width: 572
GlyphClass: 2
Flags: W
LayerCount: 2
Fore
SplineSet
114.5 52.5 m 0
 72.8330078125 93.5 52 152.999023438 52 230.999023438 c 2
 52 281.999023438 l 2
 52 359.999023438 72.8330078125 419.499023438 114.5 460.499023438 c 0
 156.166992188 501.499023438 213.666992188 521.999023438 287 521.999023438 c 0
 359.666992188 521.999023438 416.666992188 501.33203125 458 459.999023438 c 0
 499.333007812 418.666015625 520 359.333007812 520 282 c 2
 520 231 l 2
 520 153 499.333007812 93.5 458 52.5 c 0
 416.666992188 11.5 359.666992188 -9 287 -9 c 0
 213.666992188 -9 156.166992188 11.5 114.5 52.5 c 0
435 232.999023438 m 2
 435 279.999023438 l 2
 435 390.666015625 385.333007812 445.999023438 286 445.999023438 c 0
 186.666992188 445.999023438 137 390.666015625 137 279.999023438 c 2
 137 232.999023438 l 2
 137 121.666015625 186.666992188 65.9990234375 286 65.9990234375 c 0
 385.333007812 65.9990234375 435 121.666015625 435 232.999023438 c 2
136 675.999023438 m 1
 221 675.999023438 l 1
 221 580.999023438 l 1
 136 580.999023438 l 1
 136 675.999023438 l 1
351 675.999023438 m 1
 435 675.999023438 l 1
 435 580.999023438 l 1
 351 580.999023438 l 1
 351 675.999023438 l 1
EndSplineSet
EndChar

StartChar: divide
Encoding: 247 247 185
Width: 509
GlyphClass: 2
Flags: W
LayerCount: 2
Fore
SplineSet
216.5 387.5 m 0
 206.166992188 397.834960938 201 410.666992188 201 425.999023438 c 0
 201 440.666015625 206.166992188 453.166015625 216.5 463.499023438 c 0
 226.833007812 473.83203125 239.333007812 478.999023438 254 478.999023438 c 0
 269.333984375 478.999023438 282.166992188 473.83203125 292.499023438 463.499023438 c 0
 302.83203125 453.166015625 307.999023438 440.666015625 307.999023438 425.999023438 c 0
 307.999023438 410.666015625 302.83203125 397.833007812 292.499023438 387.5 c 0
 282.166015625 377.166992188 269.333007812 372 254 372 c 0
 239.333007812 372 226.833007812 377.166992188 216.5 387.5 c 0
53 315.999023438 m 1
 456 315.999023438 l 1
 456 235.999023438 l 1
 53 235.999023438 l 1
 53 315.999023438 l 1
216.5 90.4990234375 m 0
 206.166992188 100.83203125 201 113.33203125 201 127.999023438 c 0
 201 143.33203125 206.166992188 156.165039062 216.5 166.498046875 c 0
 226.833007812 176.831054688 239.333007812 181.998046875 254 181.998046875 c 0
 269.333984375 181.998046875 282.166992188 176.831054688 292.499023438 166.498046875 c 0
 302.83203125 156.165039062 307.999023438 143.33203125 307.999023438 127.999023438 c 0
 307.999023438 113.33203125 302.83203125 100.83203125 292.499023438 90.4990234375 c 0
 282.166015625 80.166015625 269.333007812 74.9990234375 254 74.9990234375 c 0
 239.333007812 74.9990234375 226.833007812 80.166015625 216.5 90.4990234375 c 0
EndSplineSet
EndChar

StartChar: oslash
Encoding: 248 248 186
Width: 572
GlyphClass: 2
Flags: W
LayerCount: 2
Fore
SplineSet
520 282 m 2
 520 231 l 2
 520 153 499.333007812 93.5 458 52.5 c 0
 416.666992188 11.5 359.666992188 -9 287 -9 c 0
 237.666992188 -9 194.666992188 0.6669921875 158 20 c 1
 124 -30 l 1
 60 -30 l 1
 116 51 l 1
 73.3330078125 92.3330078125 52 152.333007812 52 231 c 2
 52 282 l 2
 52 360 72.8330078125 419.5 114.5 460.5 c 0
 156.166992188 501.5 213.666992188 522 287 522 c 0
 337.666992188 522 380.666992188 512 416 492 c 1
 448 538 l 1
 512 538 l 1
 458 460 l 1
 499.333007812 417.333007812 520 358 520 282 c 2
164 122 m 1
 370.999023438 426 l 1
 347.666015625 439.333007812 319.333007812 446 286 446 c 0
 186.666992188 446 137 390.666992188 137 280 c 2
 137 233 l 2
 137 186.333007812 146 149.333007812 164 122 c 1
434.999023438 280 m 2
 434.999023438 324.666992188 426.666015625 360.666992188 409.999023438 388 c 1
 202.999023438 85 l 1
 224.33203125 72.3330078125 251.999023438 66 285.999023438 66 c 0
 385.33203125 66 434.999023438 121.666992188 434.999023438 233 c 2
 434.999023438 280 l 2
EndSplineSet
EndChar

StartChar: ugrave
Encoding: 249 249 187
Width: 572
GlyphClass: 2
Flags: W
LayerCount: 2
Fore
SplineSet
123 47.5 m 0
 85.6669921875 83.8330078125 67 135.666015625 67 202.999023438 c 2
 67 511.999023438 l 1
 152 511.999023438 l 1
 152 211.999023438 l 2
 152 116.666015625 196.666992188 68.9990234375 286 68.9990234375 c 0
 332 68.9990234375 365.833007812 80.83203125 387.5 104.499023438 c 0
 409.166992188 128.166015625 420 163.999023438 420 211.999023438 c 2
 420 511.999023438 l 1
 505 511.999023438 l 1
 505 202.999023438 l 2
 505 135.666015625 486.166992188 83.8330078125 448.5 47.5 c 0
 410.833007812 11.1669921875 356.333007812 -7 285 -7 c 0
 214.333007812 -7 160.333007812 11.1669921875 123 47.5 c 0
133 700 m 1
 241 700 l 1
 352 572 l 1
 272 572 l 1
 133 700 l 1
EndSplineSet
EndChar

StartChar: uacute
Encoding: 250 250 188
Width: 572
GlyphClass: 2
Flags: W
LayerCount: 2
Fore
SplineSet
123 47.5 m 0
 85.6669921875 83.8330078125 67 135.666015625 67 202.999023438 c 2
 67 511.999023438 l 1
 152 511.999023438 l 1
 152 211.999023438 l 2
 152 116.666015625 196.666992188 68.9990234375 286 68.9990234375 c 0
 332 68.9990234375 365.833007812 80.83203125 387.5 104.499023438 c 0
 409.166992188 128.166015625 420 163.999023438 420 211.999023438 c 2
 420 511.999023438 l 1
 505 511.999023438 l 1
 505 202.999023438 l 2
 505 135.666015625 486.166992188 83.8330078125 448.5 47.5 c 0
 410.833007812 11.1669921875 356.333007812 -7 285 -7 c 0
 214.333007812 -7 160.333007812 11.1669921875 123 47.5 c 0
314 700 m 1
 421 700 l 1
 282 572 l 1
 202 572 l 1
 314 700 l 1
EndSplineSet
EndChar

StartChar: ucircumflex
Encoding: 251 251 189
Width: 572
GlyphClass: 2
Flags: W
LayerCount: 2
Fore
SplineSet
123 47.5 m 0
 85.6669921875 83.8330078125 67 135.666015625 67 202.999023438 c 2
 67 511.999023438 l 1
 152 511.999023438 l 1
 152 211.999023438 l 2
 152 116.666015625 196.666992188 68.9990234375 286 68.9990234375 c 0
 332 68.9990234375 365.833007812 80.83203125 387.5 104.499023438 c 0
 409.166992188 128.166015625 420 163.999023438 420 211.999023438 c 2
 420 511.999023438 l 1
 505 511.999023438 l 1
 505 202.999023438 l 2
 505 135.666015625 486.166992188 83.8330078125 448.5 47.5 c 0
 410.833007812 11.1669921875 356.333007812 -7 285 -7 c 0
 214.333007812 -7 160.333007812 11.1669921875 123 47.5 c 0
253 713 m 1
 318 713 l 1
 449 567 l 1
 369 567 l 1
 286 657 l 1
 202 567 l 1
 122 567 l 1
 253 713 l 1
EndSplineSet
EndChar

StartChar: udieresis
Encoding: 252 252 190
Width: 572
GlyphClass: 2
Flags: W
LayerCount: 2
Fore
SplineSet
123 47.5 m 0
 85.6669921875 83.8330078125 67 135.666015625 67 202.999023438 c 2
 67 511.999023438 l 1
 152 511.999023438 l 1
 152 211.999023438 l 2
 152 116.666015625 196.666992188 68.9990234375 286 68.9990234375 c 0
 332 68.9990234375 365.833007812 80.83203125 387.5 104.499023438 c 0
 409.166992188 128.166015625 420 163.999023438 420 211.999023438 c 2
 420 511.999023438 l 1
 505 511.999023438 l 1
 505 202.999023438 l 2
 505 135.666015625 486.166992188 83.8330078125 448.5 47.5 c 0
 410.833007812 11.1669921875 356.333007812 -7 285 -7 c 0
 214.333007812 -7 160.333007812 11.1669921875 123 47.5 c 0
136 676 m 1
 221 676 l 1
 221 581 l 1
 136 581 l 1
 136 676 l 1
351 676 m 1
 435 676 l 1
 435 581 l 1
 351 581 l 1
 351 676 l 1
EndSplineSet
EndChar

StartChar: yacute
Encoding: 253 253 191
Width: 513
GlyphClass: 2
Flags: W
LayerCount: 2
Fore
SplineSet
500 512 m 1
 279 -51 l 2
 265 -87 244.666992188 -113 218 -129 c 0
 191.333007812 -145 156.333007812 -153 113 -153 c 2
 77 -153 l 1
 77 -76 l 1
 113 -76 l 2
 143 -76 165.333007812 -71.6669921875 180 -63 c 0
 194.666992188 -54.3330078125 206 -39 214 -17 c 2
 220 0 l 1
 13 512 l 1
 104 512 l 1
 261 109 l 1
 411 512 l 1
 500 512 l 1
289 700 m 1
 396 700 l 1
 257 572 l 1
 177 572 l 1
 289 700 l 1
EndSplineSet
EndChar

StartChar: thorn
Encoding: 254 254 192
Width: 580
GlyphClass: 2
Flags: W
LayerCount: 2
Fore
SplineSet
67 690 m 1
 152 689.999023438 l 1
 152 442.999023438 l 1
 168.666992188 467.666015625 191 486.999023438 219 500.999023438 c 0
 247 514.999023438 278.666992188 521.999023438 314 521.999023438 c 0
 378.666992188 521.999023438 430.5 501.33203125 469.5 459.999023438 c 0
 508.5 418.666015625 528 359.999023438 528 283.999023438 c 2
 528 229.999023438 l 2
 528 153.33203125 508.5 94.33203125 469.5 52.9990234375 c 0
 430.5 11.666015625 378.666992188 -9.0009765625 314 -9.0009765625 c 0
 277.333007812 -9.0009765625 245.333007812 -2.66796875 218 9.9990234375 c 0
 190.666015625 22.666015625 168.333007812 41.3330078125 151 66 c 1
 151 -153 l 1
 67 -153 l 1
 67 690 l 1
406 107.999023438 m 0
 430.666992188 135.999023438 442.998046875 177.998046875 442.998046875 233.998046875 c 2
 442.998046875 279.998046875 l 2
 442.998046875 335.998046875 430.665039062 377.665039062 405.998046875 404.998046875 c 0
 381.331054688 432.331054688 345.998046875 445.998046875 299.998046875 445.998046875 c 0
 253.998046875 445.998046875 217.831054688 431.831054688 191.498046875 403.498046875 c 0
 165.165039062 375.165039062 151.998046875 336.998046875 151.998046875 288.998046875 c 2
 151.998046875 221.998046875 l 2
 151.998046875 174.665039062 165.331054688 136.83203125 191.998046875 108.499023438 c 0
 218.665039062 80.166015625 255.33203125 65.9990234375 301.999023438 65.9990234375 c 0
 346.666015625 65.9990234375 381.333007812 79.9990234375 406 107.999023438 c 0
EndSplineSet
EndChar

StartChar: ydieresis
Encoding: 255 255 193
Width: 513
GlyphClass: 2
Flags: W
LayerCount: 2
Fore
SplineSet
500 512 m 1
 279 -51 l 2
 265 -87 244.666992188 -113 218 -129 c 0
 191.333007812 -145 156.333007812 -153 113 -153 c 2
 77 -153 l 1
 77 -76 l 1
 113 -76 l 2
 143 -76 165.333007812 -71.6669921875 180 -63 c 0
 194.666992188 -54.3330078125 206 -39 214 -17 c 2
 220 0 l 1
 13 512 l 1
 104 512 l 1
 261 109 l 1
 411 512 l 1
 500 512 l 1
106 676 m 1
 191 676 l 1
 191 581 l 1
 106 581 l 1
 106 676 l 1
321 676 m 1
 405 676 l 1
 405 581 l 1
 321 581 l 1
 321 676 l 1
EndSplineSet
EndChar

StartChar: dotlessi
Encoding: 305 305 194
Width: 234
GlyphClass: 2
Flags: W
LayerCount: 2
Fore
SplineSet
74 512 m 1
 159 512 l 1
 159 0 l 1
 74 0 l 1
 74 512 l 1
EndSplineSet
EndChar

StartChar: OE
Encoding: 338 338 195
Width: 1060
GlyphClass: 2
Flags: W
LayerCount: 2
Fore
SplineSet
636 609 m 1
 636 391 l 1
 961 391 l 1
 961 310 l 1
 636 310 l 1
 636 81 l 1
 1016 81 l 1
 1016 0 l 1
 548 0 l 1
 548 60 l 1
 498 14 430.333007812 -9 345 -9 c 0
 253.666992188 -9 183.5 16.5 134.5 67.5 c 0
 85.5 118.5 61 194.333007812 61 295 c 2
 61 396 l 2
 61 496.666992188 85.8330078125 572.5 135.5 623.5 c 0
 185.166992188 674.5 255.666992188 700 347 700 c 0
 431.666992188 700 498.666992188 677.333007812 548 632 c 1
 548 690 l 1
 1016 690 l 1
 1016 609 l 1
 636 609 l 1
546 391 m 2
 546 469 529.666992188 526.333984375 497 563 c 0
 464.333007812 599.666992188 415 618 349 618 c 0
 282.333007812 618 232.833007812 599.666992188 200.5 563 c 0
 168.166992188 526.333007812 152 469 152 391 c 2
 152 294 l 2
 152 218.666992188 168.166992188 163 200.5 127 c 0
 232.833007812 91 282.333007812 73 349 73 c 0
 415 73 464.333007812 91 497 127 c 0
 529.666992188 163 546 218.666992188 546 294 c 2
 546 391 l 2
EndSplineSet
EndChar

StartChar: oe
Encoding: 339 339 196
Width: 939
GlyphClass: 2
Flags: W
LayerCount: 2
Fore
SplineSet
520 235 m 1
 520.001953125 231 l 2
 520.001953125 120.333007812 571.668945312 65 675.001953125 65 c 0
 713.670898438 65 743.837890625 74.1669921875 765.501953125 92.5 c 0
 787.168945312 110.833007812 798.668945312 134 800.001953125 162 c 2
 800.001953125 165 l 1
 884.001953125 165 l 1
 884.001953125 161 l 2
 883.334960938 129 874.501953125 100.166992188 857.501953125 74.5 c 0
 840.501953125 48.8330078125 816.168945312 28.5 784.501953125 13.5 c 0
 752.834960938 -1.5 715.66796875 -9 673.000976562 -9 c 0
 584.333984375 -9 519.333984375 19.6669921875 478.000976562 77 c 1
 458.000976562 48.3330078125 431.833984375 26.8330078125 399.500976562 12.5 c 0
 367.16796875 -1.8330078125 329.66796875 -9 287.000976562 -9 c 0
 213.66796875 -9 156.16796875 11.5 114.500976562 52.5 c 0
 72.833984375 93.5 52.0009765625 153 52.0009765625 231 c 2
 52.0009765625 282 l 2
 52.0009765625 360 72.833984375 419.5 114.500976562 460.5 c 0
 156.16796875 501.5 213.66796875 522 287.000976562 522 c 0
 329.000976562 522 366.16796875 514.833007812 398.500976562 500.5 c 0
 430.833984375 486.166992188 457.000976562 465 477.000976562 437 c 1
 496.333984375 465 521.666992188 486.166992188 553 500.5 c 0
 584.333007812 514.833007812 620.333007812 522 661 522 c 0
 731.666992188 522 787 502.5 827 463.5 c 0
 867 424.5 887 368.333007812 887 295 c 2
 887 235 l 1
 520 235 l 1
560.501953125 410.5 m 0
 536.168945312 386.166992188 522.668945312 349 520.001953125 299 c 1
 802.001953125 299 l 1
 802.001953125 308 l 2
 802.001953125 354.666992188 789.834960938 389.5 765.501953125 412.5 c 0
 741.168945312 435.5 706.668945312 447 662.001953125 447 c 0
 618.666992188 447 584.833984375 434.833007812 560.501953125 410.5 c 0
435.001953125 280 m 2
 435.001953125 390.666992188 385.334960938 446 286.001953125 446 c 0
 186.668945312 446 137.001953125 390.666992188 137.001953125 280 c 2
 137.001953125 233 l 2
 137.001953125 121.666992188 186.668945312 66 286.001953125 66 c 0
 385.334960938 66 435.001953125 121.666992188 435.001953125 233 c 2
 435.001953125 280 l 2
EndSplineSet
EndChar

StartChar: Scaron
Encoding: 352 352 197
Width: 611
GlyphClass: 2
Flags: W
LayerCount: 2
Fore
SplineSet
106 46 m 0
 60.6669921875 80.6669921875 35.6650390625 131.665039062 30.998046875 198.998046875 c 1
 118.998046875 198.998046875 l 1
 122.998046875 154.331054688 140.165039062 121.998046875 170.498046875 101.998046875 c 0
 200.831054688 81.998046875 244.6640625 71.998046875 301.997070312 71.998046875 c 0
 420.6640625 71.998046875 479.997070312 111.665039062 479.997070312 190.998046875 c 0
 479.997070312 225.665039062 468.6640625 252.33203125 445.997070312 270.999023438 c 0
 423.330078125 289.666015625 388.330078125 301.666015625 340.997070312 306.999023438 c 2
 247.997070312 317.999023438 l 2
 113.997070312 334.666015625 46.9970703125 396.333007812 46.9970703125 503 c 0
 46.9970703125 565 69.6640625 613.166992188 114.997070312 647.5 c 0
 160.330078125 681.833007812 222.330078125 699 300.997070312 699 c 0
 377.6640625 699 437.831054688 682.5 481.498046875 649.5 c 0
 525.166992188 616.5 550.333984375 567.666992188 556.999023438 503 c 1
 468.999023438 503 l 1
 465.666015625 543 450.333007812 572.833007812 423 592.5 c 0
 395.666992188 612.166992188 355 622 301 622 c 0
 246.333007812 622 205 612.333007812 177 593 c 0
 149 573.666992188 135 545.666992188 135 509 c 0
 135 477 145.833007812 452 167.5 434 c 0
 189.166992188 416 223 404 269 398 c 2
 366 387 l 2
 502 369 570 305.666992188 570 197 c 0
 570 132.333007812 546 82.3330078125 498 47 c 0
 450 11.6669921875 383.333007812 -6 298 -6 c 0
 215.333007812 -6 151.333007812 11.3330078125 106 46 c 0
137.998046875 889.998046875 m 1
 217.998046875 889.998046875 l 1
 301.998046875 799.998046875 l 1
 384.998046875 889.998046875 l 1
 464.998046875 889.998046875 l 1
 333.998046875 743.998046875 l 1
 268.998046875 743.998046875 l 1
 137.998046875 889.998046875 l 1
EndSplineSet
EndChar

StartChar: scaron
Encoding: 353 353 198
Width: 517
GlyphClass: 2
Flags: W
LayerCount: 2
Fore
SplineSet
99 36.5 m 0
 61 64.8330078125 42.001953125 103.666992188 42.001953125 153 c 2
 42.001953125 156 l 1
 123.001953125 156 l 1
 123.001953125 154 l 2
 123.001953125 126.666992188 134.334960938 105 157.001953125 89 c 0
 179.668945312 73 214.668945312 65 262.001953125 65 c 0
 304.668945312 65 338.168945312 72 362.501953125 86 c 0
 386.834960938 100 399.001953125 120.333007812 399.001953125 147 c 0
 399.001953125 169 390.168945312 185.666992188 372.501953125 197 c 0
 354.834960938 208.333007812 326.66796875 216 288.001953125 220 c 2
 215.001953125 229 l 2
 158.334960938 235.666992188 116.66796875 250.166992188 90.0009765625 272.5 c 0
 63.333984375 294.833007812 50.0009765625 326.333007812 50.0009765625 367 c 0
 50.0009765625 414.333007812 68.66796875 451.5 106.000976562 478.5 c 0
 143.333984375 505.5 194.000976562 519 258.000976562 519 c 0
 324.66796875 519 377.000976562 505.333007812 415.000976562 478 c 0
 453.000976562 450.666992188 472.000976562 413.666992188 472.000976562 367 c 2
 472.000976562 363 l 1
 391.000976562 363 l 1
 391.000976562 366 l 2
 391.000976562 393.333984375 379.500976562 414.166992188 356.500976562 428.5 c 0
 333.500976562 442.833007812 301.000976562 450 259.000976562 450 c 0
 216.333984375 450 184.333984375 443.333007812 163.000976562 430 c 0
 141.66796875 416.666992188 131.000976562 397.666992188 131.000976562 373 c 0
 131.000976562 351.666992188 138.66796875 335.5 154.000976562 324.5 c 0
 169.333984375 313.5 195.666992188 306 233 302 c 2
 311 292 l 2
 368.333007812 285.333007812 410.833007812 270.666015625 438.5 248 c 0
 466.166992188 225.333007812 480 193.333007812 480 152 c 0
 480 102 460.166992188 63.1669921875 420.5 35.5 c 0
 380.833007812 7.8330078125 326.666015625 -6 258 -6 c 0
 190 -6 137 8.1669921875 99 36.5 c 0
96.001953125 712.000976562 m 1
 176.001953125 712.000976562 l 1
 260.001953125 622.000976562 l 1
 343.001953125 712.000976562 l 1
 423.001953125 712.000976562 l 1
 292.001953125 566.000976562 l 1
 227.001953125 566.000976562 l 1
 96.001953125 712.000976562 l 1
EndSplineSet
EndChar

StartChar: Ydieresis
Encoding: 376 376 199
Width: 580
GlyphClass: 2
Flags: W
LayerCount: 2
Fore
SplineSet
335 278 m 1
 335 0 l 1
 245 0 l 1
 245 279 l 1
 6 690 l 1
 108 690 l 1
 291 355 l 1
 472 690 l 1
 574 690 l 1
 335 278 l 1
140 854 m 1
 225 854 l 1
 225 759 l 1
 140 759 l 1
 140 854 l 1
355 854 m 1
 439 854 l 1
 439 759 l 1
 355 759 l 1
 355 854 l 1
EndSplineSet
EndChar

StartChar: Zcaron
Encoding: 381 381 200
Width: 571
GlyphClass: 2
Flags: W
LayerCount: 2
Fore
SplineSet
538 82 m 1
 538 1 l 1
 36 1 l 1
 36 82 l 1
 428 610 l 1
 49 610 l 1
 49 691 l 1
 533 691 l 1
 533 610 l 1
 142 82 l 1
 538 82 l 1
125 890 m 1
 205 890 l 1
 289 800 l 1
 372 890 l 1
 452 890 l 1
 321 744 l 1
 256 744 l 1
 125 890 l 1
EndSplineSet
EndChar

StartChar: zcaron
Encoding: 382 382 201
Width: 500
GlyphClass: 2
Flags: W
LayerCount: 2
Fore
SplineSet
448 436 m 1
 150 75 l 1
 448 75 l 1
 448 0 l 1
 52 0 l 1
 52 75 l 1
 348 436 l 1
 52 436 l 1
 52 512 l 1
 448 512 l 1
 448 436 l 1
86 712 m 1
 166 712 l 1
 250 622 l 1
 333 712 l 1
 413 712 l 1
 282 566 l 1
 217 566 l 1
 86 712 l 1
EndSplineSet
EndChar

StartChar: florin
Encoding: 402 402 202
Width: 468
GlyphClass: 2
Flags: W
LayerCount: 2
Fore
SplineSet
12 -72 m 1
 57 -72 l 2
 87.6669921875 -72 109.833984375 -65.8330078125 123.500976562 -53.5 c 0
 137.16796875 -41.1669921875 146.334960938 -17.6669921875 151.000976562 17 c 2
 198.000976562 337 l 1
 95.0009765625 337 l 1
 95.0009765625 414 l 1
 210.000976562 414 l 1
 227.000976562 525 l 2
 236.333984375 585 254.166992188 627.5 280.5 652.5 c 0
 306.833007812 677.5 347.333007812 690 402 690 c 2
 457 690 l 1
 457 610 l 1
 406 610 l 2
 376.666992188 610 355.166992188 603.666992188 341.5 591 c 0
 327.833007812 578.333007812 318.333007812 555.333007812 313 522 c 2
 297 414 l 1
 421 414 l 1
 421 337 l 1
 285 337 l 1
 237 14 l 2
 227.666015625 -47.3330078125 209.833007812 -90.5 183.5 -115.5 c 0
 157.166992188 -140.5 116.666992188 -153 62 -153 c 2
 12 -153 l 1
 12 -72 l 1
EndSplineSet
EndChar

StartChar: circumflex
Encoding: 710 710 203
Width: 500
GlyphClass: 2
Flags: W
LayerCount: 2
Fore
SplineSet
217 713 m 1
 282 713 l 1
 413 567 l 1
 333 567 l 1
 250 657 l 1
 166 567 l 1
 86 567 l 1
 217 713 l 1
EndSplineSet
EndChar

StartChar: caron
Encoding: 711 711 204
Width: 500
GlyphClass: 2
Flags: W
LayerCount: 2
Fore
SplineSet
86 712 m 1
 166 712 l 1
 250 622 l 1
 333 712 l 1
 413 712 l 1
 282 566 l 1
 217 566 l 1
 86 712 l 1
EndSplineSet
EndChar

StartChar: dotaccent
Encoding: 729 729 205
Width: 500
GlyphClass: 2
Flags: W
LayerCount: 2
Fore
SplineSet
207 685 m 1
 293 685 l 1
 293 592 l 1
 207 592 l 1
 207 685 l 1
EndSplineSet
EndChar

StartChar: ring
Encoding: 730 730 206
Width: 500
GlyphClass: 2
Flags: W
LayerCount: 2
Fore
SplineSet
182 591 m 0
 164 609 155 631.333984375 155 658.000976562 c 0
 155 685.333984375 164 708.166992188 182 726.5 c 0
 200 744.833007812 222.666992188 754 250 754 c 0
 276.666992188 754 299 744.833007812 317 726.5 c 0
 335 708.1640625 344 685.331054688 344 658 c 0
 344 631.333007812 335 609 317 591 c 0
 299 573 276.666992188 564 250 564 c 0
 222.666992188 564 200 573 182 591 c 0
285.5 621.500976562 m 0
 295.166992188 631.172851562 300.000976562 643.33984375 300.000976562 658.001953125 c 0
 300.000976562 672.668945312 295.16796875 685.168945312 285.500976562 695.501953125 c 0
 275.833984375 705.834960938 264.000976562 711.001953125 250.000976562 711.001953125 c 0
 235.333984375 711.001953125 223.166992188 706.001953125 213.5 696.001953125 c 0
 203.833007812 686.001953125 199 673.334960938 199 658.001953125 c 0
 199 643.334960938 203.833007812 631.16796875 213.5 621.500976562 c 0
 223.166992188 611.833984375 235.333984375 607.000976562 250 607.000976562 c 0
 264 607.000976562 275.833007812 611.833984375 285.5 621.500976562 c 0
EndSplineSet
EndChar

StartChar: tilde
Encoding: 732 732 207
Width: 500
GlyphClass: 2
Flags: W
LayerCount: 2
Fore
SplineSet
103 646 m 1
 116.333007812 658.666992188 129.333007812 668 142 674 c 0
 154.666992188 680 169 683 185 683 c 0
 198.333007812 683 210.166015625 681.333007812 220.499023438 678 c 0
 230.83203125 674.666992188 242.665039062 669.666992188 255.998046875 663 c 0
 268.665039062 657 279.498046875 652.5 288.498046875 649.5 c 0
 297.498046875 646.5 307.665039062 645 318.998046875 645 c 0
 334.331054688 645 347.498046875 648 358.498046875 654 c 0
 369.498046875 660 381.998046875 669.666992188 395.998046875 683 c 1
 395.998046875 611 l 1
 373.331054688 587 345.998046875 575 313.998046875 575 c 0
 299.998046875 575 287.831054688 576.666992188 277.498046875 580 c 0
 267.165039062 583.333007812 255.33203125 588.333007812 241.999023438 595 c 0
 228.666015625 601 217.833007812 605.5 209.5 608.5 c 0
 201.166015625 611.5 191.333007812 613 180 613 c 0
 165.333007812 613 152.5 610 141.5 604 c 0
 130.5 598 117.666992188 588.333007812 103 575 c 1
 103 646 l 1
EndSplineSet
EndChar

StartChar: gravecomb
Encoding: 768 768 208
Width: 0
GlyphClass: 2
Flags: W
LayerCount: 2
Fore
SplineSet
-153 700 m 1
 -45 700 l 1
 66 572 l 1
 -14 572 l 1
 -153 700 l 1
EndSplineSet
EndChar

StartChar: acutecomb
Encoding: 769 769 209
Width: 0
GlyphClass: 2
Flags: W
LayerCount: 2
Fore
SplineSet
33 700 m 1
 140 700 l 1
 1 572 l 1
 -79 572 l 1
 33 700 l 1
EndSplineSet
EndChar

StartChar: uni0302
Encoding: 770 770 210
Width: 0
GlyphClass: 2
Flags: W
LayerCount: 2
Fore
SplineSet
-33 713 m 1
 32 713 l 1
 163 567 l 1
 83 567 l 1
 0 657 l 1
 -84 567 l 1
 -164 567 l 1
 -33 713 l 1
EndSplineSet
EndChar

StartChar: tildecomb
Encoding: 771 771 211
Width: 0
GlyphClass: 2
Flags: W
LayerCount: 2
Fore
SplineSet
-147 641 m 1
 -133.666992188 653.666992188 -120.668945312 663 -108.001953125 669 c 0
 -95.3349609375 675 -81.001953125 678 -65.001953125 678 c 0
 -51.6689453125 678 -39.8359375 676.333007812 -29.5029296875 673 c 0
 -19.169921875 669.666992188 -7.3369140625 664.666992188 5.99609375 658 c 0
 18.6630859375 652 29.49609375 647.5 38.49609375 644.5 c 0
 47.49609375 641.5 57.6630859375 640 68.99609375 640 c 0
 84.3291015625 640 97.49609375 643 108.49609375 649 c 0
 119.49609375 655 131.99609375 664.666992188 145.99609375 678 c 1
 145.99609375 606 l 1
 122.663085938 582 95.330078125 570 63.9970703125 570 c 0
 49.9970703125 570 37.830078125 571.666992188 27.4970703125 575 c 0
 17.1640625 578.333007812 5.3310546875 583.333007812 -8.001953125 590 c 0
 -21.3349609375 596 -32.16796875 600.5 -40.5009765625 603.5 c 0
 -48.833984375 606.5 -58.6669921875 608 -70 608 c 0
 -84.6669921875 608 -97.5 605 -108.5 599 c 0
 -119.5 593 -132.333007812 583.333007812 -147 570 c 1
 -147 641 l 1
EndSplineSet
EndChar

StartChar: uni0308
Encoding: 776 776 212
Width: 0
GlyphClass: 2
Flags: W
LayerCount: 2
Fore
SplineSet
-150 676 m 1
 -65 676 l 1
 -65 581 l 1
 -150 581 l 1
 -150 676 l 1
65 676 m 1
 149 676 l 1
 149 581 l 1
 65 581 l 1
 65 676 l 1
EndSplineSet
EndChar

StartChar: uni030A
Encoding: 778 778 213
Width: 0
GlyphClass: 2
Flags: W
LayerCount: 2
Fore
SplineSet
-67.5 593.5 m 0
 -85.1669921875 611.166992188 -94 633.666992188 -94 661 c 0
 -94 688.333007812 -85.1669921875 711 -67.5 729 c 0
 -49.8330078125 747 -27.3330078125 756 0 756 c 0
 26.6669921875 756 49 747 67 729 c 0
 85 711 94 688.333007812 94 661 c 0
 94 634.333007812 85.1669921875 612 67.5 594 c 0
 49.8330078125 576 27.3330078125 567 0 567 c 0
 -27.3330078125 567 -49.8330078125 575.833007812 -67.5 593.5 c 0
36 624 m 0
 45.3330078125 634 50 646.333007812 50 661 c 0
 50 676.333007812 45.3330078125 688.833007812 36 698.5 c 0
 26.6669921875 708.166992188 14.6669921875 713 0 713 c 0
 -14.6669921875 713 -26.6669921875 708.166992188 -36 698.5 c 0
 -45.3330078125 688.833007812 -50 676.333007812 -50 661 c 0
 -50 646.333007812 -45.3330078125 634 -36 624 c 0
 -26.6669921875 614 -14.6669921875 609 0 609 c 0
 14.6669921875 609 26.6669921875 614 36 624 c 0
EndSplineSet
EndChar

StartChar: endash
Encoding: 8211 8211 214
Width: 482
GlyphClass: 2
Flags: W
LayerCount: 2
Fore
SplineSet
0 387 m 1
 482 387 l 1
 482 306 l 1
 0 306 l 1
 0 387 l 1
EndSplineSet
EndChar

StartChar: emdash
Encoding: 8212 8212 215
Width: 963
GlyphClass: 2
Flags: W
LayerCount: 2
Fore
SplineSet
0 387 m 1
 963 387 l 1
 963 306 l 1
 0 306 l 1
 0 387 l 1
EndSplineSet
EndChar

StartChar: quoteleft
Encoding: 8216 8216 216
Width: 177
GlyphClass: 2
Flags: W
LayerCount: 2
Fore
SplineSet
48 654 m 1
 129 727 l 1
 129 476 l 1
 48 476 l 1
 48 654 l 1
EndSplineSet
EndChar

StartChar: quoteright
Encoding: 8217 8217 217
Width: 177
GlyphClass: 2
Flags: W
LayerCount: 2
Fore
SplineSet
48 690 m 1
 129 690 l 1
 129 512 l 1
 48 439 l 1
 48 690 l 1
EndSplineSet
EndChar

StartChar: quotesinglbase
Encoding: 8218 8218 218
Width: 177
GlyphClass: 2
Flags: W
LayerCount: 2
Fore
SplineSet
48 107 m 1
 129 107 l 1
 129 -72 l 1
 48 -145 l 1
 48 107 l 1
EndSplineSet
EndChar

StartChar: quotedblleft
Encoding: 8220 8220 219
Width: 338
GlyphClass: 2
Flags: W
LayerCount: 2
Fore
SplineSet
47 654 m 1
 129 727 l 1
 129 476 l 1
 47 476 l 1
 47 654 l 1
208 654 m 1
 290 727 l 1
 290 476 l 1
 208 476 l 1
 208 654 l 1
EndSplineSet
EndChar

StartChar: quotedblright
Encoding: 8221 8221 220
Width: 338
GlyphClass: 2
Flags: W
LayerCount: 2
Fore
SplineSet
48 691 m 1
 129 691 l 1
 129 512 l 1
 48 439 l 1
 48 691 l 1
209 691 m 1
 291 691 l 1
 291 512 l 1
 209 439 l 1
 209 691 l 1
EndSplineSet
EndChar

StartChar: quotedblbase
Encoding: 8222 8222 221
Width: 337
GlyphClass: 2
Flags: W
LayerCount: 2
Fore
SplineSet
208 107 m 1
 289 107 l 1
 289 -72 l 1
 208 -145 l 1
 208 107 l 1
48 107 m 1
 129 107 l 1
 129 -72 l 1
 48 -145 l 1
 48 107 l 1
EndSplineSet
EndChar

StartChar: dagger
Encoding: 8224 8224 222
Width: 586
GlyphClass: 2
Flags: W
LayerCount: 2
Fore
SplineSet
519 375 m 1
 339 375 l 1
 339 -153 l 1
 248 -153 l 1
 248 375 l 1
 67 375 l 1
 67 456 l 1
 248 456 l 1
 248 690 l 1
 339 690 l 1
 339 456 l 1
 519 456 l 1
 519 375 l 1
EndSplineSet
EndChar

StartChar: daggerdbl
Encoding: 8225 8225 223
Width: 586
GlyphClass: 2
Flags: W
LayerCount: 2
Fore
SplineSet
339 379 m 1
 339 161 l 1
 519 161 l 1
 519 80 l 1
 339 80 l 1
 339 -153 l 1
 248 -153 l 1
 248 80 l 1
 67 80 l 1
 67 161 l 1
 248 161 l 1
 248 379 l 1
 67 379 l 1
 67 460 l 1
 248 460 l 1
 248 690 l 1
 339 690 l 1
 339 460 l 1
 519 460 l 1
 519 379 l 1
 339 379 l 1
EndSplineSet
EndChar

StartChar: bullet
Encoding: 8226 8226 224
Width: 461
GlyphClass: 2
Flags: W
LayerCount: 2
Fore
SplineSet
137.5 215.5 m 0
 113.166992188 239.833007812 101 270.665039062 101 307.998046875 c 0
 101 345.33203125 113.166992188 376.165039062 137.5 400.498046875 c 0
 161.833007812 424.831054688 192.666015625 436.998046875 229.999023438 436.998046875 c 0
 267.33203125 436.998046875 298.33203125 424.831054688 322.999023438 400.498046875 c 0
 347.666015625 376.165039062 359.999023438 345.33203125 359.999023438 307.999023438 c 0
 359.999023438 270.666015625 347.666015625 239.833007812 322.999023438 215.5 c 0
 298.33203125 191.166992188 267.33203125 179 229.999023438 179 c 0
 192.666015625 179 161.833007812 191.166992188 137.5 215.5 c 0
EndSplineSet
EndChar

StartChar: ellipsis
Encoding: 8230 8230 225
Width: 703
GlyphClass: 2
Flags: W
LayerCount: 2
Fore
SplineSet
48 107 m 1
 150 107 l 1
 150 0 l 1
 48 0 l 1
 48 107 l 1
553 107 m 1
 655 107 l 1
 655 0 l 1
 553 0 l 1
 553 107 l 1
301 107 m 1
 403 107 l 1
 403 0 l 1
 301 0 l 1
 301 107 l 1
EndSplineSet
EndChar

StartChar: perthousand
Encoding: 8240 8240 226
Width: 1284
GlyphClass: 2
Flags: W
LayerCount: 2
Fore
SplineSet
77.5 307.5 m 0
 53.8330078125 335.166992188 42 376 42 430 c 2
 42 538 l 2
 42 590 54.1669921875 629.5 78.5 656.5 c 0
 102.833007812 683.5 138.333007812 697 185 697 c 0
 280.333007812 697 328 644 328 538 c 2
 328 430 l 2
 328 376 316 335.166992188 292 307.5 c 0
 268 279.833007812 232 266 184 266 c 0
 136.666992188 266 101.166992188 279.833007812 77.5 307.5 c 0
609 692 m 1
 683 692 l 1
 302 0 l 1
 229 0 l 1
 609 692 l 1
235 357 m 0
 245 373 250 399 250 435 c 2
 250 530 l 2
 250 564.666992188 245 590 235 606 c 0
 225 622 208.333007812 630 185 630 c 0
 161.666992188 630 144.833984375 622 134.500976562 606 c 0
 124.16796875 590 119.000976562 564.666992188 119.000976562 530 c 2
 119.000976562 435 l 2
 119.000976562 399 124.16796875 373 134.500976562 357 c 0
 144.833984375 341 161.666992188 333 185 333 c 0
 208.333007812 333 225 341 235 357 c 0
589 158 m 2
 589 264.999023438 l 2
 589 317.666015625 601 357.333007812 625 384 c 0
 649 410.666992188 684.666992188 424 732 424 c 0
 827.333007812 424 875 371 875 265 c 2
 875 158 l 2
 875 48.6669921875 827 -6 731 -6 c 0
 636.333007812 -6 589 48.6669921875 589 158 c 2
956 157.999023438 m 2
 956 264.998046875 l 2
 956 317.665039062 968 357.33203125 992 383.999023438 c 0
 1016 410.666015625 1051.66699219 423.999023438 1099 423.999023438 c 0
 1194.33300781 423.999023438 1242 370.999023438 1242 264.999023438 c 2
 1242 157.999023438 l 2
 1242 48.666015625 1194 -6.0009765625 1098 -6.0009765625 c 0
 1003.33300781 -6.0009765625 956 48.666015625 956 157.999023438 c 2
782 84.998046875 m 0
 792 100.998046875 797.000976562 126.665039062 797.000976562 161.998046875 c 2
 797.000976562 256.998046875 l 2
 797.000976562 292.331054688 792.000976562 317.831054688 782.000976562 333.498046875 c 0
 772.000976562 349.165039062 755.333984375 356.998046875 732.000976562 356.998046875 c 0
 708.665039062 356.998046875 691.83203125 349.165039062 681.500976562 333.498046875 c 0
 671.16796875 317.831054688 666.000976562 292.331054688 666.000976562 256.998046875 c 2
 666.000976562 161.998046875 l 2
 666.000976562 126.665039062 671.16796875 100.998046875 681.500976562 84.998046875 c 0
 691.833984375 68.998046875 708.666992188 60.998046875 732 60.998046875 c 0
 755.333007812 60.998046875 772 68.998046875 782 84.998046875 c 0
1149.00097656 84.998046875 m 0
 1159.00097656 100.998046875 1164 126.665039062 1164 161.998046875 c 2
 1164 256.998046875 l 2
 1164 292.331054688 1159 317.831054688 1149 333.498046875 c 0
 1139 349.165039062 1122.33300781 356.998046875 1099 356.998046875 c 0
 1075.66699219 356.998046875 1058.83398438 349.165039062 1048.50097656 333.498046875 c 0
 1038.16796875 317.831054688 1033.00097656 292.331054688 1033.00097656 256.998046875 c 2
 1033.00097656 161.998046875 l 2
 1033.00097656 126.665039062 1038.16796875 100.998046875 1048.50097656 84.998046875 c 0
 1058.84277344 68.998046875 1075.67578125 60.998046875 1099.00097656 60.998046875 c 0
 1122.33398438 60.998046875 1139.00097656 68.998046875 1149.00097656 84.998046875 c 0
EndSplineSet
EndChar

StartChar: guilsinglleft
Encoding: 8249 8249 227
Width: 323
GlyphClass: 2
Flags: W
LayerCount: 2
Fore
SplineSet
23 264 m 1
 256 469 l 1
 256 378 l 1
 124 264 l 1
 256 150 l 1
 256 59 l 1
 23 264 l 1
EndSplineSet
Substitution2: "'rtla' Right to Left Alternates lookup 0 subtable" guilsinglright
EndChar

StartChar: guilsinglright
Encoding: 8250 8250 228
Width: 335
GlyphClass: 2
Flags: W
LayerCount: 2
Fore
SplineSet
67 150 m 1
 199 264 l 1
 67 378 l 1
 67 469 l 1
 301 264 l 1
 67 59 l 1
 67 150 l 1
EndSplineSet
Substitution2: "'rtla' Right to Left Alternates lookup 0 subtable" guilsinglleft
EndChar

StartChar: Euro
Encoding: 8364 8364 229
Width: 606
GlyphClass: 2
Flags: W
LayerCount: 2
Fore
SplineSet
161 53.5 m 0
 121 95.8330078125 101 154.666992188 101 230 c 2
 101 251 l 1
 34 251 l 1
 34 315 l 1
 101 315 l 1
 101 380 l 1
 34 380 l 1
 34 444 l 1
 101 444 l 1
 101 467 l 2
 101 539.666992188 121 596.666992188 161 638 c 0
 201 679.333007812 258 700 332 700 c 0
 394 700 444 685 482 655 c 0
 520 625 540.333007812 583 543 529 c 1
 462 529 l 1
 452 590.333007812 409 621 333 621 c 0
 237.666992188 621 190 570 190 468 c 2
 190 444 l 1
 434 444 l 1
 421 380 l 1
 190 380 l 1
 190 315 l 1
 407 315 l 1
 394 251 l 1
 190 251 l 1
 190 228 l 2
 190 122 238.333007812 69 335 69 c 0
 373 69 402.666992188 76.8330078125 424 92.5 c 0
 445.333007812 108.166992188 458.333007812 131 463 161 c 1
 547 161 l 1
 543 107 521.833007812 65 483.5 35 c 0
 445.166992188 5 395 -10 333 -10 c 0
 258.333007812 -10 201 11.1669921875 161 53.5 c 0
EndSplineSet
EndChar

StartChar: trademark
Encoding: 8482 8482 230
Width: 902
GlyphClass: 2
Flags: W
LayerCount: 2
Fore
SplineSet
168 629 m 1
 36 629 l 1
 36 690 l 1
 369 690 l 1
 369 629 l 1
 237 629 l 1
 237 296 l 1
 168 296 l 1
 168 629 l 1
433 690 m 1
 496 690 l 1
 631 436 l 1
 635 436 l 1
 766 690 l 1
 829 690 l 1
 829 296 l 1
 765 296 l 1
 765 553 l 1
 762 553 l 1
 656 354 l 1
 608 354 l 1
 500 553 l 1
 497 553 l 1
 497 296 l 1
 433 296 l 1
 433 690 l 1
EndSplineSet
EndChar

StartChar: fi
Encoding: 64257 64257 231
Width: 561
GlyphClass: 2
Flags: W
LayerCount: 2
Fore
SplineSet
221.5 608.5 m 0
 208.5 596.166992188 202 577 202 551 c 2
 202 512 l 1
 330 512 l 1
 330 448 l 1
 202 448 l 1
 202 0 l 1
 117 0 l 1
 117 448 l 1
 45 448 l 1
 45 512 l 1
 117 512 l 1
 117 548 l 2
 117 594 130 629.166992188 156 653.5 c 0
 182 677.833007812 219.666992188 690 269 690 c 2
 330 690 l 1
 330 627 l 1
 283 627 l 2
 255 627 234.5 620.833007812 221.5 608.5 c 0
400 689 m 1
 485 689 l 1
 485 597 l 1
 400 597 l 1
 400 689 l 1
400 512 m 1
 485 512 l 1
 485 0 l 1
 400 0 l 1
 400 512 l 1
EndSplineSet
EndChar

StartChar: fl
Encoding: 64258 64258 232
Width: 628
GlyphClass: 2
Flags: W
LayerCount: 2
Fore
SplineSet
221.5 608.5 m 0
 208.5 596.166992188 202 577 202 551 c 2
 202 512 l 1
 330 512 l 1
 330 448 l 1
 202 448 l 1
 202 0 l 1
 117 0 l 1
 117 448 l 1
 45 448 l 1
 45 512 l 1
 117 512 l 1
 117 548 l 2
 117 594 130 629.166992188 156 653.5 c 0
 182 677.833007812 219.666992188 690 269 690 c 2
 330 690 l 1
 330 627 l 1
 283 627 l 2
 255 627 234.5 620.833007812 221.5 608.5 c 0
431.5 37.5 m 0
 405.833007812 62.5 393 101.333007812 393 154 c 2
 393 690 l 1
 478 690 l 1
 478 159 l 2
 478 129 484.166992188 107.666992188 496.5 95 c 0
 508.833007812 82.3330078125 530.333007812 76 561 76 c 2
 605 76 l 1
 605 0 l 1
 550 0 l 2
 496.666992188 0 457.166992188 12.5 431.5 37.5 c 0
EndSplineSet
EndChar

